kripa (Autosaved).glyphspackage
{
glyphname = exclam;
lastChange = "2025-05-28 00:56:31 +0000";
layers = (
{
layerId = "30C2FD74-1A74-41AC-9C29-B288AE1DBDD7";
shapes = (
{
closed = 1;
nodes = (
(176,214,l),
(181,745,l),
(101,745,l),
(106,214,l)
);
},
{
ref = period;
}
);
width = 286;
},
{
layerId = "9398AC28-6BE1-4A79-9C94-3CBC2F226CE7";
shapes = (
{
closed = 1;
nodes = (
(245,230,l),
(255,745,l),
(105,745,l),
(115,230,l)
);
},
{
ref = period;
}
);
width = 360;
},
{
layerId = "C1DB0BE6-5704-4A8C-8C00-D80E72C16D98";
shapes = (
{
closed = 1;
nodes = (
(150,208,l),
(153,745,l),
(103,745,l),
(105,208,l)
);
},
{
ref = period;
}
);
width = 260;
}
);
metricLeft = "=period";
metricRight = "=period";
unicode = 33;
}
{
color = 4;
glyphname = numbersign;
lastChange = "2025-03-19 20:02:15 +0000";
layers = (
{
layerId = "30C2FD74-1A74-41AC-9C29-B288AE1DBDD7";
shapes = (
{
closed = 1;
nodes = (
(184,0,l),
(240,195,l),
(450,195,l),
(394,0,l),
(474,0,l),
(530,195,l),
(666,195,l),
(680,265,l),
(550,265,l),
(612,480,l),
(748,480,l),
(762,550,l),
(632,550,l),
(688,745,l),
(608,745,l),
(552,550,l),
(342,550,l),
(398,745,l),
(318,745,l),
(262,550,l),
(128,550,l),
(112,480,l),
(242,480,l),
(180,265,l),
(46,265,l),
(30,195,l),
(160,195,l),
(104,0,l)
);
},
{
closed = 1;
nodes = (
(322,480,l),
(532,480,l),
(470,265,l),
(260,265,l)
);
}
);
width = 792;
},
{
layerId = "9398AC28-6BE1-4A79-9C94-3CBC2F226CE7";
shapes = (
{
closed = 1;
nodes = (
(286,0,l),
(336,173,l),
(485,173,l),
(436,0,l),
(586,0,l),
(635,173,l),
(767,173,l),
(797,303,l),
(673,303,l),
(712,443,l),
(836,443,l),
(866,573,l),
(750,573,l),
(799,745,l),
(649,745,l),
(600,573,l),
(451,573,l),
(500,745,l),
(350,745,l),
(301,573,l),
(169,573,l),
(139,443,l),
(263,443,l),
(223,303,l),
(100,303,l),
(70,173,l),
(186,173,l),
(136,0,l)
);
},
{
closed = 1;
nodes = (
(413,443,l),
(562,443,l),
(523,303,l),
(373,303,l)
);
}
);
width = 936;
},
{
layerId = "C1DB0BE6-5704-4A8C-8C00-D80E72C16D98";
shapes = (
{
closed = 1;
nodes = (
(151,0,l),
(212,213,l),
(446,213,l),
(385,0,l),
(437,0,l),
(498,213,l),
(631,213,l),
(641,258,l),
(511,258,l),
(578,487,l),
(710,487,l),
(720,533,l),
(590,533,l),
(652,745,l),
(600,745,l),
(538,533,l),
(304,533,l),
(365,745,l),
(313,745,l),
(252,533,l),
(119,533,l),
(109,488,l),
(239,488,l),
(173,258,l),
(40,258,l),
(30,213,l),
(160,213,l),
(99,0,l)
);
},
{
closed = 1;
nodes = (
(291,488,l),
(526,488,l),
(459,258,l),
(225,258,l)
);
}
);
width = 750;
}
);
metricRight = "=|";
unicode = 35;
}
{
color = 4;
glyphname = dollar;
kernLeft = S;
kernRight = S;
lastChange = "2025-07-16 02:57:56 +0000";
layers = (
{
layerId = "30C2FD74-1A74-41AC-9C29-B288AE1DBDD7";
shapes = (
{
closed = 1;
nodes = (
(369,-110,l),
(369,835,l),
(293,835,l),
(293,-110,l)
);
},
{
ref = S;
}
);
width = 633;
},
{
layerId = "9398AC28-6BE1-4A79-9C94-3CBC2F226CE7";
shapes = (
{
closed = 1;
nodes = (
(412,-110,l),
(412,835,l),
(282,835,l),
(282,-110,l)
);
},
{
ref = S;
}
);
width = 666;
},
{
layerId = "C1DB0BE6-5704-4A8C-8C00-D80E72C16D98";
shapes = (
{
closed = 1;
nodes = (
(353,-110,l),
(353,835,l),
(303,835,l),
(303,-110,l)
);
},
{
ref = S;
}
);
width = 635;
},
{
associatedMasterId = "C1DB0BE6-5704-4A8C-8C00-D80E72C16D98";
attr = {
axisRules = (
{
max = 800;
min = 500;
}
);
};
layerId = "5698B770-5050-4F96-8D1E-C8AFAD5C53D7";
name = "[500<wg]";
shapes = (
{
closed = 1;
nodes = (
(353,708,l),
(353,835,l),
(303,835,l),
(303,708,l)
);
},
{
ref = S;
},
{
closed = 1;
nodes = (
(303,18,l),
(303,-110,l),
(353,-110,l),
(353,18,l)
);
}
);
width = 635;
},
{
associatedMasterId = "30C2FD74-1A74-41AC-9C29-B288AE1DBDD7";
attr = {
axisRules = (
{
max = 800;
min = 500;
}
);
};
layerId = "045089B9-A46D-49C0-84B5-FA285DFA298E";
name = "Jun 5, 25 at 15:00";
shapes = (
{
closed = 1;
nodes = (
(369,701,l),
(369,835,l),
(293,835,l),
(293,701,l)
);
},
{
ref = S;
},
{
closed = 1;
nodes = (
(293,21,l),
(293,-110,l),
(369,-110,l),
(369,21,l)
);
}
);
width = 633;
},
{
associatedMasterId = "9398AC28-6BE1-4A79-9C94-3CBC2F226CE7";
attr = {
axisRules = (
{
max = 800;
min = 500;
}
);
};
layerId = "020E3A5E-88DD-4C89-8E2C-B95F4B2EF681";
name = "Jun 5, 25 at 15:02";
shapes = (
{
closed = 1;
nodes = (
(412,697,l),
(412,835,l),
(282,835,l),
(282,697,l)
);
},
{
ref = S;
},
{
closed = 1;
nodes = (
(282,47,l),
(282,-110,l),
(412,-110,l),
(412,47,l)
);
}
);
width = 666;
}
);
metricLeft = "=S";
metricRight = "=S";
unicode = 36;
}
{
color = 4;
glyphname = percent;
lastChange = "2025-03-19 17:59:18 +0000";
layers = (
{
layerId = "30C2FD74-1A74-41AC-9C29-B288AE1DBDD7";
shapes = (
{
closed = 1;
nodes = (
(245,0,l),
(835,745,l),
(738,745,l),
(148,0,l)
);
},
{
closed = 1;
nodes = (
(354,367,o),
(441,454,o),
(441,562,cs),
(441,670,o),
(354,757,o),
(247,757,cs),
(139,757,o),
(52,670,o),
(52,562,cs),
(52,454,o),
(139,367,o),
(247,367,cs)
);
},
{
closed = 1;
nodes = (
(178,439,o),
(127,499,o),
(127,562,cs),
(127,625,o),
(178,685,o),
(247,685,cs),
(316,685,o),
(366,625,o),
(366,562,cs),
(366,499,o),
(316,439,o),
(247,439,cs)
);
},
{
closed = 1;
nodes = (
(834,-12,o),
(921,75,o),
(921,183,cs),
(921,291,o),
(834,378,o),
(727,378,cs),
(619,378,o),
(532,291,o),
(532,183,cs),
(532,75,o),
(619,-12,o),
(727,-12,cs)
);
},
{
closed = 1;
nodes = (
(658,60,o),
(607,120,o),
(607,183,cs),
(607,246,o),
(658,306,o),
(727,306,cs),
(796,306,o),
(846,246,o),
(846,183,cs),
(846,120,o),
(796,60,o),
(727,60,cs)
);
}
);
width = 973;
},
{
layerId = "9398AC28-6BE1-4A79-9C94-3CBC2F226CE7";
shapes = (
{
closed = 1;
nodes = (
(322,0,l),
(904,745,l),
(750,745,l),
(168,0,l)
);
},
{
closed = 1;
nodes = (
(388,367,o),
(473,454,o),
(473,562,cs),
(473,670,o),
(388,757,o),
(277,757,cs),
(165,757,o),
(80,670,o),
(80,562,cs),
(80,454,o),
(165,367,o),
(277,367,cs)
);
},
{
closed = 1;
nodes = (
(224,477,o),
(195,519,o),
(195,562,cs),
(195,605,o),
(224,647,o),
(277,647,cs),
(330,647,o),
(358,605,o),
(358,562,cs),
(358,519,o),
(330,477,o),
(277,477,cs)
);
},
{
closed = 1;
nodes = (
(905,-12,o),
(990,75,o),
(990,183,cs),
(990,291,o),
(905,378,o),
(794,378,cs),
(682,378,o),
(597,291,o),
(597,183,cs),
(597,75,o),
(682,-12,o),
(794,-12,cs)
);
},
{
closed = 1;
nodes = (
(741,98,o),
(712,140,o),
(712,183,cs),
(712,226,o),
(741,268,o),
(794,268,cs),
(847,268,o),
(875,226,o),
(875,183,cs),
(875,140,o),
(847,98,o),
(794,98,cs)
);
}
);
width = 1070;
},
{
layerId = "C1DB0BE6-5704-4A8C-8C00-D80E72C16D98";
shapes = (
{
closed = 1;
nodes = (
(195,0,l),
(790,745,l),
(729,745,l),
(134,0,l)
);
},
{
closed = 1;
nodes = (
(336,385,o),
(420,468,o),
(420,571,cs),
(420,674,o),
(336,757,o),
(237,757,cs),
(137,757,o),
(52,674,o),
(52,571,cs),
(52,468,o),
(137,385,o),
(237,385,cs)
);
},
{
closed = 1;
nodes = (
(157,428,o),
(97,499,o),
(97,571,cs),
(97,643,o),
(157,714,o),
(237,714,cs),
(317,714,o),
(375,642,o),
(375,571,cs),
(375,500,o),
(317,428,o),
(237,428,cs)
);
},
{
closed = 1;
nodes = (
(792,-12,o),
(876,71,o),
(876,174,cs),
(876,277,o),
(792,360,o),
(693,360,cs),
(593,360,o),
(508,277,o),
(508,174,cs),
(508,71,o),
(593,-12,o),
(693,-12,cs)
);
},
{
closed = 1;
nodes = (
(613,31,o),
(553,102,o),
(553,174,cs),
(553,246,o),
(613,317,o),
(693,317,cs),
(773,317,o),
(831,245,o),
(831,174,cs),
(831,103,o),
(773,31,o),
(693,31,cs)
);
}
);
width = 928;
}
);
unicode = 37;
}
{
color = 4;
glyphname = ampersand;
lastChange = "2026-01-15 20:44:34 +0000";
layers = (
{
layerId = "30C2FD74-1A74-41AC-9C29-B288AE1DBDD7";
shapes = (
{
closed = 1;
nodes = (
(507,-12,o),
(648,173,o),
(648,419,c),
(573,419,l),
(573,215,o),
(465,62,o),
(320,62,cs),
(210,62,o),
(145,104,o),
(145,174,cs),
(145,256,o),
(211,301,o),
(322,357,c),
(273,413,l),
(140,349,o),
(60,283,o),
(60,174,cs),
(60,57,o),
(156,-12,o),
(318,-12,cs)
);
},
{
closed = 1;
nodes = (
(768,0,l),
(299,420,ls),
(235,477,o),
(204,509,o),
(204,568,cs),
(204,621,o),
(252,661,o),
(316,662,c),
(316,736,l),
(206,735,o),
(124,664,o),
(124,570,cs),
(124,487,o),
(161,432,o),
(237,367,cs),
(661,0,l)
);
},
{
closed = 1;
nodes = (
(445,416,o),
(507,488,o),
(507,570,cs),
(507,664,o),
(425,735,o),
(315,736,c),
(315,662,l),
(379,661,o),
(427,621,o),
(427,568,cs),
(427,509,o),
(369,453,o),
(293,417,c),
(348,363,l)
);
}
);
width = 768;
},
{
layerId = "9398AC28-6BE1-4A79-9C94-3CBC2F226CE7";
shapes = (
{
closed = 1;
nodes = (
(575,-10,o),
(745,181,o),
(745,435,c),
(600,435,l),
(600,257,o),
(491,123,o),
(345,123,cs),
(270,123,o),
(215,153,o),
(215,205,cs),
(215,235,o),
(237,269,o),
(336,329,c),
(282,422,l),
(163,359,o),
(50,319,o),
(50,195,cs),
(50,66,o),
(161,-10,o),
(349,-10,cs)
);
},
{
closed = 1;
nodes = (
(826,0,l),
(349,432,ls),
(297,480,o),
(273,503,o),
(273,542,cs),
(273,586,o),
(310,619,o),
(356,619,c),
(356,747,l),
(235,747,o),
(124,676,o),
(124,560,cs),
(124,476,o),
(159,418,o),
(240,347,cs),
(636,0,l)
);
},
{
closed = 1;
nodes = (
(490,383,o),
(578,464,o),
(578,560,cs),
(578,676,o),
(477,747,o),
(356,747,c),
(356,619,l),
(402,619,o),
(439,586,o),
(439,542,cs),
(439,492,o),
(388,455,o),
(333,432,c),
(387,339,l)
);
}
);
width = 826;
},
{
layerId = "C1DB0BE6-5704-4A8C-8C00-D80E72C16D98";
shapes = (
{
closed = 1;
nodes = (
(491,-12,o),
(631,167,o),
(631,406,c),
(586,406,l),
(586,195,o),
(465,36,o),
(304,36,cs),
(188,36,o),
(120,90,o),
(120,182,cs),
(120,253,o),
(184,307,o),
(303,375,c),
(270,408,l),
(142,340,o),
(70,258,o),
(70,182,cs),
(70,60,o),
(157,-12,o),
(304,-12,cs)
);
},
{
closed = 1;
nodes = (
(738,0,l),
(298,422,ls),
(229,488,o),
(188,519,o),
(188,585,cs),
(188,643,o),
(239,687,o),
(307,687,c),
(307,735,l),
(210,735,o),
(138,671,o),
(138,586,cs),
(138,502,o),
(187,458,o),
(261,387,cs),
(669,0,l)
);
},
{
closed = 1;
nodes = (
(430,449,o),
(476,494,o),
(476,586,cs),
(476,671,o),
(404,735,o),
(307,735,c),
(307,687,l),
(375,687,o),
(426,643,o),
(426,585,cs),
(426,514,o),
(395,480,o),
(292,419,c),
(326,387,l)
);
}
);
width = 738;
}
);
metricLeft = "=S";
metricRight = "=0";
unicode = 38;
}
{
glyphname = quotesingle;
kernLeft = quotesingle;
kernRight = quotesingle;
lastChange = "2026-03-07 01:52:36 +0000";
layers = (
{
layerId = "30C2FD74-1A74-41AC-9C29-B288AE1DBDD7";
shapes = (
{
closed = 1;
nodes = (
(113,531,l),
(126,725,l),
(42,725,l),
(56,531,l)
);
}
);
width = 168;
},
{
layerId = "9398AC28-6BE1-4A79-9C94-3CBC2F226CE7";
shapes = (
{
closed = 1;
nodes = (
(146,522,l),
(171,726,l),
(45,726,l),
(71,522,l)
);
}
);
width = 216;
},
{
layerId = "C1DB0BE6-5704-4A8C-8C00-D80E72C16D98";
shapes = (
{
closed = 1;
nodes = (
(108,536,l),
(120,725,l),
(40,725,l),
(53,536,l)
);
}
);
width = 160;
}
);
metricLeft = "=period/2";
metricRight = "=period/2";
unicode = 39;
}
{
glyphname = parenleft;
lastChange = "2021-11-10 04:04:52 +0000";
layers = (
{
layerId = "30C2FD74-1A74-41AC-9C29-B288AE1DBDD7";
shapes = (
{
closed = 1;
nodes = (
(275,-140,l),
(179,-5,o),
(128,148,o),
(128,303,cs),
(128,458,o),
(179,612,o),
(275,745,c),
(210,745,l),
(104,626,o),
(48,473,o),
(48,303,cs),
(48,133,o),
(104,-20,o),
(210,-140,c)
);
}
);
width = 295;
},
{
layerId = "9398AC28-6BE1-4A79-9C94-3CBC2F226CE7";
shapes = (
{
closed = 1;
nodes = (
(365,-180,l),
(271,-35,o),
(224,119,o),
(224,283,cs),
(224,447,o),
(270,598,o),
(365,745,c),
(240,745,l),
(125,611,o),
(69,458,o),
(69,283,cs),
(69,108,o),
(126,-46,o),
(240,-180,c)
);
}
);
width = 407;
},
{
layerId = "C1DB0BE6-5704-4A8C-8C00-D80E72C16D98";
shapes = (
{
closed = 1;
nodes = (
(249,-130,l),
(153,1,o),
(100,158,o),
(100,308,cs),
(100,462,o),
(153,618,o),
(249,745,c),
(198,745,l),
(102,632,o),
(50,479,o),
(50,308,cs),
(50,146,o),
(101,-14,o),
(198,-130,c)
);
}
);
width = 269;
}
);
unicode = 40;
}
{
glyphname = parenright;
lastChange = "2021-11-10 04:04:52 +0000";
layers = (
{
layerId = "30C2FD74-1A74-41AC-9C29-B288AE1DBDD7";
shapes = (
{
closed = 1;
nodes = (
(85,-140,l),
(191,-20,o),
(247,133,o),
(247,303,cs),
(247,473,o),
(191,626,o),
(85,745,c),
(20,745,l),
(116,612,o),
(167,458,o),
(167,303,cs),
(167,148,o),
(116,-5,o),
(20,-140,c)
);
}
);
width = 295;
},
{
layerId = "9398AC28-6BE1-4A79-9C94-3CBC2F226CE7";
shapes = (
{
closed = 1;
nodes = (
(167,-180,l),
(281,-46,o),
(338,108,o),
(338,283,cs),
(338,458,o),
(282,611,o),
(167,745,c),
(42,745,l),
(137,598,o),
(183,447,o),
(183,283,cs),
(183,119,o),
(136,-35,o),
(42,-180,c)
);
}
);
width = 407;
},
{
layerId = "C1DB0BE6-5704-4A8C-8C00-D80E72C16D98";
shapes = (
{
closed = 1;
nodes = (
(71,-130,l),
(168,-14,o),
(219,146,o),
(219,308,cs),
(219,479,o),
(167,632,o),
(71,745,c),
(20,745,l),
(116,618,o),
(169,462,o),
(169,308,cs),
(169,158,o),
(116,1,o),
(20,-130,c)
);
}
);
width = 269;
}
);
metricLeft = "=|parenleft";
metricRight = "=|parenleft";
unicode = 41;
}
{
glyphname = asterisk;
lastChange = "2025-05-28 00:57:51 +0000";
layers = (
{
layerId = "30C2FD74-1A74-41AC-9C29-B288AE1DBDD7";
shapes = (
{
closed = 1;
nodes = (
(241,497,l),
(328,383,l),
(386,425,l),
(300,539,l),
(427,582,l),
(405,650,l),
(277,608,l),
(277,745,l),
(205,745,l),
(205,608,l),
(77,650,l),
(55,582,l),
(182,539,l),
(96,425,l),
(154,383,l)
);
}
);
width = 482;
},
{
layerId = "9398AC28-6BE1-4A79-9C94-3CBC2F226CE7";
shapes = (
{
closed = 1;
nodes = (
(279,452,l),
(348,358,l),
(436,422,l),
(367,516,l),
(478,554,l),
(444,657,l),
(334,620,l),
(334,745,l),
(224,745,l),
(224,620,l),
(114,657,l),
(80,554,l),
(191,516,l),
(122,422,l),
(210,358,l)
);
}
);
width = 558;
},
{
layerId = "C1DB0BE6-5704-4A8C-8C00-D80E72C16D98";
shapes = (
{
closed = 1;
nodes = (
(227,523,l),
(324,398,l),
(364,427,l),
(270,552,l),
(405,598,l),
(389,645,l),
(252,600,l),
(252,745,l),
(202,745,l),
(202,600,l),
(64,645,l),
(50,598,l),
(186,552,l),
(91,427,l),
(131,398,l)
);
}
);
width = 455;
}
);
metricRight = "=|";
unicode = 42;
}
{
glyphname = plus;
lastChange = "2021-11-10 09:11:37 +0000";
layers = (
{
layerId = "30C2FD74-1A74-41AC-9C29-B288AE1DBDD7";
shapes = (
{
closed = 1;
nodes = (
(341,0,l),
(341,213,l),
(553,213,l),
(553,288,l),
(341,288,l),
(341,500,l),
(266,500,l),
(266,288,l),
(53,288,l),
(53,213,l),
(266,213,l),
(266,0,l)
);
}
);
width = 606;
},
{
layerId = "9398AC28-6BE1-4A79-9C94-3CBC2F226CE7";
shapes = (
{
closed = 1;
nodes = (
(402,0,l),
(402,188,l),
(589,188,l),
(589,313,l),
(402,313,l),
(402,500,l),
(277,500,l),
(277,313,l),
(89,313,l),
(89,188,l),
(277,188,l),
(277,0,l)
);
}
);
width = 678;
},
{
layerId = "C1DB0BE6-5704-4A8C-8C00-D80E72C16D98";
shapes = (
{
closed = 1;
nodes = (
(321,0,l),
(321,228,l),
(548,228,l),
(548,273,l),
(321,273,l),
(321,500,l),
(276,500,l),
(276,273,l),
(48,273,l),
(48,228,l),
(276,228,l),
(276,0,l)
);
}
);
width = 596;
}
);
metricWidth = "=plus";
unicode = 43;
}
{
color = 4;
glyphname = comma;
kernLeft = period;
kernRight = period;
lastChange = "2025-04-01 01:10:34 +0000";
layers = (
{
layerId = "30C2FD74-1A74-41AC-9C29-B288AE1DBDD7";
shapes = (
{
closed = 1;
nodes = (
(109,120,o),
(83,95,o),
(83,60,cs),
(83,25,o),
(108,0,o),
(143,0,c),
(145,0,o),
(150,0,o),
(155,2,c),
(155,-22,o),
(142,-49,o),
(108,-53,c),
(121,-110,l),
(169,-101,o),
(192,-75,o),
(206,-43,cs),
(220,-9,o),
(223,35,o),
(213,63,cs),
(201,96,o),
(173,120,o),
(146,120,cs)
);
}
);
width = 261;
},
{
layerId = "9398AC28-6BE1-4A79-9C94-3CBC2F226CE7";
shapes = (
{
closed = 1;
nodes = (
(122,160,o),
(90,125,o),
(90,75,cs),
(90,31,o),
(123,0,o),
(170,0,c),
(174,0,o),
(179,1,o),
(182,2,c),
(182,-26,o),
(150,-67,o),
(105,-73,c),
(124,-147,l),
(179,-134,o),
(227,-102,o),
(253,-33,cs),
(265,-1,o),
(268,47,o),
(260,83,cs),
(250,128,o),
(212,160,o),
(168,160,cs)
);
}
);
width = 309;
},
{
layerId = "C1DB0BE6-5704-4A8C-8C00-D80E72C16D98";
shapes = (
{
closed = 1;
nodes = (
(99,100,o),
(80,81,o),
(80,50,cs),
(80,19,o),
(99,0,o),
(130,0,c),
(133,0,o),
(139,1,o),
(142,2,c),
(142,-23,o),
(122,-46,o),
(95,-53,c),
(105,-93,l),
(139,-86,o),
(160,-61,o),
(175,-29,cs),
(185,-7,o),
(188,24,o),
(183,50,cs),
(177,81,o),
(156,100,o),
(130,100,cs)
);
}
);
width = 225;
}
);
metricLeft = "=period";
metricRight = "=period/2";
unicode = 44;
}
{
glyphname = hyphen;
kernLeft = hyphen;
kernRight = hyphen;
lastChange = "2024-09-23 13:52:06 +0000";
layers = (
{
layerId = "30C2FD74-1A74-41AC-9C29-B288AE1DBDD7";
shapes = (
{
closed = 1;
nodes = (
(424,233,l),
(424,303,l),
(74,303,l),
(74,233,l)
);
}
);
width = 498;
},
{
layerId = "9398AC28-6BE1-4A79-9C94-3CBC2F226CE7";
shapes = (
{
closed = 1;
nodes = (
(482,208,l),
(482,338,l),
(92,338,l),
(92,208,l)
);
}
);
width = 574;
},
{
layerId = "C1DB0BE6-5704-4A8C-8C00-D80E72C16D98";
shapes = (
{
closed = 1;
nodes = (
(394,241,l),
(394,286,l),
(74,286,l),
(74,241,l)
);
}
);
width = 468;
}
);
unicode = 45;
}
{
color = 4;
glyphname = period;
kernLeft = period;
kernRight = period;
lastChange = "2025-03-30 00:31:59 +0000";
layers = (
{
layerId = "30C2FD74-1A74-41AC-9C29-B288AE1DBDD7";
shapes = (
{
closed = 1;
nodes = (
(178,-6,o),
(203,19,o),
(203,54,cs),
(203,89,o),
(178,114,o),
(143,114,cs),
(108,114,o),
(83,89,o),
(83,54,cs),
(83,19,o),
(108,-6,o),
(143,-6,cs)
);
}
);
width = 286;
},
{
layerId = "9398AC28-6BE1-4A79-9C94-3CBC2F226CE7";
shapes = (
{
closed = 1;
nodes = (
(233,-12,o),
(270,25,o),
(270,78,cs),
(270,131,o),
(233,168,o),
(180,168,cs),
(127,168,o),
(90,131,o),
(90,78,cs),
(90,25,o),
(127,-12,o),
(180,-12,cs)
);
}
);
width = 360;
},
{
layerId = "C1DB0BE6-5704-4A8C-8C00-D80E72C16D98";
shapes = (
{
closed = 1;
nodes = (
(159,0,o),
(180,21,o),
(180,50,cs),
(180,79,o),
(159,100,o),
(130,100,cs),
(101,100,o),
(80,79,o),
(80,50,cs),
(80,21,o),
(101,0,o),
(130,0,cs)
);
}
);
width = 260;
}
);
unicode = 46;
}
{
glyphname = slash;
lastChange = "2026-03-12 18:17:51 +0000";
layers = (
{
layerId = "30C2FD74-1A74-41AC-9C29-B288AE1DBDD7";
shapes = (
{
closed = 1;
nodes = (
(89,-120,l),
(427,704,l),
(340,704,l),
(2,-120,l)
);
}
);
width = 429;
},
{
layerId = "9398AC28-6BE1-4A79-9C94-3CBC2F226CE7";
shapes = (
{
closed = 1;
nodes = (
(182,-120,l),
(512,705,l),
(350,705,l),
(20,-120,l)
);
}
);
width = 532;
},
{
layerId = "C1DB0BE6-5704-4A8C-8C00-D80E72C16D98";
shapes = (
{
closed = 1;
nodes = (
(57,-120,l),
(395,705,l),
(340,705,l),
(2,-120,l)
);
}
);
width = 397;
}
);
unicode = 47;
}
{
color = 5;
glyphname = zero;
kernLeft = O;
kernRight = O;
lastChange = "2026-03-12 18:17:51 +0000";
layers = (
{
layerId = "30C2FD74-1A74-41AC-9C29-B288AE1DBDD7";
shapes = (
{
closed = 1;
nodes = (
(490,-12,o),
(588,127,o),
(588,363,cs),
(588,598,o),
(490,737,o),
(324,737,cs),
(158,737,o),
(60,598,o),
(60,363,cs),
(60,127,o),
(158,-12,o),
(325,-12,cs)
);
},
{
closed = 1;
nodes = (
(209,63,o),
(140,174,o),
(140,363,cs),
(140,551,o),
(208,662,o),
(324,662,cs),
(440,662,o),
(509,551,o),
(509,363,cs),
(509,174,o),
(441,63,o),
(325,63,cs)
);
}
);
width = 648;
},
{
layerId = "9398AC28-6BE1-4A79-9C94-3CBC2F226CE7";
shapes = (
{
closed = 1;
nodes = (
(506,-12,o),
(610,127,o),
(610,363,cs),
(610,598,o),
(506,737,o),
(329,737,cs),
(154,737,o),
(50,598,o),
(50,363,cs),
(50,127,o),
(154,-12,o),
(330,-12,cs)
);
},
{
closed = 1;
nodes = (
(258,128,o),
(215,215,o),
(215,363,cs),
(215,510,o),
(257,597,o),
(329,597,cs),
(402,597,o),
(445,510,o),
(445,363,cs),
(445,215,o),
(402,128,o),
(330,128,cs)
);
}
);
width = 660;
},
{
layerId = "C1DB0BE6-5704-4A8C-8C00-D80E72C16D98";
shapes = (
{
closed = 1;
nodes = (
(486,-10,o),
(580,127,o),
(580,363,cs),
(580,598,o),
(485,735,o),
(325,735,cs),
(165,735,o),
(70,598,o),
(70,363,cs),
(70,127,o),
(165,-10,o),
(326,-10,cs)
);
},
{
closed = 1;
nodes = (
(197,35,o),
(115,157,o),
(115,363,cs),
(115,568,o),
(196,690,o),
(325,690,cs),
(454,690,o),
(535,568,o),
(535,363,cs),
(535,157,o),
(454,35,o),
(326,35,cs)
);
}
);
width = 650;
}
);
metricLeft = "=O";
metricRight = "=O";
unicode = 48;
}
{
color = 5;
glyphname = one;
kernLeft = H;
kernRight = H;
lastChange = "2025-08-10 22:13:29 +0000";
layers = (
{
layerId = "30C2FD74-1A74-41AC-9C29-B288AE1DBDD7";
shapes = (
{
closed = 1;
nodes = (
(300,0,l),
(300,725,l),
(230,725,l),
(20,590,l),
(59,521,l),
(252,645,l),
(220,667,l),
(220,0,l)
);
}
);
width = 390;
},
{
layerId = "9398AC28-6BE1-4A79-9C94-3CBC2F226CE7";
shapes = (
{
closed = 1;
nodes = (
(371,0,l),
(371,725,l),
(236,725,l),
(10,580,l),
(83,444,l),
(292,581,l),
(216,644,l),
(216,0,l)
);
}
);
width = 451;
},
{
layerId = "C1DB0BE6-5704-4A8C-8C00-D80E72C16D98";
shapes = (
{
closed = 1;
nodes = (
(265,0,l),
(265,725,l),
(215,725,l),
(25,595,l),
(47,556,l),
(227,679,l),
(220,692,l),
(220,0,l)
);
}
);
width = 365;
}
);
metricLeft = "=V";
metricRight = "=I";
unicode = 49;
}
{
color = 5;
glyphname = two;
kernLeft = H;
kernRight = H;
lastChange = "2025-08-09 02:52:59 +0000";
layers = (
{
layerId = "30C2FD74-1A74-41AC-9C29-B288AE1DBDD7";
shapes = (
{
closed = 1;
nodes = (
(530,0,l),
(530,70,l),
(171,70,l),
(360,258,ls),
(475,372,o),
(510,444,o),
(510,528,cs),
(510,647,o),
(414,735,o),
(286,735,cs),
(158,735,o),
(66,658,o),
(40,534,c),
(111,516,l),
(133,612,o),
(200,665,o),
(287,665,cs),
(369,665,o),
(430,607,o),
(430,528,cs),
(430,444,o),
(384,383,o),
(254,259,cs),
(46,60,l),
(46,0,l)
);
}
);
width = 590;
},
{
layerId = "9398AC28-6BE1-4A79-9C94-3CBC2F226CE7";
shapes = (
{
closed = 1;
nodes = (
(549,0,l),
(549,130,l),
(261,130,l),
(432,286,ls),
(526,372,o),
(542,447,o),
(542,528,cs),
(542,647,o),
(436,735,o),
(294,735,cs),
(147,735,o),
(60,644,o),
(35,521,c),
(169,488,l),
(189,551,o),
(236,595,o),
(294,595,cs),
(347,595,o),
(387,559,o),
(387,509,cs),
(387,462,o),
(368,421,o),
(244,306,cs),
(44,120,l),
(44,0,l)
);
}
);
width = 599;
},
{
layerId = "C1DB0BE6-5704-4A8C-8C00-D80E72C16D98";
shapes = (
{
closed = 1;
nodes = (
(520,0,l),
(520,45,l),
(136,45,l),
(340,247,ls),
(452,358,o),
(507,441,o),
(507,538,cs),
(507,652,o),
(414,735,o),
(289,735,cs),
(166,735,o),
(77,662,o),
(50,536,c),
(95,525,l),
(120,632,o),
(191,690,o),
(289,690,cs),
(385,690,o),
(457,626,o),
(457,538,cs),
(457,436,o),
(398,369,o),
(266,240,cs),
(56,35,l),
(56,0,l)
);
}
);
width = 590;
}
);
metricLeft = "=a";
metricRight = "=I-30";
unicode = 50;
}
{
color = 5;
glyphname = three;
kernLeft = three;
kernRight = three;
lastChange = "2025-07-09 00:09:50 +0000";
layers = (
{
layerId = "30C2FD74-1A74-41AC-9C29-B288AE1DBDD7";
shapes = (
{
closed = 1;
nodes = (
(436,-10,o),
(540,80,o),
(540,201,cs),
(540,316,o),
(426,403,o),
(273,403,c),
(273,342,l),
(380,342,o),
(460,282,o),
(460,201,cs),
(460,120,o),
(391,60,o),
(298,60,cs),
(199,60,o),
(132,108,o),
(110,204,c),
(40,186,l),
(66,62,o),
(158,-10,o),
(298,-10,cs)
);
},
{
closed = 1;
nodes = (
(274,342,l),
(274,411,l),
(209,411,l),
(209,342,l)
);
},
{
closed = 1;
nodes = (
(420,350,o),
(520,431,o),
(520,549,cs),
(520,661,o),
(436,735,o),
(298,735,cs),
(170,735,o),
(78,673,o),
(52,549,c),
(122,531,l),
(144,627,o),
(211,665,o),
(298,665,cs),
(391,665,o),
(440,619,o),
(440,549,cs),
(440,466,o),
(374,411,o),
(273,411,c),
(273,350,l)
);
}
);
width = 600;
},
{
layerId = "9398AC28-6BE1-4A79-9C94-3CBC2F226CE7";
shapes = (
{
closed = 1;
nodes = (
(471,-10,o),
(573,67,o),
(573,214,cs),
(573,328,o),
(445,408,o),
(275,408,c),
(275,297,l),
(365,297,o),
(418,269,o),
(418,213,cs),
(418,166,o),
(367,130,o),
(299,130,cs),
(240,130,o),
(189,164,o),
(169,227,c),
(35,194,l),
(60,71,o),
(151,-10,o),
(299,-10,cs)
);
},
{
closed = 1;
nodes = (
(277,297,l),
(277,437,l),
(209,437,l),
(209,297,l)
);
},
{
closed = 1;
nodes = (
(434,327,o),
(553,416,o),
(553,528,cs),
(553,657,o),
(460,734,o),
(303,735,cs),
(155,735,o),
(78,654,o),
(53,531,c),
(187,498,l),
(207,561,o),
(244,595,o),
(303,595,cs),
(365,595,o),
(398,562,o),
(398,524,cs),
(398,472,o),
(352,437,o),
(275,437,c),
(275,327,l)
);
}
);
width = 623;
},
{
layerId = "C1DB0BE6-5704-4A8C-8C00-D80E72C16D98";
shapes = (
{
closed = 1;
nodes = (
(445,-10,o),
(536,69,o),
(536,203,cs),
(536,317,o),
(428,398,o),
(284,392,c),
(284,357,l),
(401,357,o),
(488,291,o),
(488,204,cs),
(488,98,o),
(414,35,o),
(290,35,cs),
(194,35,o),
(121,90,o),
(95,201,c),
(50,189,l),
(70,95,o),
(134,-10,o),
(291,-10,cs)
);
},
{
closed = 1;
nodes = (
(287,357,l),
(287,403,l),
(219,403,l),
(219,357,l)
);
},
{
closed = 1;
nodes = (
(422,362,o),
(516,434,o),
(516,550,cs),
(516,656,o),
(435,735,o),
(301,735,c),
(144,735,o),
(80,646,o),
(60,552,c),
(104,540,l),
(129,647,o),
(201,690,o),
(299,690,c),
(407,690,o),
(468,630,o),
(468,549,cs),
(468,460,o),
(395,403,o),
(284,403,c),
(284,368,l)
);
}
);
width = 606;
}
);
metricLeft = "=a";
metricRight = "=I-30";
unicode = 51;
}
{
color = 5;
glyphname = four;
kernLeft = four;
kernRight = four;
lastChange = "2025-08-10 22:14:39 +0000";
layers = (
{
layerId = "30C2FD74-1A74-41AC-9C29-B288AE1DBDD7";
shapes = (
{
closed = 1;
nodes = (
(439,0,l),
(439,171,l),
(559,171,l),
(559,241,l),
(439,241,l),
(439,725,l),
(359,725,l),
(10,241,l),
(10,171,l),
(359,171,l),
(359,0,l)
);
},
{
closed = 1;
nodes = (
(401,656,l),
(359,656,l),
(359,241,l),
(62,241,l),
(76,212,l)
);
}
);
width = 629;
},
{
layerId = "9398AC28-6BE1-4A79-9C94-3CBC2F226CE7";
shapes = (
{
closed = 1;
nodes = (
(500,0,l),
(500,160,l),
(610,160,l),
(610,290,l),
(500,290,l),
(500,725,l),
(335,725,l),
(15,290,l),
(15,160,l),
(345,160,l),
(345,0,l)
);
},
{
closed = 1;
nodes = (
(422,605,l),
(345,605,l),
(345,290,l),
(99,290,l),
(146,242,l)
);
}
);
width = 670;
},
{
layerId = "C1DB0BE6-5704-4A8C-8C00-D80E72C16D98";
shapes = (
{
closed = 1;
nodes = (
(431,0,l),
(431,176,l),
(561,176,l),
(561,221,l),
(431,221,l),
(431,725,l),
(386,725,l),
(15,216,l),
(15,176,l),
(381,176,l),
(381,0,l)
);
},
{
closed = 1;
nodes = (
(404,671,l),
(381,676,l),
(381,221,l),
(54,221,l),
(61,203,l)
);
}
);
width = 641;
}
);
metricLeft = "=f";
metricRight = "=I-20";
unicode = 52;
}
{
color = 5;
glyphname = five;
kernLeft = three;
kernRight = three;
lastChange = "2026-03-04 18:15:19 +0000";
layers = (
{
layerId = "30C2FD74-1A74-41AC-9C29-B288AE1DBDD7";
shapes = (
{
closed = 1;
nodes = (
(436,-12,o),
(543,93,o),
(543,232,cs),
(543,373,o),
(438,478,o),
(298,478,cs),
(233,478,o),
(157,444,o),
(120,398,c),
(156,384,l),
(181,682,l),
(145,650,l),
(503,650,l),
(503,725,l),
(116,725,l),
(80,341,l),
(143,329,l),
(169,373,o),
(234,406,o),
(294,406,cs),
(391,406,o),
(463,331,o),
(463,232,cs),
(463,133,o),
(390,58,o),
(293,58,cs),
(220,58,o),
(143,110,o),
(113,197,c),
(40,168,l),
(82,55,o),
(176,-12,o),
(293,-12,cs)
);
}
);
width = 603;
},
{
layerId = "9398AC28-6BE1-4A79-9C94-3CBC2F226CE7";
shapes = (
{
closed = 1;
nodes = (
(449,-12,o),
(565,98,o),
(565,245,cs),
(565,386,o),
(461,491,o),
(323,491,cs),
(257,491,o),
(188,457,o),
(160,412,c),
(202,375,l),
(213,665,l),
(155,575,l),
(518,575,l),
(518,725,l),
(92,725,l),
(62,328,l),
(189,298,l),
(204,334,o),
(249,361,o),
(294,361,cs),
(360,361,o),
(410,311,o),
(410,245,cs),
(410,178,o),
(360,128,o),
(294,128,cs),
(241,128,o),
(185,174,o),
(169,227,c),
(35,174,l),
(57,68,o),
(168,-12,o),
(294,-12,cs)
);
}
);
width = 615;
},
{
guides = (
{
pos = (288,471);
}
);
layerId = "C1DB0BE6-5704-4A8C-8C00-D80E72C16D98";
shapes = (
{
closed = 1;
nodes = (
(436,-12,o),
(540,93,o),
(540,232,cs),
(540,369,o),
(438,471,o),
(301,471,cs),
(231,471,o),
(155,438,o),
(125,394,c),
(136,388,l),
(159,689,l),
(135,680,l),
(499,680,l),
(499,725,l),
(119,725,l),
(85,346,l),
(128,336,l),
(159,386,o),
(232,424,o),
(299,424,cs),
(408,424,o),
(490,342,o),
(490,232,cs),
(490,118,o),
(408,33,o),
(298,33,cs),
(200,33,o),
(125,90,o),
(95,186,c),
(50,169,l),
(82,55,o),
(174,-12,o),
(298,-12,cs)
);
}
);
width = 610;
}
);
metricLeft = "=a";
metricRight = "=I-30";
unicode = 53;
}
{
color = 5;
glyphname = six;
kernLeft = O;
kernRight = O;
lastChange = "2025-08-10 22:16:41 +0000";
layers = (
{
layerId = "30C2FD74-1A74-41AC-9C29-B288AE1DBDD7";
shapes = (
{
closed = 1;
nodes = (
(466,-10,o),
(569,104,o),
(569,237,cs),
(569,375,o),
(464,478,o),
(325,478,cs),
(248,478,o),
(169,432,o),
(134,375,c),
(154,555,o),
(209,662,o),
(335,662,cs),
(404,662,o),
(460,619,o),
(486,546,c),
(559,575,l),
(522,676,o),
(439,735,o),
(335,735,cs),
(162,735,o),
(60,595,o),
(60,304,cs),
(60,275,o),
(63,246,o),
(67,221,cs),
(91,71,o),
(193,-10,o),
(325,-10,cs)
);
},
{
closed = 1;
nodes = (
(224,65,o),
(148,138,o),
(147,235,cs),
(146,331,o),
(222,403,o),
(325,403,cs),
(419,403,o),
(490,332,o),
(490,237,cs),
(490,139,o),
(419,65,o),
(325,65,cs)
);
}
);
width = 629;
},
{
layerId = "9398AC28-6BE1-4A79-9C94-3CBC2F226CE7";
shapes = (
{
closed = 1;
nodes = (
(486,-10,o),
(595,94,o),
(595,233,cs),
(595,376,o),
(499,473,o),
(361,473,cs),
(305,473,o),
(228,448,o),
(205,401,c),
(215,525,o),
(257,598,o),
(346,598,cs),
(393,598,o),
(435,568,o),
(461,516,c),
(595,569,l),
(562,673,o),
(469,735,o),
(346,735,cs),
(160,735,o),
(50,580,o),
(50,324,cs),
(50,296,o),
(53,256,o),
(57,231,cs),
(79,93,o),
(194,-10,o),
(331,-10,cs)
);
},
{
closed = 1;
nodes = (
(262,125,o),
(210,170,o),
(209,231,cs),
(208,293,o),
(260,340,o),
(331,340,cs),
(401,340,o),
(453,294,o),
(453,233,cs),
(453,171,o),
(401,125,o),
(331,125,cs)
);
}
);
width = 645;
},
{
guides = (
{
pos = (298,471);
}
);
layerId = "C1DB0BE6-5704-4A8C-8C00-D80E72C16D98";
shapes = (
{
closed = 1;
nodes = (
(448,-10,o),
(551,94,o),
(551,233,cs),
(551,369,o),
(448,471,o),
(310,471,cs),
(239,471,o),
(159,434,o),
(121,371,c),
(133,589,o),
(201,690,o),
(338,690,cs),
(409,690,o),
(462,640,o),
(496,557,c),
(541,574,l),
(501,675,o),
(432,735,o),
(338,735,cs),
(154,735,o),
(70,600,o),
(70,304,cs),
(70,276,o),
(72,241,o),
(74,221,cs),
(89,89,o),
(190,-10,o),
(310,-10,cs)
);
},
{
closed = 1;
nodes = (
(215,35,o),
(120,128,o),
(119,229,cs),
(118,339,o),
(203,426,o),
(310,426,cs),
(419,426,o),
(505,343,o),
(505,233,cs),
(505,120,o),
(419,35,o),
(310,35,cs)
);
}
);
width = 621;
}
);
metricLeft = "=O";
metricRight = "=O";
unicode = 54;
}
{
color = 5;
glyphname = seven;
lastChange = "2025-08-12 00:03:06 +0000";
layers = (
{
layerId = "30C2FD74-1A74-41AC-9C29-B288AE1DBDD7";
shapes = (
{
closed = 1;
nodes = (
(220,0,l),
(535,650,l),
(535,725,l),
(40,725,l),
(40,650,l),
(447,650,l),
(131,0,l)
);
}
);
width = 575;
},
{
layerId = "9398AC28-6BE1-4A79-9C94-3CBC2F226CE7";
shapes = (
{
closed = 1;
nodes = (
(310,0,l),
(582,575,l),
(582,725,l),
(35,725,l),
(35,575,l),
(399,575,l),
(118,0,l)
);
}
);
width = 617;
},
{
layerId = "C1DB0BE6-5704-4A8C-8C00-D80E72C16D98";
shapes = (
{
closed = 1;
nodes = (
(208,0,l),
(540,680,l),
(540,725,l),
(50,725,l),
(50,680,l),
(482,680,l),
(153,0,l)
);
}
);
width = 585;
}
);
metricLeft = "=a";
metricRight = "=a/2";
unicode = 55;
}
{
color = 5;
glyphname = eight;
kernLeft = O;
kernRight = O;
lastChange = "2025-08-10 22:15:12 +0000";
layers = (
{
layerId = "30C2FD74-1A74-41AC-9C29-B288AE1DBDD7";
shapes = (
{
closed = 1;
nodes = (
(467,-10,o),
(560,70,o),
(560,205,cs),
(560,296,o),
(504,369,o),
(410,400,c),
(411,379,l),
(486,414,o),
(530,476,o),
(530,545,cs),
(530,664,o),
(448,735,o),
(310,735,cs),
(171,735,o),
(89,664,o),
(89,545,cs),
(89,474,o),
(134,412,o),
(210,379,c),
(210,400,l),
(116,369,o),
(60,296,o),
(60,205,cs),
(60,70,o),
(153,-10,o),
(310,-10,cs)
);
},
{
closed = 1;
nodes = (
(213,60,o),
(140,122,o),
(140,205,cs),
(140,289,o),
(213,352,o),
(310,352,cs),
(407,352,o),
(480,289,o),
(480,205,cs),
(480,122,o),
(407,60,o),
(310,60,cs)
);
},
{
closed = 1;
nodes = (
(229,422,o),
(169,475,o),
(169,545,cs),
(169,614,o),
(229,665,o),
(310,665,cs),
(390,665,o),
(450,614,o),
(450,545,cs),
(450,475,o),
(390,422,o),
(310,422,cs)
);
}
);
width = 620;
},
{
layerId = "9398AC28-6BE1-4A79-9C94-3CBC2F226CE7";
shapes = (
{
closed = 1;
nodes = (
(489,-10,o),
(590,71,o),
(590,209,cs),
(590,294,o),
(533,366,o),
(437,402,c),
(446,362,l),
(525,387,o),
(572,451,o),
(572,534,cs),
(572,660,o),
(478,735,o),
(319,735,cs),
(160,735,o),
(66,660,o),
(66,534,cs),
(66,451,o),
(113,387,o),
(192,363,c),
(202,401,l),
(106,369,o),
(50,298,o),
(50,210,cs),
(50,72,o),
(150,-10,o),
(319,-10,cs)
);
},
{
closed = 1;
nodes = (
(254,120,o),
(205,161,o),
(205,215,cs),
(205,270,o),
(254,311,o),
(319,311,cs),
(385,311,o),
(435,270,o),
(435,215,cs),
(435,161,o),
(385,120,o),
(319,120,cs)
);
},
{
closed = 1;
nodes = (
(263,441,o),
(221,476,o),
(221,523,cs),
(221,570,o),
(263,605,o),
(319,605,cs),
(375,605,o),
(417,570,o),
(417,523,cs),
(417,476,o),
(375,441,o),
(319,441,cs)
);
}
);
width = 640;
},
{
layerId = "C1DB0BE6-5704-4A8C-8C00-D80E72C16D98";
shapes = (
{
closed = 1;
nodes = (
(461,-10,o),
(550,69,o),
(550,204,cs),
(550,300,o),
(493,374,o),
(397,404,c),
(395,389,l),
(470,425,o),
(515,485,o),
(515,551,cs),
(515,667,o),
(439,735,o),
(310,735,cs),
(181,735,o),
(104,667,o),
(104,551,cs),
(104,482,o),
(150,422,o),
(227,389,c),
(223,404,l),
(127,373,o),
(70,299,o),
(70,204,cs),
(70,69,o),
(159,-10,o),
(310,-10,cs)
);
},
{
closed = 1;
nodes = (
(191,35,o),
(115,97,o),
(115,202,cs),
(115,310,o),
(191,374,o),
(310,374,cs),
(429,374,o),
(505,310,o),
(505,202,cs),
(505,97,o),
(429,35,o),
(310,35,cs)
);
},
{
closed = 1;
nodes = (
(212,416,o),
(149,468,o),
(149,555,cs),
(149,640,o),
(212,690,o),
(310,690,cs),
(407,690,o),
(470,640,o),
(470,555,cs),
(470,468,o),
(407,416,o),
(310,416,cs)
);
}
);
width = 620;
}
);
metricLeft = "=O";
metricRight = "=O";
unicode = 56;
}
{
glyphname = less;
lastChange = "2021-11-10 09:11:38 +0000";
layers = (
{
layerId = "30C2FD74-1A74-41AC-9C29-B288AE1DBDD7";
shapes = (
{
closed = 1;
nodes = (
(534,120,l),
(178,283,l),
(178,253,l),
(534,416,l),
(534,497,l),
(124,302,l),
(124,234,l),
(534,39,l)
);
}
);
width = 606;
},
{
layerId = "9398AC28-6BE1-4A79-9C94-3CBC2F226CE7";
shapes = (
{
closed = 1;
nodes = (
(564,155,l),
(214,299,l),
(214,247,l),
(564,392,l),
(564,543,l),
(89,347,l),
(89,199,l),
(564,4,l)
);
}
);
width = 678;
},
{
layerId = "C1DB0BE6-5704-4A8C-8C00-D80E72C16D98";
shapes = (
{
closed = 1;
nodes = (
(533,100,l),
(192,274,l),
(192,252,l),
(533,426,l),
(533,476,l),
(148,281,l),
(148,245,l),
(533,50,l)
);
}
);
width = 596;
}
);
metricLeft = "=|greater";
metricWidth = "=greater";
unicode = 60;
}
{
glyphname = equal;
lastChange = "2021-11-10 09:11:37 +0000";
layers = (
{
layerId = "30C2FD74-1A74-41AC-9C29-B288AE1DBDD7";
shapes = (
{
closed = 1;
nodes = (
(528,331,l),
(528,406,l),
(78,406,l),
(78,331,l)
);
},
{
closed = 1;
nodes = (
(528,96,l),
(528,171,l),
(78,171,l),
(78,96,l)
);
}
);
width = 606;
},
{
layerId = "9398AC28-6BE1-4A79-9C94-3CBC2F226CE7";
shapes = (
{
closed = 1;
nodes = (
(564,291,l),
(564,416,l),
(114,416,l),
(114,291,l)
);
},
{
closed = 1;
nodes = (
(564,46,l),
(564,171,l),
(114,171,l),
(114,46,l)
);
}
);
width = 678;
},
{
layerId = "C1DB0BE6-5704-4A8C-8C00-D80E72C16D98";
shapes = (
{
closed = 1;
nodes = (
(523,346,l),
(523,391,l),
(73,391,l),
(73,346,l)
);
},
{
closed = 1;
nodes = (
(523,111,l),
(523,156,l),
(73,156,l),
(73,111,l)
);
}
);
width = 596;
}
);
metricWidth = "=plus";
unicode = 61;
}
{
glyphname = greater;
lastChange = "2021-11-10 09:11:38 +0000";
layers = (
{
layerId = "30C2FD74-1A74-41AC-9C29-B288AE1DBDD7";
shapes = (
{
closed = 1;
nodes = (
(482,234,l),
(482,302,l),
(72,497,l),
(72,416,l),
(428,253,l),
(428,283,l),
(72,120,l),
(72,39,l)
);
}
);
width = 606;
},
{
layerId = "9398AC28-6BE1-4A79-9C94-3CBC2F226CE7";
shapes = (
{
closed = 1;
nodes = (
(589,199,l),
(589,347,l),
(114,543,l),
(114,392,l),
(464,247,l),
(464,299,l),
(114,155,l),
(114,4,l)
);
}
);
width = 678;
},
{
layerId = "C1DB0BE6-5704-4A8C-8C00-D80E72C16D98";
shapes = (
{
closed = 1;
nodes = (
(448,245,l),
(448,281,l),
(63,476,l),
(63,426,l),
(404,252,l),
(404,274,l),
(63,100,l),
(63,50,l)
);
}
);
width = 596;
}
);
metricWidth = "=plus";
unicode = 62;
}
{
color = 4;
glyphname = question;
lastChange = "2025-05-27 02:53:57 +0000";
layers = (
{
layerId = "30C2FD74-1A74-41AC-9C29-B288AE1DBDD7";
shapes = (
{
closed = 1;
nodes = (
(247,214,l),
(247,224,ls),
(247,286,o),
(286,331,o),
(330,375,cs),
(388,433,o),
(455,488,o),
(455,578,cs),
(455,673,o),
(373,757,o),
(253,757,cs),
(139,757,o),
(53,684,o),
(35,574,c),
(106,559,l),
(121,636,o),
(178,687,o),
(253,687,cs),
(331,687,o),
(375,634,o),
(375,578,cs),
(375,512,o),
(327,468,o),
(277,420,cs),
(223,369,o),
(167,314,o),
(167,224,cs),
(167,214,l)
);
},
{
pos = (67,0);
ref = period;
}
);
width = 499;
},
{
layerId = "9398AC28-6BE1-4A79-9C94-3CBC2F226CE7";
shapes = (
{
closed = 1;
nodes = (
(355,230,l),
(355,243,ls),
(355,300,o),
(403,340,o),
(444,379,cs),
(491,425,o),
(541,472,o),
(541,548,cs),
(541,653,o),
(458,757,o),
(302,757,cs),
(173,757,o),
(68,660,o),
(61,539,c),
(200,504,l),
(208,565,o),
(248,617,o),
(298,617,cs),
(355,617,o),
(386,586,o),
(386,544,cs),
(386,502,o),
(349,476,o),
(311,437,cs),
(269,394,o),
(215,341,o),
(215,253,cs),
(215,230,l)
);
},
{
pos = (114,-1);
ref = period;
}
);
width = 611;
},
{
layerId = "C1DB0BE6-5704-4A8C-8C00-D80E72C16D98";
shapes = (
{
closed = 1;
nodes = (
(205,208,l),
(205,212,ls),
(205,278,o),
(248,326,o),
(295,374,cs),
(357,436,o),
(430,494,o),
(430,590,cs),
(430,681,o),
(349,757,o),
(244,757,cs),
(138,757,o),
(54,688,o),
(35,576,c),
(79,567,l),
(99,659,o),
(160,713,o),
(244,713,cs),
(330,713,o),
(380,653,o),
(380,592,cs),
(380,517,o),
(329,465,o),
(274,413,cs),
(215,359,o),
(160,304,o),
(160,212,cs),
(160,208,l)
);
},
{
pos = (52,0);
ref = period;
}
);
width = 474;
}
);
unicode = 63;
}
{
color = 4;
glyphname = at;
kernLeft = O;
kernRight = O;
lastChange = "2025-07-16 03:00:30 +0000";
layers = (
{
layerId = "30C2FD74-1A74-41AC-9C29-B288AE1DBDD7";
shapes = (
{
closed = 1;
nodes = (
(545,-117,o),
(621,-98,o),
(673,-69,c),
(641,-9,l),
(598,-32,o),
(535,-47,o),
(478,-47,cs),
(267,-47,o),
(135,86,o),
(135,299,cs),
(135,508,o),
(267,640,o),
(476,640,cs),
(684,640,o),
(815,509,o),
(815,300,cs),
(815,214,o),
(781,160,o),
(726,160,cs),
(691,160,o),
(665,190,o),
(665,231,cs),
(665,507,l),
(600,507,l),
(600,429,l),
(607,441,l),
(578,484,o),
(512,517,o),
(453,517,cs),
(336,517,o),
(258,425,o),
(258,303,cs),
(258,181,o),
(336,90,o),
(453,90,cs),
(514,90,o),
(580,126,o),
(608,173,c),
(592,186,l),
(604,131,o),
(661,90,o),
(725,90,cs),
(826,90,o),
(890,172,o),
(890,302,cs),
(890,553,o),
(730,710,o),
(476,710,cs),
(220,710,o),
(60,551,o),
(60,298,cs),
(60,43,o),
(220,-117,o),
(476,-117,cs)
);
},
{
closed = 1;
nodes = (
(380,160,o),
(333,221,o),
(333,303,cs),
(333,384,o),
(380,445,o),
(456,445,cs),
(533,445,o),
(590,385,o),
(590,304,cs),
(590,222,o),
(533,160,o),
(456,160,cs)
);
}
);
width = 950;
},
{
layerId = "9398AC28-6BE1-4A79-9C94-3CBC2F226CE7";
shapes = (
{
closed = 1;
nodes = (
(568,-132,o),
(653,-108,o),
(713,-70,c),
(662,27,l),
(617,-3,o),
(551,-22,o),
(490,-22,cs),
(293,-22,o),
(170,103,o),
(170,301,cs),
(170,498,o),
(294,622,o),
(491,622,cs),
(675,622,o),
(790,500,o),
(790,306,cs),
(790,238,o),
(768,195,o),
(733,195,cs),
(703,195,o),
(684,224,o),
(684,269,cs),
(684,515,l),
(584,515,l),
(584,418,l),
(595,460,l),
(582,497,o),
(524,525,o),
(459,525,cs),
(336,525,o),
(263,430,o),
(263,303,cs),
(263,181,o),
(333,90,o),
(454,90,cs),
(525,90,o),
(589,123,o),
(602,167,c),
(576,230,l),
(576,150,o),
(642,90,o),
(729,90,cs),
(840,90,o),
(910,171,o),
(910,300,cs),
(910,565,o),
(748,732,o),
(489,732,cs),
(219,732,o),
(50,565,o),
(50,300,cs),
(50,35,o),
(220,-132,o),
(491,-132,cs)
);
},
{
closed = 1;
nodes = (
(404,195,o),
(376,243,o),
(376,308,cs),
(376,373,o),
(404,421,o),
(469,419,cs),
(531,417,o),
(577,369,o),
(577,307,cs),
(577,243,o),
(530,195,o),
(468,195,cs)
);
}
);
width = 960;
},
{
layerId = "C1DB0BE6-5704-4A8C-8C00-D80E72C16D98";
shapes = (
{
closed = 1;
nodes = (
(544,-115,o),
(618,-97,o),
(668,-68,c),
(647,-27,l),
(605,-53,o),
(541,-67,o),
(481,-67,cs),
(258,-67,o),
(121,73,o),
(121,300,cs),
(121,519,o),
(256,654,o),
(476,654,cs),
(695,654,o),
(832,519,o),
(832,300,cs),
(832,199,o),
(794,135,o),
(734,135,cs),
(689,135,o),
(655,171,o),
(655,219,cs),
(655,502,l),
(607,502,l),
(607,401,l),
(622,414,l),
(598,470,o),
(530,512,o),
(464,512,cs),
(349,512,o),
(270,422,o),
(270,301,cs),
(270,180,o),
(349,90,o),
(464,90,cs),
(529,90,o),
(597,136,o),
(622,197,c),
(607,195,l),
(615,135,o),
(669,90,o),
(732,90,cs),
(823,90,o),
(880,171,o),
(880,299,cs),
(880,547,o),
(724,702,o),
(476,702,cs),
(227,702,o),
(70,545,o),
(70,295,cs),
(70,43,o),
(227,-115,o),
(476,-115,cs)
);
},
{
closed = 1;
nodes = (
(376,138,o),
(321,206,o),
(321,301,cs),
(321,396,o),
(376,464,o),
(463,464,cs),
(545,464,o),
(607,396,o),
(607,301,cs),
(607,206,o),
(545,138,o),
(462,138,cs)
);
}
);
width = 950;
}
);
metricLeft = "=O";
metricRight = "=O";
unicode = 64;
}
{
color = 5;
glyphname = A;
kernLeft = A;
kernRight = A;
lastChange = "2025-08-12 00:08:04 +0000";
layers = (
{
anchors = (
{
name = bottom;
pos = (348,0);
},
{
name = ogonek;
pos = (644,2);
},
{
name = top;
pos = (348,725);
}
);
layerId = "30C2FD74-1A74-41AC-9C29-B288AE1DBDD7";
shapes = (
{
closed = 1;
nodes = (
(540,221,l),
(540,296,l),
(152,296,l),
(152,221,l)
);
},
{
pos = (0,725);
ref = V;
scale = (1,-1);
}
);
width = 696;
},
{
.lastUpdate = 795058919.827;
anchors = (
{
name = bottom;
pos = (373,0);
},
{
name = ogonek;
pos = (659,0);
},
{
name = top;
pos = (373,725);
}
);
layerId = "9398AC28-6BE1-4A79-9C94-3CBC2F226CE7";
shapes = (
{
closed = 1;
nodes = (
(570,182,l),
(570,317,l),
(182,317,l),
(182,182,l)
);
},
{
pos = (0,725);
ref = V;
scale = (1,-1);
}
);
width = 745;
},
{
.lastUpdate = 795060288.291;
anchors = (
{
name = bottom;
pos = (332,0);
},
{
name = ogonek;
pos = (625,0);
},
{
name = top;
pos = (332,725);
}
);
layerId = "C1DB0BE6-5704-4A8C-8C00-D80E72C16D98";
shapes = (
{
closed = 1;
nodes = (
(510,237,l),
(510,282,l),
(152,282,l),
(152,237,l)
);
},
{
pos = (0,725);
ref = V;
scale = (1,-1);
}
);
width = 664;
}
);
metricLeft = "=V";
metricRight = "=V";
unicode = 65;
}
{
color = 5;
glyphname = B;
kernLeft = I;
kernRight = B;
lastChange = "2026-03-05 19:48:18 +0000";
layers = (
{
anchors = (
{
name = bottom;
pos = (329,0);
},
{
name = top;
pos = (333,725);
}
);
layerId = "30C2FD74-1A74-41AC-9C29-B288AE1DBDD7";
shapes = (
{
closed = 1;
nodes = (
(334,0,l),
(489,0,o),
(580,73,o),
(580,197,cs),
(580,308,o),
(494,392,o),
(379,392,c),
(380,368,l),
(478,368,o),
(550,460,o),
(550,538,cs),
(550,661,o),
(476,725,o),
(333,725,c),
(90,725,l),
(90,0,l)
);
},
{
closed = 1;
nodes = (
(170,338,l),
(324,338,ls),
(425,338,o),
(500,277,o),
(500,196,cs),
(500,120,o),
(438,75,o),
(334,75,c),
(170,75,l)
);
},
{
closed = 1;
nodes = (
(170,650,l),
(327,650,l),
(421,650,o),
(470,611,o),
(470,535,cs),
(470,453,o),
(401,410,o),
(307,410,cs),
(170,410,l)
);
}
);
width = 630;
},
{
anchors = (
{
name = bottom;
pos = (339,0);
},
{
name = top;
pos = (342,725);
}
);
layerId = "9398AC28-6BE1-4A79-9C94-3CBC2F226CE7";
shapes = (
{
closed = 1;
nodes = (
(365,0,ls),
(538,0,o),
(641,81,o),
(641,217,cs),
(641,294,o),
(575,368,o),
(464,415,c),
(464,339,l),
(556,383,o),
(610,447,o),
(610,512,cs),
(610,646,o),
(515,725,o),
(355,725,cs),
(80,725,l),
(80,0,l)
);
},
{
closed = 1;
nodes = (
(235,310,l),
(363,310,ls),
(428,310,o),
(476,270,o),
(476,217,cs),
(476,170,o),
(436,135,o),
(383,135,cs),
(235,135,l)
);
},
{
closed = 1;
nodes = (
(235,595,l),
(366,595,ls),
(411,595,o),
(445,565,o),
(445,525,cs),
(445,479,o),
(403,445,o),
(346,445,cs),
(235,445,l)
);
}
);
width = 681;
},
{
anchors = (
{
name = bottom;
pos = (319,0);
},
{
name = top;
pos = (323,725);
}
);
layerId = "C1DB0BE6-5704-4A8C-8C00-D80E72C16D98";
shapes = (
{
closed = 1;
nodes = (
(331,0,l),
(481,0,o),
(570,80,o),
(570,198,cs),
(570,303,o),
(490,381,o),
(383,381,c),
(383,372,l),
(473,372,o),
(540,437,o),
(540,537,cs),
(540,661,o),
(468,725,o),
(331,725,c),
(100,725,l),
(100,0,l)
);
},
{
closed = 1;
nodes = (
(145,350,l),
(312,350,l),
(431,350,o),
(525,284,o),
(525,197,cs),
(525,108,o),
(446,45,o),
(322,45,c),
(145,45,l)
);
},
{
closed = 1;
nodes = (
(145,680,l),
(325,680,l),
(433,680,o),
(495,631,o),
(495,538,cs),
(495,444,o),
(413,395,o),
(305,395,c),
(145,395,l)
);
}
);
width = 630;
}
);
metricLeft = "=I";
metricRight = "=O-10";
unicode = 66;
}
{
color = 5;
glyphname = C;
kernLeft = O;
kernRight = C;
lastChange = "2025-08-10 21:36:34 +0000";
layers = (
{
anchors = (
{
name = bottom;
pos = (392,0);
},
{
name = top;
pos = (392,745);
}
);
layerId = "30C2FD74-1A74-41AC-9C29-B288AE1DBDD7";
shapes = (
{
closed = 1;
nodes = (
(517,-12,o),
(624,57,o),
(670,173,c),
(595,206,l),
(557,119,o),
(478,68,o),
(382,68,cs),
(247,68,o),
(145,194,o),
(145,362,cs),
(145,531,o),
(247,657,o),
(382,657,cs),
(478,657,o),
(557,605,o),
(595,518,c),
(670,551,l),
(624,668,o),
(517,737,o),
(382,737,cs),
(198,737,o),
(60,576,o),
(60,362,cs),
(60,148,o),
(198,-12,o),
(382,-12,cs)
);
}
);
width = 710;
},
{
anchors = (
{
name = bottom;
pos = (401,-1);
},
{
name = top;
pos = (401,725);
}
);
layerId = "9398AC28-6BE1-4A79-9C94-3CBC2F226CE7";
shapes = (
{
closed = 1;
nodes = (
(546,-13,o),
(664,73,o),
(705,187,c),
(568,253,l),
(542,181,o),
(482,137,o),
(401,137,cs),
(295,137,o),
(215,238,o),
(215,373,cs),
(215,495,o),
(295,586,o),
(401,586,cs),
(482,586,o),
(542,543,o),
(568,472,c),
(705,538,l),
(665,651,o),
(546,736,o),
(401,736,cs),
(200,736,o),
(50,580,o),
(50,373,cs),
(50,152,o),
(200,-13,o),
(401,-13,cs)
);
}
);
width = 735;
},
{
anchors = (
{
name = bottom;
pos = (403,0);
},
{
name = top;
pos = (403,725);
}
);
layerId = "C1DB0BE6-5704-4A8C-8C00-D80E72C16D98";
shapes = (
{
closed = 1;
nodes = (
(525,-10,o),
(626,55,o),
(675,169,c),
(635,187,l),
(589,90,o),
(498,36,o),
(403,36,cs),
(241,36,o),
(120,176,o),
(120,363,cs),
(120,549,o),
(241,689,o),
(403,689,cs),
(499,689,o),
(590,635,o),
(635,538,c),
(675,556,l),
(628,670,o),
(526,735,o),
(403,735,cs),
(213,735,o),
(70,577,o),
(70,363,cs),
(70,149,o),
(213,-10,o),
(403,-10,cs)
);
}
);
width = 725;
}
);
metricLeft = "=O";
metricRight = "=O-20";
unicode = 67;
}
{
color = 5;
glyphname = D;
kernLeft = I;
kernRight = O;
lastChange = "2025-08-10 21:37:59 +0000";
layers = (
{
anchors = (
{
name = bottom;
pos = (364,0);
},
{
name = center;
pos = (160,363);
},
{
name = top;
pos = (364,725);
}
);
layerId = "30C2FD74-1A74-41AC-9C29-B288AE1DBDD7";
shapes = (
{
closed = 1;
nodes = (
(295,0,ls),
(504,0,o),
(660,156,o),
(660,363,cs),
(660,570,o),
(504,725,o),
(295,725,cs),
(90,725,l),
(90,0,l)
);
},
{
closed = 1;
nodes = (
(170,650,l),
(295,650,ls),
(456,650,o),
(576,527,o),
(576,363,cs),
(576,198,o),
(456,75,o),
(295,75,cs),
(170,75,l)
);
}
);
width = 720;
},
{
anchors = (
{
name = bottom;
pos = (379,0);
},
{
name = center;
pos = (198,363);
},
{
name = top;
pos = (367,725);
}
);
layerId = "9398AC28-6BE1-4A79-9C94-3CBC2F226CE7";
shapes = (
{
closed = 1;
nodes = (
(323,0,ls),
(544,0,o),
(690,156,o),
(690,363,cs),
(690,570,o),
(544,725,o),
(323,725,cs),
(80,725,l),
(80,0,l)
);
},
{
closed = 1;
nodes = (
(235,590,l),
(327,590,ls),
(457,590,o),
(535,493,o),
(535,363,cs),
(535,233,o),
(457,135,o),
(327,135,cs),
(235,135,l)
);
}
);
width = 740;
},
{
anchors = (
{
name = bottom;
pos = (364,0);
},
{
name = center;
pos = (155,363);
},
{
name = top;
pos = (364,725);
}
);
layerId = "C1DB0BE6-5704-4A8C-8C00-D80E72C16D98";
shapes = (
{
closed = 1;
nodes = (
(308,0,l),
(509,0,o),
(660,156,o),
(660,363,c),
(660,570,o),
(509,725,o),
(308,725,c),
(100,725,l),
(100,0,l)
);
},
{
closed = 1;
nodes = (
(145,680,l),
(306,680,l),
(480,680,o),
(615,544,o),
(615,363,c),
(615,181,o),
(480,45,o),
(306,45,c),
(145,45,l)
);
}
);
width = 730;
}
);
metricLeft = "=I";
metricRight = "=O";
unicode = 68;
}
{
color = 5;
glyphname = E;
kernLeft = H;
kernRight = E;
lastChange = "2025-08-10 21:38:20 +0000";
layers = (
{
anchors = (
{
name = bottom;
pos = (330,0);
},
{
name = ogonek;
pos = (470,0);
},
{
name = top;
pos = (330,745);
}
);
layerId = "30C2FD74-1A74-41AC-9C29-B288AE1DBDD7";
shapes = (
{
closed = 1;
nodes = (
(550,0,l),
(550,75,l),
(161,75,l),
(161,0,l)
);
},
{
ref = F;
}
);
width = 590;
},
{
anchors = (
{
name = bottom;
pos = (331,0);
},
{
name = ogonek;
pos = (481,0);
},
{
name = top;
pos = (331,725);
}
);
layerId = "9398AC28-6BE1-4A79-9C94-3CBC2F226CE7";
shapes = (
{
closed = 1;
nodes = (
(570,0,l),
(570,135,l),
(230,135,l),
(230,0,l)
);
},
{
ref = F;
}
);
width = 600;
},
{
.lastUpdate = 795057762.946;
anchors = (
{
name = bottom;
pos = (330,0);
},
{
name = ogonek;
pos = (460,0);
},
{
name = top;
pos = (330,745);
}
);
layerId = "C1DB0BE6-5704-4A8C-8C00-D80E72C16D98";
shapes = (
{
closed = 1;
nodes = (
(550,0,l),
(550,45,l),
(144,45,l),
(144,0,l)
);
},
{
ref = F;
}
);
width = 600;
}
);
metricLeft = "=I";
metricRight = "=F+10";
unicode = 69;
}
{
color = 5;
glyphname = F;
kernLeft = H;
kernRight = F;
lastChange = "2025-08-10 21:38:17 +0000";
layers = (
{
anchors = (
{
name = bottom;
pos = (293,0);
},
{
name = top;
pos = (293,725);
}
);
layerId = "30C2FD74-1A74-41AC-9C29-B288AE1DBDD7";
shapes = (
{
closed = 1;
nodes = (
(170,0,l),
(170,325,l),
(520,325,l),
(520,400,l),
(170,400,l),
(170,650,l),
(550,650,l),
(550,725,l),
(90,725,l),
(90,0,l)
);
}
);
width = 580;
},
{
anchors = (
{
name = bottom;
pos = (308,0);
},
{
name = top;
pos = (308,725);
}
);
layerId = "9398AC28-6BE1-4A79-9C94-3CBC2F226CE7";
shapes = (
{
closed = 1;
nodes = (
(235,0,l),
(235,295,l),
(520,295,l),
(520,430,l),
(235,430,l),
(235,590,l),
(570,590,l),
(570,725,l),
(80,725,l),
(80,0,l)
);
}
);
width = 590;
},
{
anchors = (
{
name = bottom;
pos = (298,0);
},
{
name = top;
pos = (298,725);
}
);
layerId = "C1DB0BE6-5704-4A8C-8C00-D80E72C16D98";
shapes = (
{
closed = 1;
nodes = (
(145,0,l),
(145,340,l),
(510,340,l),
(510,385,l),
(145,385,l),
(145,680,l),
(550,680,l),
(550,725,l),
(100,725,l),
(100,0,l)
);
}
);
width = 590;
}
);
metricLeft = "=I";
unicode = 70;
}
{
color = 5;
glyphname = G;
kernLeft = O;
kernRight = G;
lastChange = "2025-08-10 21:40:31 +0000";
layers = (
{
anchors = (
{
name = bottom;
pos = (385,0);
},
{
name = top;
pos = (395,725);
}
);
layerId = "30C2FD74-1A74-41AC-9C29-B288AE1DBDD7";
shapes = (
{
closed = 1;
nodes = (
(720,0,l),
(720,385,l),
(640,385,l),
(640,0,l)
);
},
{
closed = 1;
nodes = (
(560,-10,o),
(648,112,o),
(670,323,c),
(670,385,l),
(402,385,l),
(402,315,l),
(656,315,l),
(620,351,l),
(620,310,l),
(598,155,o),
(516,66,o),
(382,66,cs),
(249,66,o),
(142,195,o),
(142,362,cs),
(142,530,o),
(258,659,o),
(402,659,cs),
(505,659,o),
(579,606,o),
(612,518,c),
(687,551,l),
(643,674,o),
(539,737,o),
(402,737,c),
(207,737,o),
(60,576,o),
(60,362,cs),
(60,149,o),
(198,-10,o),
(382,-10,c)
);
}
);
width = 810;
},
{
anchors = (
{
name = bottom;
pos = (388,0);
},
{
name = top;
pos = (398,725);
}
);
layerId = "9398AC28-6BE1-4A79-9C94-3CBC2F226CE7";
shapes = (
{
closed = 1;
nodes = (
(720,0,l),
(720,405,l),
(585,405,l),
(585,0,l)
);
},
{
closed = 1;
nodes = (
(556,-10,o),
(689,147,o),
(700,356,c),
(700,405,l),
(396,405,l),
(396,275,l),
(656,275,l),
(585,335,l),
(585,273,l),
(577,191,o),
(498,130,o),
(400,130,cs),
(289,130,o),
(205,230,o),
(205,363,cs),
(205,497,o),
(287,597,o),
(396,597,cs),
(479,597,o),
(533,551,o),
(568,472,c),
(705,538,l),
(652,671,o),
(551,737,o),
(396,737,cs),
(198,737,o),
(50,577,o),
(50,363,cs),
(50,150,o),
(196,-10,o),
(390,-10,cs)
);
}
);
width = 800;
},
{
anchors = (
{
name = bottom;
pos = (381,0);
},
{
name = top;
pos = (401,725);
}
);
layerId = "C1DB0BE6-5704-4A8C-8C00-D80E72C16D98";
shapes = (
{
closed = 1;
nodes = (
(720,0,l),
(720,368,l),
(670,368,l),
(670,0,l)
);
},
{
closed = 1;
nodes = (
(562,-10,o),
(669,111,o),
(691,319,c),
(690,368,l),
(407,368,l),
(407,323,l),
(672,323,l),
(650,349,l),
(650,319,l),
(625,141,o),
(533,35,o),
(386,35,c),
(234,35,o),
(120,176,o),
(120,362,cs),
(120,549,o),
(233,689,o),
(397,689,c),
(508,689,o),
(603,635,o),
(644,538,c),
(684,556,l),
(640,673,o),
(535,735,o),
(397,735,c),
(204,735,o),
(70,576,o),
(70,362,cs),
(70,148,o),
(205,-10,o),
(386,-10,c)
);
}
);
width = 820;
}
);
metricLeft = "=O";
metricRight = "=I";
unicode = 71;
}
{
color = 5;
glyphname = H;
kernLeft = H;
kernRight = H;
lastChange = "2025-08-10 21:41:08 +0000";
layers = (
{
anchors = (
{
name = bottom;
pos = (360,0);
},
{
name = center;
pos = (360,362);
},
{
name = top;
pos = (360,725);
},
{
name = topleft;
pos = (25,725);
}
);
layerId = "30C2FD74-1A74-41AC-9C29-B288AE1DBDD7";
shapes = (
{
closed = 1;
nodes = (
(170,0,l),
(170,325,l),
(550,325,l),
(550,0,l),
(630,0,l),
(630,725,l),
(550,725,l),
(550,400,l),
(170,400,l),
(170,725,l),
(90,725,l),
(90,0,l)
);
}
);
width = 720;
},
{
anchors = (
{
name = bottom;
pos = (370,0);
},
{
name = center;
pos = (370,362);
},
{
name = top;
pos = (370,725);
},
{
name = topleft;
pos = (25,725);
}
);
layerId = "9398AC28-6BE1-4A79-9C94-3CBC2F226CE7";
shapes = (
{
closed = 1;
nodes = (
(235,0,l),
(235,295,l),
(505,295,l),
(505,0,l),
(660,0,l),
(660,725,l),
(505,725,l),
(505,430,l),
(235,430,l),
(235,725,l),
(80,725,l),
(80,0,l)
);
}
);
width = 740;
},
{
anchors = (
{
name = bottom;
pos = (350,0);
},
{
name = center;
pos = (350,363);
},
{
name = top;
pos = (350,725);
},
{
name = topleft;
pos = (10,725);
}
);
layerId = "C1DB0BE6-5704-4A8C-8C00-D80E72C16D98";
shapes = (
{
closed = 1;
nodes = (
(145,0,l),
(145,340,l),
(555,340,l),
(555,0,l),
(600,0,l),
(600,725,l),
(550,725,l),
(555,385,l),
(145,385,l),
(145,725,l),
(100,725,l),
(100,0,l)
);
}
);
width = 700;
}
);
metricLeft = "=I";
metricRight = "=I";
unicode = 72;
}
{
color = 5;
glyphname = I;
kernLeft = H;
kernRight = H;
lastChange = "2023-12-10 20:18:50 +0000";
layers = (
{
anchors = (
{
name = bottom;
pos = (130,0);
},
{
name = ogonek;
pos = (140,0);
},
{
name = top;
pos = (130,725);
}
);
layerId = "30C2FD74-1A74-41AC-9C29-B288AE1DBDD7";
shapes = (
{
closed = 1;
nodes = (
(170,0,l),
(170,725,l),
(90,725,l),
(90,0,l)
);
}
);
width = 260;
},
{
anchors = (
{
name = bottom;
pos = (158,0);
},
{
name = ogonek;
pos = (185,0);
},
{
name = top;
pos = (158,725);
}
);
layerId = "9398AC28-6BE1-4A79-9C94-3CBC2F226CE7";
shapes = (
{
closed = 1;
nodes = (
(235,0,l),
(235,725,l),
(80,725,l),
(80,0,l)
);
}
);
width = 315;
},
{
anchors = (
{
name = bottom;
pos = (125,0);
},
{
name = ogonek;
pos = (130,0);
},
{
name = top;
pos = (125,725);
}
);
layerId = "C1DB0BE6-5704-4A8C-8C00-D80E72C16D98";
shapes = (
{
closed = 1;
nodes = (
(150,0,l),
(150,725,l),
(100,725,l),
(100,0,l)
);
}
);
width = 250;
}
);
unicode = 73;
}
{
color = 5;
glyphname = J;
kernLeft = J;
kernRight = J;
lastChange = "2025-08-10 21:43:14 +0000";
layers = (
{
anchors = (
{
name = bottom;
pos = (334,0);
},
{
name = top;
pos = (386,725);
}
);
layerId = "30C2FD74-1A74-41AC-9C29-B288AE1DBDD7";
shapes = (
{
closed = 1;
nodes = (
(377,-10,o),
(426,108,o),
(426,205,cs),
(426,725,l),
(346,725,l),
(346,205,ls),
(346,145,o),
(319,70,o),
(223,70,cs),
(172,70,o),
(135,101,o),
(105,168,c),
(30,135,l),
(69,36,o),
(130,-10,o),
(223,-10,cs)
);
}
);
width = 496;
},
{
anchors = (
{
name = bottom;
pos = (394,0);
},
{
name = top;
pos = (441,725);
}
);
layerId = "9398AC28-6BE1-4A79-9C94-3CBC2F226CE7";
shapes = (
{
closed = 1;
nodes = (
(455,-10,o),
(518,120,o),
(518,240,cs),
(518,725,l),
(363,725,l),
(363,233,ls),
(363,185,o),
(343,130,o),
(269,130,cs),
(222,130,o),
(185,163,o),
(162,226,c),
(25,160,l),
(63,48,o),
(147,-10,o),
(269,-10,cs)
);
}
);
width = 578;
},
{
anchors = (
{
name = bottom;
pos = (294,0);
},
{
name = top;
pos = (353,725);
}
);
layerId = "C1DB0BE6-5704-4A8C-8C00-D80E72C16D98";
shapes = (
{
closed = 1;
nodes = (
(304,-10,o),
(374,72,o),
(374,191,cs),
(374,725,l),
(329,725,l),
(329,194,ls),
(329,99,o),
(276,35,o),
(195,35,cs),
(148,35,o),
(102,67,o),
(75,125,c),
(35,107,l),
(68,30,o),
(123,-10,o),
(195,-10,cs)
);
}
);
width = 454;
}
);
metricLeft = "=O/2";
metricRight = "=O+10";
unicode = 74;
}
{
color = 5;
glyphname = K;
kernLeft = H;
kernRight = K;
lastChange = "2025-08-10 21:44:41 +0000";
layers = (
{
anchors = (
{
name = bottom;
pos = (329,0);
},
{
name = top;
pos = (329,725);
}
);
layerId = "30C2FD74-1A74-41AC-9C29-B288AE1DBDD7";
shapes = (
{
closed = 1;
nodes = (
(170,0,l),
(170,232,l),
(273,343,l),
(534,0,l),
(635,0,l),
(309,436,l),
(305,379,l),
(627,725,l),
(523,725,l),
(139,310,l),
(170,310,l),
(170,725,l),
(90,725,l),
(90,0,l)
);
}
);
width = 665;
},
{
anchors = (
{
name = bottom;
pos = (358,0);
},
{
name = top;
pos = (358,725);
}
);
layerId = "9398AC28-6BE1-4A79-9C94-3CBC2F226CE7";
shapes = (
{
closed = 1;
nodes = (
(235,0,l),
(235,204,l),
(314,290,l),
(528,0,l),
(720,0,l),
(383,461,l),
(374,358,l),
(714,725,l),
(520,725,l),
(172,352,l),
(235,352,l),
(235,725,l),
(80,725,l),
(80,0,l)
);
}
);
width = 740;
},
{
anchors = (
{
name = bottom;
pos = (322,0);
},
{
name = top;
pos = (322,725);
}
);
layerId = "C1DB0BE6-5704-4A8C-8C00-D80E72C16D98";
shapes = (
{
closed = 1;
nodes = (
(145,0,l),
(145,241,l),
(259,364,l),
(553,0,l),
(610,0,l),
(278,418,l),
(278,386,l),
(592,725,l),
(530,725,l),
(121,285,l),
(145,285,l),
(145,725,l),
(100,725,l),
(100,0,l)
);
}
);
width = 650;
}
);
metricLeft = "=I";
metricRight = "=F";
unicode = 75;
}
{
color = 5;
glyphname = L;
kernLeft = H;
kernRight = L;
lastChange = "2025-08-10 21:44:57 +0000";
layers = (
{
anchors = (
{
name = bottom;
pos = (295,0);
},
{
name = center;
pos = (130,363);
},
{
name = dot;
pos = (335,362);
},
{
name = top;
pos = (130,725);
},
{
name = topright;
pos = (335,536);
}
);
layerId = "30C2FD74-1A74-41AC-9C29-B288AE1DBDD7";
shapes = (
{
closed = 1;
nodes = (
(500,0,l),
(500,75,l),
(170,75,l),
(170,725,l),
(90,725,l),
(90,0,l)
);
}
);
width = 530;
},
{
anchors = (
{
name = bottom;
pos = (315,0);
},
{
name = center;
pos = (158,363);
},
{
name = dot;
pos = (393,362);
},
{
name = top;
pos = (158,725);
},
{
name = topright;
pos = (393,546);
}
);
layerId = "9398AC28-6BE1-4A79-9C94-3CBC2F226CE7";
shapes = (
{
closed = 1;
nodes = (
(550,0,l),
(550,135,l),
(235,135,l),
(235,725,l),
(80,725,l),
(80,0,l)
);
}
);
width = 570;
},
{
anchors = (
{
name = bottom;
pos = (295,0);
},
{
name = center;
pos = (125,363);
},
{
name = dot;
pos = (320,362);
},
{
name = top;
pos = (125,725);
},
{
name = topright;
pos = (320,526);
}
);
layerId = "C1DB0BE6-5704-4A8C-8C00-D80E72C16D98";
shapes = (
{
closed = 1;
nodes = (
(490,0,l),
(490,45,l),
(145,45,l),
(145,725,l),
(100,725,l),
(100,0,l)
);
}
);
width = 530;
}
);
metricLeft = "=I";
metricRight = "=F";
unicode = 76;
}
{
color = 5;
glyphname = M;
kernLeft = H;
kernRight = H;
lastChange = "2025-08-10 21:45:59 +0000";
layers = (
{
anchors = (
{
name = bottom;
pos = (470,0);
},
{
name = top;
pos = (470,725);
}
);
layerId = "30C2FD74-1A74-41AC-9C29-B288AE1DBDD7";
shapes = (
{
closed = 1;
nodes = (
(170,0,l),
(170,611,l),
(155,601,l),
(443,0,l),
(497,0,l),
(786,601,l),
(770,611,l),
(770,0,l),
(850,0,l),
(850,725,l),
(760,725,l),
(451,85,l),
(490,85,l),
(180,725,l),
(90,725,l),
(90,0,l)
);
}
);
width = 940;
},
{
anchors = (
{
name = bottom;
pos = (480,0);
},
{
name = top;
pos = (480,725);
}
);
layerId = "9398AC28-6BE1-4A79-9C94-3CBC2F226CE7";
shapes = (
{
closed = 1;
nodes = (
(235,0,l),
(235,549,l),
(188,535,l),
(425,0,l),
(535,0,l),
(782,535,l),
(725,549,l),
(725,0,l),
(880,0,l),
(880,725,l),
(705,725,l),
(444,120,l),
(524,120,l),
(255,725,l),
(80,725,l),
(80,0,l)
);
}
);
width = 960;
},
{
anchors = (
{
name = bottom;
pos = (460,0);
},
{
name = top;
pos = (460,725);
}
);
layerId = "C1DB0BE6-5704-4A8C-8C00-D80E72C16D98";
shapes = (
{
closed = 1;
nodes = (
(145,0,l),
(145,636,l),
(140,628,l),
(437,0,l),
(483,0,l),
(778,628,l),
(775,636,l),
(775,0,l),
(820,0,l),
(820,725,l),
(772,725,l),
(453,49,l),
(464,49,l),
(148,725,l),
(100,725,l),
(100,0,l)
);
}
);
width = 920;
}
);
metricLeft = "=I";
metricRight = "=I";
unicode = 77;
}
{
color = 5;
glyphname = N;
kernLeft = H;
kernRight = H;
lastChange = "2025-08-10 21:46:42 +0000";
layers = (
{
anchors = (
{
name = bottom;
pos = (380,0);
},
{
name = top;
pos = (380,725);
}
);
layerId = "30C2FD74-1A74-41AC-9C29-B288AE1DBDD7";
shapes = (
{
closed = 1;
nodes = (
(170,0,l),
(170,605,l),
(153,605,l),
(590,0,l),
(670,0,l),
(670,725,l),
(590,725,l),
(590,124,l),
(607,124,l),
(170,725,l),
(90,725,l),
(90,0,l)
);
}
);
width = 760;
},
{
anchors = (
{
name = bottom;
pos = (405,0);
},
{
name = top;
pos = (405,725);
}
);
layerId = "9398AC28-6BE1-4A79-9C94-3CBC2F226CE7";
shapes = (
{
closed = 1;
nodes = (
(235,0,l),
(235,516,l),
(197,501,l),
(590,0,l),
(730,0,l),
(730,725,l),
(575,725,l),
(575,213,l),
(619,228,l),
(219,725,l),
(80,725,l),
(80,0,l)
);
}
);
width = 810;
},
{
anchors = (
{
name = bottom;
pos = (375,0);
},
{
name = top;
pos = (375,725);
}
);
layerId = "C1DB0BE6-5704-4A8C-8C00-D80E72C16D98";
shapes = (
{
closed = 1;
nodes = (
(145,0,l),
(145,646,l),
(139,646,l),
(608,0,l),
(650,0,l),
(650,725,l),
(605,725,l),
(605,83,l),
(608,83,l),
(142,725,l),
(100,725,l),
(100,0,l)
);
}
);
width = 750;
}
);
metricLeft = "=I";
metricRight = "=I";
unicode = 78;
}
{
color = 5;
glyphname = O;
kernLeft = O;
kernRight = O;
lastChange = "2025-08-10 21:47:23 +0000";
layers = (
{
anchors = (
{
name = bottom;
pos = (403,0);
},
{
name = center;
pos = (403,363);
},
{
name = ogonek;
pos = (453,0);
},
{
name = top;
pos = (403,725);
},
{
name = topright;
pos = (541,707);
}
);
layerId = "30C2FD74-1A74-41AC-9C29-B288AE1DBDD7";
shapes = (
{
closed = 1;
nodes = (
(599,-12,o),
(746,149,o),
(746,363,cs),
(746,577,o),
(599,737,o),
(403,737,cs),
(207,737,o),
(60,577,o),
(60,363,cs),
(60,149,o),
(207,-12,o),
(403,-12,cs)
);
},
{
closed = 1;
nodes = (
(253,68,o),
(140,194,o),
(140,363,cs),
(140,531,o),
(253,657,o),
(403,657,cs),
(553,657,o),
(666,531,o),
(666,363,cs),
(666,194,o),
(553,68,o),
(403,68,cs)
);
}
);
width = 806;
},
{
anchors = (
{
name = bottom;
pos = (405,0);
},
{
name = center;
pos = (405,363);
},
{
name = ogonek;
pos = (455,0);
},
{
name = top;
pos = (405,725);
},
{
name = topright;
pos = (545,707);
}
);
layerId = "9398AC28-6BE1-4A79-9C94-3CBC2F226CE7";
shapes = (
{
closed = 1;
nodes = (
(608,-12,o),
(760,149,o),
(760,363,cs),
(760,577,o),
(608,737,o),
(405,737,cs),
(202,737,o),
(50,577,o),
(50,363,cs),
(50,149,o),
(202,-12,o),
(405,-12,cs)
);
},
{
closed = 1;
nodes = (
(296,138,o),
(215,234,o),
(215,363,cs),
(215,491,o),
(296,587,o),
(405,587,cs),
(514,587,o),
(595,491,o),
(595,363,cs),
(595,234,o),
(514,138,o),
(405,138,cs)
);
}
);
width = 810;
},
{
anchors = (
{
name = bottom;
pos = (405,0);
},
{
name = center;
pos = (405,363);
},
{
name = ogonek;
pos = (455,0);
},
{
name = top;
pos = (405,725);
},
{
name = topright;
pos = (540,707);
}
);
layerId = "C1DB0BE6-5704-4A8C-8C00-D80E72C16D98";
shapes = (
{
closed = 1;
nodes = (
(596,-10,o),
(740,150,o),
(740,363,cs),
(740,576,o),
(596,735,o),
(405,735,cs),
(214,735,o),
(70,576,o),
(70,363,cs),
(70,150,o),
(214,-10,o),
(405,-10,cs)
);
},
{
closed = 1;
nodes = (
(242,35,o),
(115,178,o),
(115,363,cs),
(115,547,o),
(242,690,o),
(405,690,cs),
(568,690,o),
(695,547,o),
(695,363,cs),
(695,178,o),
(568,35,o),
(405,35,cs)
);
}
);
width = 810;
}
);
metricRight = "=|";
unicode = 79;
}
{
color = 5;
glyphname = P;
kernLeft = H;
kernRight = P;
lastChange = "2025-08-10 21:48:04 +0000";
layers = (
{
anchors = (
{
name = bottom;
pos = (325,0);
},
{
name = top;
pos = (324,725);
}
);
layerId = "30C2FD74-1A74-41AC-9C29-B288AE1DBDD7";
shapes = (
{
closed = 1;
nodes = (
(170,0,l),
(170,270,l),
(346,270,ls),
(498,270,o),
(600,361,o),
(600,497,cs),
(600,634,o),
(498,725,o),
(346,725,cs),
(90,725,l),
(90,0,l)
);
},
{
closed = 1;
nodes = (
(170,650,l),
(350,650,ls),
(452,650,o),
(520,589,o),
(520,498,cs),
(520,406,o),
(452,345,o),
(350,345,cs),
(170,345,l)
);
}
);
width = 650;
},
{
anchors = (
{
name = bottom;
pos = (370,0);
},
{
name = top;
pos = (339,725);
}
);
layerId = "9398AC28-6BE1-4A79-9C94-3CBC2F226CE7";
shapes = (
{
closed = 1;
nodes = (
(235,0,l),
(235,250,l),
(366,250,ls),
(530,250,o),
(640,345,o),
(640,487,cs),
(640,630,o),
(530,725,o),
(366,725,cs),
(80,725,l),
(80,0,l)
);
},
{
closed = 1;
nodes = (
(235,590,l),
(367,590,ls),
(438,590,o),
(485,549,o),
(485,487,cs),
(485,426,o),
(438,385,o),
(367,385,cs),
(235,385,l)
);
}
);
width = 680;
},
{
anchors = (
{
name = bottom;
pos = (320,0);
},
{
name = top;
pos = (319,725);
}
);
layerId = "C1DB0BE6-5704-4A8C-8C00-D80E72C16D98";
shapes = (
{
closed = 1;
nodes = (
(145,0,l),
(145,280,l),
(339,280,ls),
(494,280,o),
(580,362,o),
(580,502,cs),
(580,642,o),
(494,725,o),
(339,725,cs),
(100,725,l),
(100,0,l)
);
},
{
closed = 1;
nodes = (
(145,680,l),
(339,680,ls),
(462,680,o),
(535,614,o),
(535,503,cs),
(535,391,o),
(462,325,o),
(339,325,cs),
(145,325,l)
);
}
);
width = 640;
}
);
metricLeft = "=I";
metricRight = "=O-10";
unicode = 80;
}
{
color = 5;
glyphname = Q;
kernLeft = O;
kernRight = O;
lastChange = "2025-08-10 21:48:27 +0000";
layers = (
{
anchors = (
{
name = bottom;
pos = (403,0);
},
{
name = top;
pos = (403,725);
}
);
layerId = "30C2FD74-1A74-41AC-9C29-B288AE1DBDD7";
shapes = (
{
closed = 1;
nodes = (
(696,-47,l),
(444,324,l),
(381,281,l),
(633,-90,l)
);
},
{
ref = O;
}
);
width = 806;
},
{
anchors = (
{
name = bottom;
pos = (405,0);
},
{
name = top;
pos = (405,725);
}
);
layerId = "9398AC28-6BE1-4A79-9C94-3CBC2F226CE7";
shapes = (
{
closed = 1;
nodes = (
(740,-35,l),
(478,346,l),
(362,267,l),
(621,-114,l)
);
},
{
ref = O;
}
);
width = 810;
},
{
anchors = (
{
name = bottom;
pos = (405,0);
},
{
name = top;
pos = (405,725);
}
);
layerId = "C1DB0BE6-5704-4A8C-8C00-D80E72C16D98";
shapes = (
{
closed = 1;
nodes = (
(677,-38,l),
(436,317,l),
(396,290,l),
(637,-66,l)
);
},
{
ref = O;
}
);
width = 810;
}
);
metricLeft = "=O";
metricRight = "=O";
unicode = 81;
}
{
color = 5;
glyphname = S;
kernLeft = S;
kernRight = S;
lastChange = "2025-08-13 13:28:25 +0000";
layers = (
{
anchors = (
{
name = bottom;
pos = (332,0);
},
{
name = top;
pos = (316,725);
}
);
layerId = "30C2FD74-1A74-41AC-9C29-B288AE1DBDD7";
shapes = (
{
closed = 1;
nodes = (
(470,-11,o),
(573,75,o),
(573,191,cs),
(573,290,o),
(512,354,o),
(395,389,cs),
(277,424,ls),
(197,448,o),
(169,485,o),
(169,546,cs),
(169,617,o),
(231,659,o),
(313,659,cs),
(393,659,o),
(465,620,o),
(498,543,c),
(564,575,l),
(529,676,o),
(430,735,o),
(312,735,cs),
(185,735,o),
(89,655,o),
(89,540,cs),
(89,448,o),
(138,386,o),
(243,355,cs),
(377,315,ls),
(451,293,o),
(493,257,o),
(493,184,cs),
(493,113,o),
(424,65,o),
(332,65,cs),
(245,65,o),
(166,123,o),
(126,224,c),
(60,192,l),
(100,67,o),
(205,-11,o),
(332,-11,cs)
);
}
);
width = 633;
},
{
anchors = (
{
name = bottom;
pos = (350,0);
},
{
name = top;
pos = (331,745);
}
);
layerId = "9398AC28-6BE1-4A79-9C94-3CBC2F226CE7";
shapes = (
{
closed = 1;
nodes = (
(502,-11,o),
(616,84,o),
(616,211,cs),
(616,311,o),
(557,380,o),
(437,419,cs),
(294,465,ls),
(251,479,o),
(239,504,o),
(239,531,cs),
(239,566,o),
(277,590,o),
(331,590,cs),
(404,590,o),
(449,555,o),
(478,494,c),
(606,556,l),
(569,668,o),
(471,735,o),
(341,735,cs),
(194,735,o),
(83,642,o),
(83,515,cs),
(83,415,o),
(142,360,o),
(252,324,cs),
(398,276,ls),
(439,262,o),
(461,233,o),
(461,197,cs),
(461,160,o),
(424,134,o),
(370,134,cs),
(289,134,o),
(218,187,o),
(182,260,c),
(50,197,l),
(86,81,o),
(219,-11,o),
(350,-11,cs)
);
}
);
width = 666;
},
{
anchors = (
{
name = bottom;
pos = (334,0);
},
{
name = top;
pos = (322,725);
}
);
layerId = "C1DB0BE6-5704-4A8C-8C00-D80E72C16D98";
shapes = (
{
closed = 1;
nodes = (
(466,-10,o),
(565,72,o),
(565,183,cs),
(565,276,o),
(505,342,o),
(408,371,cs),
(282,409,ls),
(198,434,o),
(145,488,o),
(145,552,cs),
(145,629,o),
(220,690,o),
(313,690,cs),
(400,690,o),
(479,653,o),
(516,572,c),
(556,590,l),
(510,696,o),
(416,735,o),
(312,735,cs),
(191,735,o),
(100,664,o),
(100,553,cs),
(100,463,o),
(158,396,o),
(260,367,cs),
(399,327,ls),
(461,309,o),
(520,265,o),
(520,184,cs),
(520,101,o),
(437,35,o),
(334,35,cs),
(251,35,o),
(165,91,o),
(112,187,c),
(70,168,l),
(126,57,o),
(223,-10,o),
(335,-10,cs)
);
}
);
width = 635;
}
);
metricLeft = "=O";
metricRight = "=O";
unicode = 83;
}
{
color = 5;
glyphname = T;
kernLeft = T;
kernRight = T;
lastChange = "2025-08-10 22:09:29 +0000";
layers = (
{
anchors = (
{
name = bottom;
pos = (290,0);
},
{
name = center;
pos = (290,363);
},
{
name = top;
pos = (290,725);
}
);
layerId = "30C2FD74-1A74-41AC-9C29-B288AE1DBDD7";
shapes = (
{
closed = 1;
nodes = (
(331,0,l),
(331,650,l),
(565,650,l),
(565,725,l),
(15,725,l),
(15,650,l),
(251,650,l),
(251,0,l)
);
}
);
width = 580;
},
{
anchors = (
{
name = bottom;
pos = (305,0);
},
{
name = center;
pos = (305,362);
},
{
name = top;
pos = (305,725);
}
);
layerId = "9398AC28-6BE1-4A79-9C94-3CBC2F226CE7";
shapes = (
{
closed = 1;
nodes = (
(384,0,l),
(384,590,l),
(600,590,l),
(600,725,l),
(10,725,l),
(10,590,l),
(229,590,l),
(229,0,l)
);
}
);
width = 610;
},
{
anchors = (
{
name = bottom;
pos = (305,0);
},
{
name = center;
pos = (305,363);
},
{
name = top;
pos = (305,725);
}
);
layerId = "C1DB0BE6-5704-4A8C-8C00-D80E72C16D98";
shapes = (
{
closed = 1;
nodes = (
(328,0,l),
(328,680,l),
(590,680,l),
(590,725,l),
(20,725,l),
(20,680,l),
(283,680,l),
(283,0,l)
);
}
);
width = 610;
}
);
metricLeft = "=|F/2";
metricRight = "=F/2";
unicode = 84;
}
{
color = 5;
glyphname = U;
kernLeft = U;
kernRight = U;
lastChange = "2025-08-10 22:09:58 +0000";
layers = (
{
anchors = (
{
name = bottom;
pos = (355,0);
},
{
name = ogonek;
pos = (375,0);
},
{
name = top;
pos = (355,725);
},
{
name = topright;
pos = (590,725);
}
);
layerId = "30C2FD74-1A74-41AC-9C29-B288AE1DBDD7";
shapes = (
{
closed = 1;
nodes = (
(520,-12,o),
(630,98,o),
(630,263,cs),
(630,725,l),
(550,725,l),
(550,263,ls),
(550,137,o),
(478,63,o),
(355,63,cs),
(232,63,o),
(160,137,o),
(160,263,cs),
(160,725,l),
(80,725,l),
(80,263,ls),
(80,98,o),
(190,-12,o),
(355,-12,cs)
);
}
);
width = 710;
},
{
anchors = (
{
name = bottom;
pos = (375,0);
},
{
name = ogonek;
pos = (395,0);
},
{
name = top;
pos = (375,725);
},
{
name = topright;
pos = (580,725);
}
);
layerId = "9398AC28-6BE1-4A79-9C94-3CBC2F226CE7";
shapes = (
{
closed = 1;
nodes = (
(558,-12,o),
(680,110,o),
(680,293,cs),
(680,725,l),
(525,725,l),
(525,303,ls),
(525,193,o),
(469,133,o),
(375,133,cs),
(281,133,o),
(225,193,o),
(225,303,cs),
(225,725,l),
(70,725,l),
(70,293,ls),
(70,110,o),
(192,-12,o),
(375,-12,cs)
);
}
);
width = 750;
},
{
anchors = (
{
name = bottom;
pos = (355,0);
},
{
name = ogonek;
pos = (375,0);
},
{
name = top;
pos = (355,725);
},
{
name = topright;
pos = (595,725);
}
);
layerId = "C1DB0BE6-5704-4A8C-8C00-D80E72C16D98";
shapes = (
{
closed = 1;
nodes = (
(525,-12,o),
(620,89,o),
(620,261,cs),
(620,725,l),
(575,725,l),
(575,257,ls),
(575,123,o),
(487,33,o),
(355,33,cs),
(223,33,o),
(135,123,o),
(135,257,cs),
(135,725,l),
(90,725,l),
(90,261,ls),
(90,89,o),
(185,-12,o),
(355,-12,cs)
);
}
);
width = 710;
}
);
metricLeft = "=O+20";
metricRight = "=O+20";
unicode = 85;
}
{
color = 5;
glyphname = V;
kernLeft = V;
kernRight = V;
lastChange = "2025-08-10 21:34:23 +0000";
layers = (
{
anchors = (
{
name = bottom;
pos = (348,0);
},
{
name = top;
pos = (348,725);
}
);
layerId = "30C2FD74-1A74-41AC-9C29-B288AE1DBDD7";
shapes = (
{
closed = 1;
nodes = (
(393,0,l),
(676,725,l),
(589,725,l),
(340,71,l),
(356,71,l),
(106,725,l),
(20,725,l),
(303,0,l)
);
}
);
width = 696;
},
{
anchors = (
{
name = bottom;
pos = (373,0);
},
{
name = top;
pos = (373,725);
}
);
layerId = "9398AC28-6BE1-4A79-9C94-3CBC2F226CE7";
shapes = (
{
closed = 1;
nodes = (
(470,0,l),
(735,725,l),
(568,725,l),
(366,147,l),
(380,147,l),
(178,725,l),
(10,725,l),
(275,0,l)
);
}
);
width = 745;
},
{
anchors = (
{
name = bottom;
pos = (332,0);
},
{
name = top;
pos = (332,725);
}
);
layerId = "C1DB0BE6-5704-4A8C-8C00-D80E72C16D98";
shapes = (
{
closed = 1;
nodes = (
(358,0,l),
(639,725,l),
(587,725,l),
(327,46,l),
(338,46,l),
(77,725,l),
(25,725,l),
(306,0,l)
);
}
);
width = 664;
}
);
metricRight = "=|V";
unicode = 86;
}
{
color = 5;
glyphname = W;
kernLeft = W;
kernRight = W;
lastChange = "2025-08-10 22:10:49 +0000";
layers = (
{
anchors = (
{
name = bottom;
pos = (496,0);
},
{
name = top;
pos = (496,725);
}
);
layerId = "30C2FD74-1A74-41AC-9C29-B288AE1DBDD7";
shapes = (
{
closed = 1;
nodes = (
(314,0,l),
(505,650,l),
(487,650,l),
(678,0,l),
(763,0,l),
(977,725,l),
(896,725,l),
(710,78,l),
(728,78,l),
(539,725,l),
(454,725,l),
(264,78,l),
(281,78,l),
(96,725,l),
(15,725,l),
(229,0,l)
);
}
);
width = 992;
},
{
anchors = (
{
name = bottom;
pos = (510,0);
},
{
name = top;
pos = (510,725);
}
);
layerId = "9398AC28-6BE1-4A79-9C94-3CBC2F226CE7";
shapes = (
{
closed = 1;
nodes = (
(380,0,l),
(536,580,l),
(484,580,l),
(640,0,l),
(820,0,l),
(1015,725,l),
(847,725,l),
(700,121,l),
(745,121,l),
(590,725,l),
(430,725,l),
(275,121,l),
(320,121,l),
(173,725,l),
(5,725,l),
(200,0,l)
);
}
);
width = 1020;
},
{
anchors = (
{
name = bottom;
pos = (487,0);
},
{
name = top;
pos = (487,725);
}
);
layerId = "C1DB0BE6-5704-4A8C-8C00-D80E72C16D98";
shapes = (
{
closed = 1;
nodes = (
(281,0,l),
(496,686,l),
(478,686,l),
(693,0,l),
(731,0,l),
(954,725,l),
(905,725,l),
(699,44,l),
(725,45,l),
(511,725,l),
(463,725,l),
(249,45,l),
(275,44,l),
(69,725,l),
(20,725,l),
(243,0,l)
);
}
);
width = 974;
}
);
metricLeft = "=V-5";
metricRight = "=V-5";
unicode = 87;
}
{
color = 5;
glyphname = X;
kernLeft = W;
kernRight = W;
lastChange = "2025-08-10 22:12:10 +0000";
layers = (
{
anchors = (
{
name = bottom;
pos = (318,0);
},
{
name = top;
pos = (318,725);
}
);
layerId = "30C2FD74-1A74-41AC-9C29-B288AE1DBDD7";
shapes = (
{
closed = 1;
nodes = (
(118,0,l),
(341,314,l),
(294,314,l),
(515,0,l),
(615,0,l),
(362,362,l),
(606,725,l),
(506,725,l),
(294,409,l),
(341,409,l),
(128,725,l),
(28,725,l),
(272,362,l),
(20,0,l)
);
}
);
width = 635;
},
{
anchors = (
{
name = bottom;
pos = (350,0);
},
{
name = top;
pos = (350,725);
}
);
layerId = "9398AC28-6BE1-4A79-9C94-3CBC2F226CE7";
shapes = (
{
closed = 1;
nodes = (
(198,0,l),
(404,288,l),
(297,289,l),
(502,0,l),
(690,0,l),
(437,363,l),
(690,725,l),
(502,725,l),
(297,437,l),
(404,437,l),
(198,725,l),
(10,725,l),
(264,363,l),
(10,0,l)
);
}
);
width = 700;
},
{
anchors = (
{
name = bottom;
pos = (305,0);
},
{
name = top;
pos = (305,725);
}
);
layerId = "C1DB0BE6-5704-4A8C-8C00-D80E72C16D98";
shapes = (
{
closed = 1;
nodes = (
(84,0,l),
(308,324,l),
(300,324,l),
(525,0,l),
(584,0,l),
(329,363,l),
(572,725,l),
(513,725,l),
(300,402,l),
(308,402,l),
(94,725,l),
(35,725,l),
(278,363,l),
(25,0,l)
);
}
);
width = 609;
}
);
metricLeft = "=V";
metricRight = "=V";
unicode = 88;
}
{
color = 5;
glyphname = Y;
kernLeft = Y;
kernRight = Y;
lastChange = "2025-08-10 22:13:03 +0000";
layers = (
{
anchors = (
{
name = bottom;
pos = (321,0);
},
{
name = top;
pos = (321,725);
}
);
layerId = "30C2FD74-1A74-41AC-9C29-B288AE1DBDD7";
shapes = (
{
closed = 1;
nodes = (
(361,0,l),
(361,296,l),
(621,725,l),
(532,725,l),
(305,348,l),
(337,348,l),
(109,725,l),
(20,725,l),
(281,296,l),
(281,0,l)
);
}
);
width = 641;
},
{
anchors = (
{
name = bottom;
pos = (335,0);
},
{
name = top;
pos = (335,725);
}
);
layerId = "9398AC28-6BE1-4A79-9C94-3CBC2F226CE7";
shapes = (
{
closed = 1;
nodes = (
(413,0,l),
(413,276,l),
(660,725,l),
(483,725,l),
(304,379,l),
(367,379,l),
(187,725,l),
(10,725,l),
(258,275,l),
(258,0,l)
);
}
);
width = 670;
},
{
anchors = (
{
name = bottom;
pos = (315,0);
},
{
name = top;
pos = (315,725);
}
);
layerId = "C1DB0BE6-5704-4A8C-8C00-D80E72C16D98";
shapes = (
{
closed = 1;
nodes = (
(338,0,l),
(338,283,l),
(605,725,l),
(550,725,l),
(305,319,l),
(327,319,l),
(80,725,l),
(25,725,l),
(292,283,l),
(292,0,l)
);
}
);
width = 630;
}
);
metricLeft = "=V";
metricRight = "=V";
unicode = 89;
}
{
color = 5;
glyphname = Z;
kernLeft = Z;
kernRight = Z;
lastChange = "2025-08-10 22:12:55 +0000";
layers = (
{
anchors = (
{
name = bottom;
pos = (295,0);
},
{
name = center;
pos = (295,363);
},
{
name = top;
pos = (295,725);
}
);
layerId = "30C2FD74-1A74-41AC-9C29-B288AE1DBDD7";
shapes = (
{
closed = 1;
nodes = (
(565,0,l),
(565,75,l),
(121,75,l),
(556,651,l),
(556,725,l),
(50,725,l),
(50,650,l),
(461,650,l),
(25,74,l),
(25,0,l)
);
}
);
width = 590;
},
{
anchors = (
{
name = bottom;
pos = (288,0);
},
{
name = center;
pos = (288,363);
},
{
name = top;
pos = (288,725);
}
);
layerId = "9398AC28-6BE1-4A79-9C94-3CBC2F226CE7";
shapes = (
{
closed = 1;
nodes = (
(560,0,l),
(560,135,l),
(202,135,l),
(550,590,l),
(550,725,l),
(35,725,l),
(35,590,l),
(364,590,l),
(15,135,l),
(15,0,l)
);
}
);
width = 575;
},
{
anchors = (
{
name = bottom;
pos = (300,0);
},
{
name = center;
pos = (300,362);
},
{
name = top;
pos = (300,725);
}
);
layerId = "C1DB0BE6-5704-4A8C-8C00-D80E72C16D98";
shapes = (
{
closed = 1;
nodes = (
(570,0,l),
(570,45,l),
(91,45,l),
(560,680,l),
(560,725,l),
(57,725,l),
(57,680,l),
(500,680,l),
(30,45,l),
(30,0,l)
);
}
);
width = 600;
}
);
metricLeft = "=V+5";
metricRight = "=V+5";
unicode = 90;
}
{
glyphname = bracketleft;
lastChange = "2021-11-10 04:04:52 +0000";
layers = (
{
layerId = "30C2FD74-1A74-41AC-9C29-B288AE1DBDD7";
shapes = (
{
closed = 1;
nodes = (
(288,-140,l),
(288,-70,l),
(168,-70,l),
(168,675,l),
(288,675,l),
(288,745,l),
(88,745,l),
(88,-140,l)
);
}
);
width = 315;
},
{
layerId = "9398AC28-6BE1-4A79-9C94-3CBC2F226CE7";
shapes = (
{
closed = 1;
nodes = (
(390,-180,l),
(390,-50,l),
(260,-50,l),
(260,615,l),
(390,615,l),
(390,745,l),
(110,745,l),
(110,-180,l)
);
}
);
width = 449;
},
{
layerId = "C1DB0BE6-5704-4A8C-8C00-D80E72C16D98";
shapes = (
{
closed = 1;
nodes = (
(258,-130,l),
(258,-85,l),
(138,-85,l),
(138,700,l),
(258,700,l),
(258,745,l),
(88,745,l),
(88,-130,l)
);
}
);
width = 281;
}
);
unicode = 91;
}
{
glyphname = backslash;
lastChange = "2021-11-11 09:39:02 +0000";
layers = (
{
layerId = "30C2FD74-1A74-41AC-9C29-B288AE1DBDD7";
shapes = (
{
closed = 1;
nodes = (
(427,-120,l),
(89,705,l),
(2,705,l),
(340,-120,l)
);
}
);
width = 429;
},
{
layerId = "9398AC28-6BE1-4A79-9C94-3CBC2F226CE7";
shapes = (
{
closed = 1;
nodes = (
(512,-120,l),
(182,705,l),
(20,705,l),
(350,-120,l)
);
}
);
width = 532;
},
{
layerId = "C1DB0BE6-5704-4A8C-8C00-D80E72C16D98";
shapes = (
{
closed = 1;
nodes = (
(395,-120,l),
(57,705,l),
(2,705,l),
(340,-120,l)
);
}
);
width = 397;
}
);
metricLeft = "=|slash";
metricRight = "=|slash";
unicode = 92;
}
{
glyphname = bracketright;
lastChange = "2021-11-10 04:04:52 +0000";
layers = (
{
layerId = "30C2FD74-1A74-41AC-9C29-B288AE1DBDD7";
shapes = (
{
closed = 1;
nodes = (
(227,-140,l),
(227,745,l),
(27,745,l),
(27,675,l),
(147,675,l),
(147,-70,l),
(27,-70,l),
(27,-140,l)
);
}
);
width = 315;
},
{
layerId = "9398AC28-6BE1-4A79-9C94-3CBC2F226CE7";
shapes = (
{
closed = 1;
nodes = (
(339,-180,l),
(339,745,l),
(59,745,l),
(59,615,l),
(189,615,l),
(189,-50,l),
(59,-50,l),
(59,-180,l)
);
}
);
width = 449;
},
{
layerId = "C1DB0BE6-5704-4A8C-8C00-D80E72C16D98";
shapes = (
{
closed = 1;
nodes = (
(193,-130,l),
(193,745,l),
(23,745,l),
(23,700,l),
(143,700,l),
(143,-85,l),
(23,-85,l),
(23,-130,l)
);
}
);
width = 281;
}
);
metricLeft = "=|bracketleft";
metricRight = "=|bracketleft";
unicode = 93;
}
{
glyphname = asciicircum;
lastChange = "2021-11-10 09:11:37 +0000";
layers = (
{
layerId = "30C2FD74-1A74-41AC-9C29-B288AE1DBDD7";
shapes = (
{
closed = 1;
nodes = (
(185,425,l),
(321,684,l),
(288,684,l),
(421,425,l),
(507,425,l),
(338,745,l),
(268,745,l),
(99,425,l)
);
}
);
width = 606;
},
{
layerId = "9398AC28-6BE1-4A79-9C94-3CBC2F226CE7";
shapes = (
{
closed = 1;
nodes = (
(262,418,l),
(371,627,l),
(309,627,l),
(418,418,l),
(582,418,l),
(412,745,l),
(268,745,l),
(97,418,l)
);
}
);
width = 678;
},
{
layerId = "C1DB0BE6-5704-4A8C-8C00-D80E72C16D98";
shapes = (
{
closed = 1;
nodes = (
(165,428,l),
(315,713,l),
(281,713,l),
(431,428,l),
(483,428,l),
(316,745,l),
(280,745,l),
(113,428,l)
);
}
);
width = 596;
}
);
metricWidth = "=plus";
unicode = 94;
}
{
glyphname = underscore;
lastChange = "2021-11-10 04:04:52 +0000";
layers = (
{
layerId = "30C2FD74-1A74-41AC-9C29-B288AE1DBDD7";
shapes = (
{
closed = 1;
nodes = (
(524,-70,l),
(524,0,l),
(74,0,l),
(74,-70,l)
);
}
);
width = 598;
},
{
layerId = "9398AC28-6BE1-4A79-9C94-3CBC2F226CE7";
shapes = (
{
closed = 1;
nodes = (
(592,-130,l),
(592,0,l),
(92,0,l),
(92,-130,l)
);
}
);
width = 684;
},
{
layerId = "C1DB0BE6-5704-4A8C-8C00-D80E72C16D98";
shapes = (
{
closed = 1;
nodes = (
(474,-45,l),
(474,0,l),
(74,0,l),
(74,-45,l)
);
}
);
width = 548;
}
);
unicode = 95;
}
{
color = 5;
glyphname = a;
kernLeft = a;
kernRight = a;
lastChange = "2026-03-12 03:13:33 +0000";
layers = (
{
anchors = (
{
name = bottom;
pos = (272,0);
},
{
name = ogonek;
pos = (490,0);
},
{
name = top;
pos = (275,549);
}
);
guides = (
{
pos = (657,149);
}
);
layerId = "30C2FD74-1A74-41AC-9C29-B288AE1DBDD7";
shapes = (
{
closed = 1;
nodes = (
(314,-12,o),
(395,38,o),
(426,105,c),
(415,105,l),
(415,0,l),
(490,0,l),
(490,348,l),
(415,348,l),
(415,232,ls),
(415,134,o),
(341,60,o),
(242,60,cs),
(172,60,o),
(120,105,o),
(120,166,cs),
(120,219,o),
(157,257,o),
(219,269,cs),
(291,281,o),
(382,264,o),
(431,231,c),
(431,303,l),
(379,337,o),
(275,352,o),
(201,338,cs),
(100,319,o),
(40,255,o),
(40,166,cs),
(40,64,o),
(124,-12,o),
(237,-12,cs)
);
},
{
closed = 1;
nodes = (
(490,347,l),
(487,475,o),
(405,556,o),
(270,556,cs),
(182,556,o),
(115,509,o),
(80,429,c),
(150,402,l),
(173,454,o),
(220,484,o),
(276,484,cs),
(362,484,o),
(414,430,o),
(415,347,c)
);
}
);
width = 570;
},
{
anchors = (
{
name = bottom;
pos = (284,0);
},
{
name = ogonek;
pos = (530,0);
},
{
name = top;
pos = (300,556);
}
);
layerId = "9398AC28-6BE1-4A79-9C94-3CBC2F226CE7";
shapes = (
{
closed = 1;
nodes = (
(310,-12,o),
(394,44,o),
(434,118,c),
(390,118,l),
(390,0,l),
(530,0,l),
(530,348,l),
(380,348,l),
(380,228,ls),
(380,159,o),
(333,98,o),
(256,98,cs),
(218,98,o),
(190,127,o),
(190,166,cs),
(190,204,o),
(215,231,o),
(256,239,cs),
(300,247,o),
(360,236,o),
(396,214,c),
(396,324,l),
(346,341,o),
(274,348,o),
(229,342,cs),
(107,324,o),
(35,258,o),
(35,166,cs),
(35,64,o),
(117,-12,o),
(226,-12,cs)
);
},
{
closed = 1;
nodes = (
(530,348,l),
(530,518,o),
(394,568,o),
(301,568,cs),
(192,568,o),
(111,516,o),
(76,430,c),
(194,383,l),
(211,417,o),
(238,437,o),
(284,437,cs),
(338,437,o),
(380,404,o),
(380,348,c)
);
}
);
width = 600;
},
{
anchors = (
{
name = bottom;
pos = (271,0);
},
{
name = ogonek;
pos = (480,0);
},
{
name = top;
pos = (285,536);
}
);
layerId = "C1DB0BE6-5704-4A8C-8C00-D80E72C16D98";
shapes = (
{
closed = 1;
nodes = (
(325,-12,o),
(412,38,o),
(439,105,c),
(435,105,l),
(435,0,l),
(480,0,l),
(480,345,l),
(435,345,l),
(435,238,ls),
(435,119,o),
(351,30,o),
(240,30,cs),
(157,30,o),
(95,85,o),
(95,158,cs),
(95,227,o),
(144,275,o),
(226,287,cs),
(297,299,o),
(380,279,o),
(451,234,c),
(451,284,l),
(381,323,o),
(292,339,o),
(211,329,cs),
(110,315,o),
(50,250,o),
(50,156,cs),
(50,60,o),
(130,-12,o),
(236,-12,cs)
);
},
{
closed = 1;
nodes = (
(480,345,l),
(479,460,o),
(398,546,o),
(277,546,cs),
(190,546,o),
(118,501,o),
(85,425,c),
(129,408,l),
(157,466,o),
(212,501,o),
(277,501,cs),
(372,501,o),
(434,435,o),
(435,345,c)
);
}
);
width = 570;
}
);
metricRight = "=I-10";
unicode = 97;
}
{
color = 5;
glyphname = b;
kernLeft = h;
kernRight = o;
lastChange = "2026-03-12 03:12:30 +0000";
layers = (
{
anchors = (
{
name = bottom;
pos = (310,0);
},
{
name = center;
pos = (159,768);
},
{
name = top;
pos = (318,546);
}
);
layerId = "30C2FD74-1A74-41AC-9C29-B288AE1DBDD7";
shapes = (
{
closed = 1;
nodes = (
(165,517,l),
(165,757,l),
(90,757,l),
(90,517,l)
);
},
{
pos = (645,0);
ref = a.cv11;
scale = (-1,1);
}
);
width = 635;
},
{
.lastUpdate = 795058867.421;
anchors = (
{
name = bottom;
pos = (338,0);
},
{
name = center;
pos = (171,768);
},
{
name = top;
pos = (338,556);
}
);
layerId = "9398AC28-6BE1-4A79-9C94-3CBC2F226CE7";
shapes = (
{
closed = 1;
nodes = (
(230,515,l),
(230,745,l),
(80,745,l),
(80,515,l)
);
},
{
pos = (680,0);
ref = a.cv11;
scale = (-1,1);
}
);
width = 670;
},
{
.lastUpdate = 795060243.274;
anchors = (
{
name = bottom;
pos = (318,0);
},
{
name = center;
pos = (160,768);
},
{
name = top;
pos = (320,536);
}
);
layerId = "C1DB0BE6-5704-4A8C-8C00-D80E72C16D98";
shapes = (
{
closed = 1;
nodes = (
(145,507,l),
(145,757,l),
(100,757,l),
(100,507,l)
);
},
{
pos = (650,0);
ref = a.cv11;
scale = (-1,1);
}
);
width = 640;
}
);
metricLeft = "=I";
metricRight = "=|a";
unicode = 98;
}
{
glyphname = c;
kernLeft = o;
kernRight = o;
lastChange = "2025-08-10 21:37:34 +0000";
layers = (
{
anchors = (
{
name = bottom;
pos = (302,0);
},
{
name = top;
pos = (302,546);
}
);
layerId = "30C2FD74-1A74-41AC-9C29-B288AE1DBDD7";
shapes = (
{
closed = 1;
nodes = (
(404,-10,o),
(499,56,o),
(525,145,c),
(457,172,l),
(437,112,o),
(371,67,o),
(302,67,cs),
(200,67,o),
(123,155,o),
(123,273,cs),
(123,390,o),
(200,478,o),
(302,478,cs),
(371,478,o),
(438,434,o),
(457,376,c),
(525,401,l),
(499,490,o),
(404,556,o),
(302,556,cs),
(152,556,o),
(40,435,o),
(40,274,cs),
(40,112,o),
(152,-10,o),
(302,-10,cs)
);
}
);
width = 565;
},
{
anchors = (
{
name = bottom;
pos = (315,0);
},
{
name = top;
pos = (315,546);
}
);
layerId = "9398AC28-6BE1-4A79-9C94-3CBC2F226CE7";
shapes = (
{
closed = 1;
nodes = (
(434,-10,o),
(539,65,o),
(560,165,c),
(430,212,l),
(418,161,o),
(371,123,o),
(320,123,cs),
(246,123,o),
(190,190,o),
(190,279,cs),
(190,367,o),
(246,433,o),
(320,433,cs),
(371,433,o),
(418,395,o),
(430,344,c),
(560,390,l),
(537,491,o),
(432,566,o),
(315,566,cs),
(155,566,o),
(35,443,o),
(35,279,cs),
(35,114,o),
(155,-10,o),
(315,-10,cs)
);
}
);
width = 595;
},
{
anchors = (
{
name = bottom;
pos = (312,0);
},
{
name = top;
pos = (312,536);
}
);
layerId = "C1DB0BE6-5704-4A8C-8C00-D80E72C16D98";
shapes = (
{
closed = 1;
nodes = (
(411,-10,o),
(504,50,o),
(525,131,c),
(489,147,l),
(465,83,o),
(386,35,o),
(307,35,cs),
(186,35,o),
(100,135,o),
(100,268,cs),
(100,401,o),
(186,501,o),
(307,501,cs),
(386,501,o),
(464,452,o),
(488,390,c),
(525,406,l),
(503,486,o),
(410,546,o),
(307,546,cs),
(157,546,o),
(50,427,o),
(50,268,cs),
(50,109,o),
(157,-10,o),
(307,-10,cs)
);
}
);
width = 575;
}
);
metricLeft = "=a";
metricRight = "=|a";
unicode = 99;
}
{
glyphname = e;
kernLeft = o;
kernRight = o;
lastChange = "2025-06-12 00:16:43 +0000";
layers = (
{
anchors = (
{
name = bottom;
pos = (288,0);
},
{
name = ogonek;
pos = (407,10);
},
{
name = top;
pos = (293,546);
}
);
layerId = "30C2FD74-1A74-41AC-9C29-B288AE1DBDD7";
shapes = (
{
closed = 1;
nodes = (
(396,-10,o),
(495,52,o),
(530,134,c),
(462,160,l),
(433,107,o),
(363,67,o),
(299,67,cs),
(196,67,o),
(118,156,o),
(118,274,cs),
(118,391,o),
(193,479,o),
(293,479,cs),
(384,479,o),
(452,400,o),
(452,295,c),
(488,327,l),
(88,327,l),
(88,252,l),
(528,252,l),
(529,267,o),
(530,291,o),
(530,308,cs),
(530,450,o),
(428,556,o),
(293,556,cs),
(148,556,o),
(40,436,o),
(40,275,cs),
(40,112,o),
(151,-10,o),
(299,-10,cs)
);
}
);
width = 580;
},
{
anchors = (
{
name = bottom;
pos = (303,0);
},
{
name = ogonek;
pos = (441,17);
},
{
name = top;
pos = (308,556);
}
);
layerId = "9398AC28-6BE1-4A79-9C94-3CBC2F226CE7";
shapes = (
{
closed = 1;
nodes = (
(426,-10,o),
(529,55,o),
(560,141,c),
(440,188,l),
(416,144,o),
(372,118,o),
(322,118,cs),
(241,118,o),
(192,176,o),
(190,273,c),
(194,377,o),
(237,438,o),
(308,438,cs),
(379,438,o),
(423,385,o),
(422,294,c),
(473,336,l),
(164,336,l),
(164,226,l),
(558,226,l),
(562,240,o),
(565,269,o),
(565,294,cs),
(565,449,o),
(453,566,o),
(310,566,cs),
(150,566,o),
(35,443,o),
(35,279,cs),
(35,114,o),
(157,-10,o),
(320,-10,cs)
);
}
);
width = 610;
},
{
anchors = (
{
name = bottom;
pos = (293,0);
},
{
name = ogonek;
pos = (414,10);
},
{
name = top;
pos = (293,536);
}
);
layerId = "C1DB0BE6-5704-4A8C-8C00-D80E72C16D98";
shapes = (
{
closed = 1;
nodes = (
(397,-10,o),
(493,50,o),
(525,129,c),
(484,144,l),
(458,82,o),
(379,35,o),
(300,35,cs),
(185,35,o),
(98,135,o),
(98,268,cs),
(98,401,o),
(185,501,o),
(300,501,cs),
(411,501,o),
(490,407,o),
(484,281,c),
(501,295,l),
(73,295,l),
(73,253,l),
(527,253,l),
(529,262,o),
(530,280,o),
(530,293,cs),
(530,438,o),
(431,546,o),
(300,546,cs),
(157,546,o),
(50,427,o),
(50,268,cs),
(50,109,o),
(157,-10,o),
(300,-10,cs)
);
}
);
width = 590;
}
);
metricLeft = "=a";
metricRight = "=|a+10";
unicode = 101;
}
{
glyphname = g;
kernLeft = o;
kernRight = g;
lastChange = "2025-06-19 02:36:59 +0000";
layers = (
{
anchors = (
{
name = bottom;
pos = (306,-240);
},
{
name = top;
pos = (306,546);
}
);
guides = (
{
pos = (119,288);
}
);
layerId = "30C2FD74-1A74-41AC-9C29-B288AE1DBDD7";
shapes = (
{
closed = 1;
nodes = (
(313,-220,ls),
(448,-220,o),
(550,-117,o),
(550,21,cs),
(550,546,l),
(475,546,l),
(475,416,l),
(487,437,l),
(444,526,o),
(361,558,o),
(294,558,cs),
(155,558,o),
(50,442,o),
(50,288,cs),
(50,134,o),
(155,18,o),
(294,18,cs),
(374,18,o),
(457,56,o),
(487,129,c),
(475,140,l),
(475,21,ls),
(475,-74,o),
(401,-145,o),
(302,-145,cs),
(294,-145,ls),
(227,-145,o),
(158,-96,o),
(132,-31,c),
(52,-55,l),
(84,-149,o),
(184,-220,o),
(286,-220,cs)
);
},
{
closed = 1;
nodes = (
(202,93,o),
(130,177,o),
(130,288,cs),
(130,399,o),
(202,483,o),
(298,483,cs),
(402,483,o),
(480,399,o),
(480,288,cs),
(480,177,o),
(402,93,o),
(298,93,cs)
);
}
);
width = 630;
},
{
anchors = (
{
name = bottom;
pos = (316,-240);
},
{
name = top;
pos = (313,556);
}
);
guides = (
{
pos = (191,298);
}
);
layerId = "9398AC28-6BE1-4A79-9C94-3CBC2F226CE7";
shapes = (
{
closed = 1;
nodes = (
(316,-220,ls),
(465,-220,o),
(575,-110,o),
(575,29,cs),
(575,556,l),
(435,556,l),
(435,427,l),
(454,463,l),
(421,523,o),
(349,568,o),
(286,568,cs),
(148,568,o),
(45,452,o),
(45,298,cs),
(45,143,o),
(150,27,o),
(289,27,cs),
(348,27,o),
(419,70,o),
(454,128,c),
(425,164,l),
(425,29,ls),
(425,-33,o),
(379,-85,o),
(315,-85,cs),
(305,-85,ls),
(241,-85,o),
(199,-55,o),
(184,-3,c),
(45,-42,l),
(82,-154,o),
(172,-220,o),
(295,-220,cs)
);
},
{
closed = 1;
nodes = (
(249,163,o),
(200,221,o),
(200,298,cs),
(200,375,o),
(249,433,o),
(315,433,cs),
(384,433,o),
(435,375,o),
(435,298,cs),
(435,221,o),
(384,163,o),
(315,163,cs)
);
}
);
width = 645;
},
{
anchors = (
{
name = bottom;
pos = (306,-240);
},
{
name = top;
pos = (306,536);
}
);
guides = (
{
pos = (89,277);
}
);
layerId = "C1DB0BE6-5704-4A8C-8C00-D80E72C16D98";
shapes = (
{
closed = 1;
nodes = (
(304,-220,ls),
(440,-220,o),
(540,-115,o),
(540,18,cs),
(540,536,l),
(495,536,l),
(495,397,l),
(505,414,l),
(472,489,o),
(385,546,o),
(297,546,cs),
(158,546,o),
(60,428,o),
(60,277,cs),
(60,126,o),
(158,8,o),
(297,8,cs),
(385,8,o),
(472,65,o),
(505,142,c),
(495,159,l),
(495,18,ls),
(495,-90,o),
(410,-178,o),
(303,-178,cs),
(285,-178,ls),
(209,-178,o),
(145,-129,o),
(112,-63,c),
(72,-75,l),
(107,-160,o),
(186,-220,o),
(285,-220,cs)
);
},
{
closed = 1;
nodes = (
(191,53,o),
(108,149,o),
(108,277,cs),
(108,405,o),
(191,501,o),
(297,501,cs),
(410,501,o),
(497,405,o),
(497,277,cs),
(497,149,o),
(410,53,o),
(297,53,cs)
);
}
);
width = 630;
}
);
metricLeft = "=a+10";
metricRight = "=a";
unicode = 103;
}
{
color = 5;
glyphname = i;
kernLeft = i;
kernRight = i;
lastChange = "2025-06-10 02:48:37 +0000";
layers = (
{
anchors = (
{
name = bottom;
pos = (141,0);
}
);
guides = (
{
angle = 90;
pos = (140,539);
}
);
layerId = "30C2FD74-1A74-41AC-9C29-B288AE1DBDD7";
shapes = (
{
closed = 1;
nodes = (
(178,0,l),
(178,546,l),
(103,546,l),
(103,0,l)
);
},
{
pos = (-3,663);
ref = period;
}
);
width = 280;
},
{
anchors = (
{
name = bottom;
pos = (162,0);
}
);
guides = (
{
angle = 90;
pos = (160,529);
}
);
layerId = "9398AC28-6BE1-4A79-9C94-3CBC2F226CE7";
shapes = (
{
closed = 1;
nodes = (
(235,0,l),
(235,556,l),
(85,556,l),
(85,0,l)
);
},
{
pos = (-20,630);
ref = period;
}
);
width = 320;
},
{
.lastUpdate = 795058386.175;
anchors = (
{
name = bottom;
pos = (142,0);
}
);
guides = (
{
angle = 90;
pos = (141,529);
}
);
layerId = "C1DB0BE6-5704-4A8C-8C00-D80E72C16D98";
shapes = (
{
closed = 1;
nodes = (
(164,0,l),
(164,536,l),
(119,536,l),
(119,0,l)
);
},
{
pos = (10,669);
ref = period;
}
);
width = 280;
}
);
metricLeft = "=I-10";
metricRight = "=I-10";
unicode = 105;
}
{
color = 5;
glyphname = k;
kernLeft = h;
kernRight = k;
lastChange = "2025-06-10 00:52:00 +0000";
layers = (
{
anchors = (
{
name = bottom;
pos = (287,0);
},
{
name = top;
pos = (128,745);
}
);
layerId = "30C2FD74-1A74-41AC-9C29-B288AE1DBDD7";
shapes = (
{
closed = 1;
nodes = (
(165,0,l),
(165,207,l),
(140,145,l),
(272,282,l),
(219,286,l),
(445,0,l),
(540,0,l),
(299,307,l),
(531,546,l),
(424,546,l),
(133,247,l),
(165,242,l),
(165,757,l),
(90,757,l),
(90,0,l)
);
}
);
width = 550;
},
{
anchors = (
{
name = bottom;
pos = (318,0);
},
{
name = top;
pos = (155,745);
}
);
layerId = "9398AC28-6BE1-4A79-9C94-3CBC2F226CE7";
shapes = (
{
closed = 1;
nodes = (
(230,0,l),
(230,214,l),
(184,127,l),
(311,259,l),
(233,257,l),
(429,0,l),
(609,0,l),
(376,306,l),
(610,556,l),
(415,556,l),
(174,300,l),
(235,300,l),
(230,757,l),
(80,757,l),
(80,0,l)
);
}
);
width = 615;
},
{
anchors = (
{
name = bottom;
pos = (282,0);
},
{
name = top;
pos = (123,745);
}
);
layerId = "C1DB0BE6-5704-4A8C-8C00-D80E72C16D98";
shapes = (
{
closed = 1;
nodes = (
(145,0,l),
(145,187,l),
(138,168,l),
(261,293,l),
(230,292,l),
(460,0,l),
(520,0,l),
(277,308,l),
(500,536,l),
(432,536,l),
(115,213,l),
(145,213,l),
(145,757,l),
(100,757,l),
(100,0,l)
);
}
);
width = 530;
}
);
metricLeft = "=I";
metricRight = "=f";
unicode = 107;
}
{
color = 5;
glyphname = l;
kernLeft = h;
kernRight = d;
lastChange = "2024-02-02 02:47:42 +0000";
layers = (
{
anchors = (
{
name = bottom;
pos = (128,0);
},
{
name = center;
pos = (128,392);
},
{
name = dot;
pos = (292,372);
},
{
name = top;
pos = (127,745);
},
{
name = topright;
pos = (242,536);
}
);
layerId = "30C2FD74-1A74-41AC-9C29-B288AE1DBDD7";
shapes = (
{
closed = 1;
nodes = (
(165,0,l),
(165,745,l),
(90,745,l),
(90,0,l)
);
}
);
width = 255;
},
{
anchors = (
{
name = bottom;
pos = (155,0);
},
{
name = center;
pos = (155,392);
},
{
name = dot;
pos = (365,372);
},
{
name = top;
pos = (155,745);
},
{
name = topright;
pos = (285,546);
}
);
layerId = "9398AC28-6BE1-4A79-9C94-3CBC2F226CE7";
shapes = (
{
closed = 1;
nodes = (
(230,0,l),
(230,745,l),
(80,745,l),
(80,0,l)
);
}
);
width = 310;
},
{
anchors = (
{
name = bottom;
pos = (123,0);
},
{
name = center;
pos = (123,392);
},
{
name = dot;
pos = (283,372);
},
{
name = top;
pos = (123,745);
},
{
name = topright;
pos = (233,526);
}
);
layerId = "C1DB0BE6-5704-4A8C-8C00-D80E72C16D98";
shapes = (
{
closed = 1;
nodes = (
(145,0,l),
(145,745,l),
(100,745,l),
(100,0,l)
);
}
);
width = 245;
}
);
metricLeft = "=I";
metricRight = "=I";
unicode = 108;
}
{
color = 5;
glyphname = m;
kernLeft = n;
kernRight = n;
lastChange = "2025-06-10 00:52:58 +0000";
layers = (
{
anchors = (
{
name = bottom;
pos = (458,0);
},
{
name = top;
pos = (457,546);
}
);
layerId = "30C2FD74-1A74-41AC-9C29-B288AE1DBDD7";
shapes = (
{
closed = 1;
nodes = (
(165,0,l),
(165,319,ls),
(165,409,o),
(211,481,o),
(291,481,cs),
(369,481,o),
(425,419,o),
(425,329,cs),
(425,0,l),
(500,0,l),
(500,329,ls),
(500,419,o),
(556,481,o),
(636,481,cs),
(714,481,o),
(760,419,o),
(760,329,cs),
(760,0,l),
(835,0,l),
(835,358,ls),
(835,475,o),
(762,556,o),
(645,556,cs),
(564,556,o),
(490,497,o),
(466,426,c),
(487,427,l),
(461,498,o),
(385,556,o),
(304,556,cs),
(236,556,o),
(173,501,o),
(145,439,c),
(165,439,l),
(165,546,l),
(90,546,l),
(90,0,l)
);
}
);
width = 905;
},
{
anchors = (
{
name = bottom;
pos = (470,0);
},
{
name = top;
pos = (470,556);
}
);
layerId = "9398AC28-6BE1-4A79-9C94-3CBC2F226CE7";
shapes = (
{
closed = 1;
nodes = (
(230,0,l),
(230,319,ls),
(230,380,o),
(249,431,o),
(305,431,cs),
(359,431,o),
(398,390,o),
(398,329,cs),
(398,0,l),
(548,0,l),
(548,329,ls),
(548,390,o),
(567,431,o),
(625,431,cs),
(681,431,o),
(720,390,o),
(720,329,cs),
(720,0,l),
(870,0,l),
(870,361,ls),
(870,482,o),
(796,566,o),
(678,566,cs),
(596,566,o),
(523,504,o),
(492,427,c),
(535,421,l),
(517,501,o),
(450,566,o),
(361,566,cs),
(278,566,o),
(216,496,o),
(200,413,c),
(220,413,l),
(220,556,l),
(80,556,l),
(80,0,l)
);
}
);
width = 930;
},
{
anchors = (
{
name = bottom;
pos = (460,0);
},
{
name = top;
pos = (457,536);
}
);
layerId = "C1DB0BE6-5704-4A8C-8C00-D80E72C16D98";
shapes = (
{
closed = 1;
nodes = (
(145,0,l),
(145,320,ls),
(145,423,o),
(198,503,o),
(288,503,cs),
(377,503,o),
(440,441,o),
(440,350,cs),
(440,0,l),
(485,0,l),
(485,330,ls),
(485,433,o),
(548,503,o),
(638,503,cs),
(727,503,o),
(780,441,o),
(780,350,cs),
(780,0,l),
(825,0,l),
(825,355,ls),
(825,468,o),
(755,546,o),
(642,546,cs),
(553,546,o),
(478,486,o),
(461,413,c),
(477,413,l),
(455,486,o),
(378,546,o),
(292,546,cs),
(212,546,o),
(160,495,o),
(135,423,c),
(145,423,l),
(145,536,l),
(100,536,l),
(100,0,l)
);
}
);
width = 905;
}
);
metricLeft = "=I";
metricRight = "=I-20";
unicode = 109;
}
{
color = 5;
glyphname = n;
kernLeft = n;
kernRight = n;
lastChange = "2025-06-13 00:36:20 +0000";
layers = (
{
anchors = (
{
name = bottom;
pos = (305,0);
},
{
name = top;
pos = (300,546);
}
);
layerId = "30C2FD74-1A74-41AC-9C29-B288AE1DBDD7";
shapes = (
{
closed = 1;
nodes = (
(165,0,l),
(165,319,ls),
(165,409,o),
(223,481,o),
(311,481,cs),
(398,481,o),
(455,419,o),
(455,329,cs),
(455,0,l),
(530,0,l),
(530,358,ls),
(530,475,o),
(448,556,o),
(324,556,cs),
(243,556,o),
(169,500,o),
(145,437,c),
(165,437,l),
(165,546,l),
(90,546,l),
(90,0,l)
);
}
);
width = 600;
},
{
anchors = (
{
name = bottom;
pos = (320,0);
},
{
name = top;
pos = (320,556);
}
);
layerId = "9398AC28-6BE1-4A79-9C94-3CBC2F226CE7";
shapes = (
{
closed = 1;
nodes = (
(230,0,l),
(230,319,ls),
(230,380,o),
(261,431,o),
(325,431,cs),
(389,431,o),
(425,390,o),
(425,329,cs),
(425,0,l),
(575,0,l),
(575,361,ls),
(575,482,o),
(495,566,o),
(368,566,cs),
(295,566,o),
(226,507,o),
(200,438,c),
(220,438,l),
(220,556,l),
(80,556,l),
(80,0,l)
);
}
);
width = 635;
},
{
anchors = (
{
name = bottom;
pos = (302,0);
},
{
name = top;
pos = (302,536);
}
);
layerId = "C1DB0BE6-5704-4A8C-8C00-D80E72C16D98";
shapes = (
{
closed = 1;
nodes = (
(145,0,l),
(145,320,ls),
(145,423,o),
(210,503,o),
(308,503,cs),
(406,503,o),
(470,441,o),
(470,350,cs),
(470,0,l),
(515,0,l),
(515,355,ls),
(515,468,o),
(434,546,o),
(312,546,cs),
(227,546,o),
(154,490,o),
(135,425,c),
(145,425,l),
(145,536,l),
(100,536,l),
(100,0,l)
);
}
);
width = 595;
}
);
metricLeft = "=I";
metricRight = "=I-20";
unicode = 110;
}
{
color = 5;
glyphname = o;
kernLeft = o;
kernRight = o;
lastChange = "2025-08-10 21:47:37 +0000";
layers = (
{
anchors = (
{
name = bottom;
pos = (303,0);
},
{
name = center;
pos = (303,273);
},
{
name = ogonek;
pos = (402,10);
},
{
name = top;
pos = (303,546);
},
{
name = topright;
pos = (429,520);
}
);
layerId = "30C2FD74-1A74-41AC-9C29-B288AE1DBDD7";
shapes = (
{
closed = 1;
nodes = (
(454,-10,o),
(565,112,o),
(565,274,cs),
(565,434,o),
(454,555,o),
(303,555,cs),
(152,555,o),
(40,434,o),
(40,274,cs),
(40,112,o),
(152,-10,o),
(303,-10,cs)
);
},
{
closed = 1;
nodes = (
(199,67,o),
(122,156,o),
(122,274,cs),
(122,391,o),
(199,478,o),
(303,478,cs),
(407,478,o),
(485,391,o),
(485,274,cs),
(485,156,o),
(407,67,o),
(303,67,cs)
);
}
);
width = 605;
},
{
anchors = (
{
name = bottom;
pos = (318,0);
},
{
name = center;
pos = (318,278);
},
{
name = ogonek;
pos = (440,14);
},
{
name = top;
pos = (318,556);
},
{
name = topright;
pos = (426,546);
}
);
layerId = "9398AC28-6BE1-4A79-9C94-3CBC2F226CE7";
shapes = (
{
closed = 1;
nodes = (
(480,-10,o),
(600,114,o),
(600,278,cs),
(600,442,o),
(480,566,o),
(318,566,cs),
(155,566,o),
(35,442,o),
(35,278,cs),
(35,114,o),
(155,-10,o),
(318,-10,cs)
);
},
{
closed = 1;
nodes = (
(246,127,o),
(190,193,o),
(190,278,cs),
(190,363,o),
(246,429,o),
(318,429,cs),
(389,429,o),
(445,363,o),
(445,278,cs),
(445,193,o),
(389,127,o),
(318,127,cs)
);
}
);
width = 635;
},
{
anchors = (
{
name = bottom;
pos = (305,0);
},
{
name = center;
pos = (305,268);
},
{
name = ogonek;
pos = (409,10);
},
{
name = top;
pos = (305,536);
},
{
name = topright;
pos = (435,508);
}
);
layerId = "C1DB0BE6-5704-4A8C-8C00-D80E72C16D98";
shapes = (
{
closed = 1;
nodes = (
(451,-10,o),
(560,110,o),
(560,268,cs),
(560,426,o),
(451,546,o),
(305,546,cs),
(159,546,o),
(50,426,o),
(50,268,cs),
(50,110,o),
(159,-10,o),
(305,-10,cs)
);
},
{
closed = 1;
nodes = (
(187,35,o),
(95,135,o),
(95,268,cs),
(95,401,o),
(187,502,o),
(305,502,cs),
(423,502,o),
(515,401,o),
(515,268,cs),
(515,135,o),
(423,35,o),
(305,35,cs)
);
}
);
width = 610;
}
);
metricLeft = "=a";
metricRight = "=|a";
unicode = 111;
}
{
color = 5;
glyphname = r;
kernLeft = n;
kernRight = r;
lastChange = "2025-06-12 02:59:30 +0000";
layers = (
{
anchors = (
{
name = bottom;
pos = (128,0);
},
{
name = top;
pos = (215,546);
}
);
layerId = "30C2FD74-1A74-41AC-9C29-B288AE1DBDD7";
shapes = (
{
closed = 1;
nodes = (
(165,0,l),
(165,290,ls),
(165,419,o),
(216,481,o),
(301,481,c),
(306,556,l),
(243,556,o),
(183,512,o),
(145,433,c),
(165,433,l),
(165,546,l),
(90,546,l),
(90,0,l)
);
},
{
pos = (300,8);
ref = "_fjrt-arc.comp";
}
);
width = 382;
},
{
anchors = (
{
name = bottom;
pos = (155,0);
},
{
name = top;
pos = (240,556);
}
);
layerId = "9398AC28-6BE1-4A79-9C94-3CBC2F226CE7";
shapes = (
{
closed = 1;
nodes = (
(230,0,l),
(230,294,ls),
(230,392,o),
(274,436,o),
(348,436,c),
(358,566,l),
(282,566,o),
(223,515,o),
(200,425,c),
(220,425,l),
(220,556,l),
(80,556,l),
(80,0,l)
);
},
{
pos = (347,8);
ref = "_fjrt-arc.comp";
}
);
width = 439;
},
{
anchors = (
{
name = bottom;
pos = (123,0);
},
{
name = top;
pos = (215,536);
}
);
layerId = "C1DB0BE6-5704-4A8C-8C00-D80E72C16D98";
shapes = (
{
closed = 1;
nodes = (
(145,0,l),
(145,290,ls),
(145,429,o),
(205,501,o),
(307,501,c),
(307,546,l),
(220,546,o),
(153,492,o),
(128,405,c),
(145,405,l),
(145,536,l),
(100,536,l),
(100,0,l)
);
},
{
pos = (306,12);
ref = "_fjrt-arc.comp";
}
);
width = 373;
}
);
metricLeft = "=I";
metricRight = "=f";
unicode = 114;
}
{
glyphname = s;
kernLeft = s;
kernRight = s;
lastChange = "2025-12-24 02:36:54 +0000";
layers = (
{
anchors = (
{
name = bottom;
pos = (254,0);
},
{
name = top;
pos = (254,546);
}
);
layerId = "30C2FD74-1A74-41AC-9C29-B288AE1DBDD7";
shapes = (
{
closed = 1;
nodes = (
(374,-10,o),
(458,55,o),
(458,141,cs),
(458,218,o),
(399,278,o),
(298,304,cs),
(216,325,ls),
(174,336,o),
(142,367,o),
(142,399,cs),
(142,448,o),
(187,484,o),
(246,484,cs),
(302,484,o),
(349,470,o),
(384,394,c),
(453,414,l),
(424,512,o),
(340,556,o),
(249,556,cs),
(143,556,o),
(64,492,o),
(64,399,cs),
(64,328,o),
(120,269,o),
(216,247,cs),
(286,231,ls),
(346,218,o),
(381,184,o),
(381,141,cs),
(381,96,o),
(330,62,o),
(262,62,cs),
(201,62,o),
(148,80,o),
(109,163,c),
(40,143,l),
(72,38,o),
(164,-10,o),
(262,-10,cs)
);
}
);
width = 498;
},
{
anchors = (
{
name = bottom;
pos = (271,0);
},
{
name = top;
pos = (271,536);
}
);
layerId = "9398AC28-6BE1-4A79-9C94-3CBC2F226CE7";
shapes = (
{
closed = 1;
nodes = (
(405,-10,o),
(498,62,o),
(498,158,cs),
(498,242,o),
(435,294,o),
(358,323,cs),
(261,359,ls),
(230,371,o),
(212,387,o),
(212,403,cs),
(212,428,o),
(239,446,o),
(274,446,cs),
(315,446,o),
(352,414,o),
(361,371,c),
(485,408,l),
(458,521,o),
(377,566,o),
(269,566,cs),
(148,566,o),
(57,496,o),
(57,403,cs),
(57,318,o),
(117,269,o),
(196,241,cs),
(299,205,ls),
(327,195,o),
(343,180,o),
(343,157,cs),
(343,133,o),
(315,110,o),
(277,110,cs),
(231,110,o),
(190,126,o),
(164,201,c),
(35,162,l),
(65,52,o),
(157,-10,o),
(282,-10,cs)
);
}
);
width = 533;
},
{
anchors = (
{
name = bottom;
pos = (249,0);
},
{
name = top;
pos = (249,536);
}
);
layerId = "C1DB0BE6-5704-4A8C-8C00-D80E72C16D98";
shapes = (
{
closed = 1;
nodes = (
(359,-10,o),
(436,52,o),
(436,135,cs),
(436,205,o),
(386,266,o),
(301,290,cs),
(213,315,ls),
(158,330,o),
(126,360,o),
(126,396,cs),
(126,463,o),
(172,502,o),
(250,502,cs),
(309,502,o),
(359,474,o),
(386,409,c),
(429,420,l),
(402,509,o),
(334,546,o),
(250,546,cs),
(142,546,o),
(78,490,o),
(78,395,cs),
(78,336,o),
(126,288,o),
(206,266,cs),
(293,242,ls),
(355,225,o),
(392,181,o),
(392,133,cs),
(392,76,o),
(334,34,o),
(256,34,cs),
(189,34,o),
(123,74,o),
(94,139,c),
(50,128,l),
(81,41,o),
(164,-10,o),
(256,-10,cs)
);
}
);
width = 486;
}
);
metricLeft = "=a";
metricRight = "=|a";
unicode = 115;
}
{
color = 5;
glyphname = t;
kernLeft = t;
kernRight = t;
lastChange = "2026-03-12 18:27:12 +0000";
layers = (
{
anchors = (
{
name = bottom;
pos = (201,0);
},
{
name = center;
pos = (147,268);
},
{
name = top;
pos = (147,650);
},
{
name = topright;
pos = (243,546);
}
);
layerId = "30C2FD74-1A74-41AC-9C29-B288AE1DBDD7";
shapes = (
{
closed = 1;
nodes = (
(248,63,l),
(211,63,o),
(184,73,o),
(184,136,cs),
(184,471,l),
(302,471,l),
(302,546,l),
(184,546,l),
(184,672,l),
(109,672,l),
(109,546,l),
(10,546,l),
(10,471,l),
(109,471,l),
(109,136,ls),
(109,29,o),
(169,-12,o),
(253,-12,c)
);
},
{
pos = (247,536);
ref = "_fjrt-arc.comp";
scale = (1,-1);
}
);
width = 359;
},
{
anchors = (
{
name = bottom;
pos = (258,0);
},
{
name = center;
pos = (192,273);
},
{
name = top;
pos = (192,670);
},
{
name = topright;
pos = (331,556);
}
);
layerId = "9398AC28-6BE1-4A79-9C94-3CBC2F226CE7";
shapes = (
{
closed = 1;
nodes = (
(318,118,l),
(288,118,o),
(267,137,o),
(267,187,cs),
(267,426,l),
(395,426,l),
(395,556,l),
(267,556,l),
(267,680,l),
(127,680,l),
(127,556,l),
(15,556,l),
(15,426,l),
(117,426,l),
(117,177,ls),
(117,26,o),
(204,-12,o),
(328,-12,c)
);
},
{
pos = (317,546);
ref = "_fjrt-arc.comp";
scale = (1,-1);
}
);
width = 439;
},
{
.lastUpdate = 795060243.273;
anchors = (
{
name = bottom;
pos = (192,0);
},
{
name = center;
pos = (138,263);
},
{
name = top;
pos = (138,662);
},
{
name = topright;
pos = (217,536);
}
);
layerId = "C1DB0BE6-5704-4A8C-8C00-D80E72C16D98";
shapes = (
{
closed = 1;
nodes = (
(243,33,l),
(167,33,o),
(160,89,o),
(160,126,cs),
(160,496,l),
(284,496,l),
(284,536,l),
(160,536,l),
(160,662,l),
(115,662,l),
(115,536,l),
(15,536,l),
(15,496,l),
(115,496,l),
(115,126,ls),
(115,28,o),
(161,-12,o),
(243,-12,c)
);
},
{
pos = (242,522);
ref = "_fjrt-arc.comp";
scale = (1,-1);
}
);
width = 339;
}
);
metricLeft = "=f";
metricRight = "=f+30";
unicode = 116;
}
{
color = 5;
glyphname = v;
kernLeft = v;
kernRight = v;
lastChange = "2025-06-12 00:18:31 +0000";
layers = (
{
anchors = (
{
name = bottom;
pos = (268,0);
},
{
name = top;
pos = (268,546);
}
);
layerId = "30C2FD74-1A74-41AC-9C29-B288AE1DBDD7";
shapes = (
{
closed = 1;
nodes = (
(304,0,l),
(515,546,l),
(430,546,l),
(253,66,l),
(280,66,l),
(104,546,l),
(20,546,l),
(229,0,l)
);
}
);
width = 535;
},
{
anchors = (
{
name = bottom;
pos = (295,0);
},
{
name = top;
pos = (295,556);
}
);
layerId = "9398AC28-6BE1-4A79-9C94-3CBC2F226CE7";
shapes = (
{
closed = 1;
nodes = (
(360,0,l),
(580,556,l),
(418,556,l),
(264,133,l),
(326,133,l),
(172,556,l),
(10,556,l),
(230,0,l)
);
}
);
width = 590;
},
{
anchors = (
{
name = bottom;
pos = (263,0);
},
{
name = top;
pos = (263,536);
}
);
layerId = "C1DB0BE6-5704-4A8C-8C00-D80E72C16D98";
shapes = (
{
closed = 1;
nodes = (
(285,0,l),
(500,536,l),
(448,536,l),
(252,39,l),
(271,39,l),
(76,536,l),
(25,536,l),
(237,0,l)
);
}
);
width = 525;
}
);
metricLeft = "=V";
metricRight = "=V";
unicode = 118;
}
{
color = 5;
glyphname = w;
kernLeft = w;
kernRight = w;
lastChange = "2025-08-10 22:10:12 +0000";
layers = (
{
anchors = (
{
name = bottom;
pos = (408,0);
},
{
name = top;
pos = (408,546);
}
);
guides = (
{
angle = 90;
pos = (408,552);
}
);
layerId = "30C2FD74-1A74-41AC-9C29-B288AE1DBDD7";
shapes = (
{
closed = 1;
nodes = (
(269,0,l),
(418,469,l),
(397,469,l),
(546,0,l),
(621,0,l),
(795,546,l),
(711,546,l),
(568,67,l),
(598,67,l),
(445,546,l),
(370,546,l),
(217,67,l),
(247,67,l),
(105,546,l),
(20,546,l),
(194,0,l)
);
}
);
width = 815;
},
{
anchors = (
{
name = bottom;
pos = (445,0);
},
{
name = top;
pos = (445,556);
}
);
guides = (
{
angle = 90;
pos = (445,591);
}
);
layerId = "9398AC28-6BE1-4A79-9C94-3CBC2F226CE7";
shapes = (
{
closed = 1;
nodes = (
(323,0,l),
(471,432,l),
(419,432,l),
(566,0,l),
(696,0,l),
(880,556,l),
(724,556,l),
(597,152,l),
(651,153,l),
(510,556,l),
(380,556,l),
(238,153,l),
(292,152,l),
(165,556,l),
(10,556,l),
(193,0,l)
);
}
);
width = 890;
},
{
anchors = (
{
name = bottom;
pos = (378,0);
},
{
name = top;
pos = (378,536);
}
);
guides = (
{
angle = 90;
pos = (377,551);
}
);
layerId = "C1DB0BE6-5704-4A8C-8C00-D80E72C16D98";
shapes = (
{
closed = 1;
nodes = (
(228,0,l),
(381,479,l),
(373,479,l),
(526,0,l),
(574,0,l),
(730,536,l),
(680,536,l),
(538,33,l),
(560,33,l),
(401,536,l),
(353,536,l),
(194,33,l),
(215,33,l),
(75,536,l),
(25,536,l),
(180,0,l)
);
}
);
width = 755;
}
);
metricLeft = "=V";
metricRight = "=V";
unicode = 119;
}
{
color = 5;
glyphname = x;
kernLeft = x;
kernRight = x;
lastChange = "2025-06-10 01:48:23 +0000";
layers = (
{
anchors = (
{
name = bottom;
pos = (257,0);
},
{
name = top;
pos = (257,546);
}
);
guides = (
{
angle = 90;
pos = (258,218);
}
);
layerId = "30C2FD74-1A74-41AC-9C29-B288AE1DBDD7";
shapes = (
{
closed = 1;
nodes = (
(112,0,l),
(283,246,l),
(232,246,l),
(402,0,l),
(494,0,l),
(302,273,l),
(494,546,l),
(402,546,l),
(232,300,l),
(283,300,l),
(112,546,l),
(20,546,l),
(212,273,l),
(20,0,l)
);
}
);
width = 514;
},
{
anchors = (
{
name = bottom;
pos = (295,0);
},
{
name = top;
pos = (295,556);
}
);
guides = (
{
angle = 90;
pos = (295,218);
}
);
layerId = "9398AC28-6BE1-4A79-9C94-3CBC2F226CE7";
shapes = (
{
closed = 1;
nodes = (
(184,0,l),
(331,217,l),
(259,217,l),
(406,0,l),
(580,0,l),
(383,279,l),
(580,556,l),
(406,556,l),
(257,339,l),
(333,339,l),
(184,556,l),
(10,556,l),
(207,279,l),
(10,0,l)
);
}
);
width = 590;
},
{
anchors = (
{
name = bottom;
pos = (243,0);
},
{
name = top;
pos = (243,536);
}
);
guides = (
{
angle = 90;
pos = (244,218);
}
);
layerId = "C1DB0BE6-5704-4A8C-8C00-D80E72C16D98";
shapes = (
{
closed = 1;
nodes = (
(83,0,l),
(263,255,l),
(224,255,l),
(404,0,l),
(462,0,l),
(272,268,l),
(462,536,l),
(404,536,l),
(224,281,l),
(263,281,l),
(83,536,l),
(25,536,l),
(215,268,l),
(25,0,l)
);
}
);
width = 487;
}
);
metricLeft = "=V";
metricRight = "=V";
unicode = 120;
}
{
color = 5;
glyphname = y;
kernLeft = y;
kernRight = v;
lastChange = "2025-06-10 01:49:19 +0000";
layers = (
{
anchors = (
{
name = bottom;
pos = (500,100);
},
{
name = top;
pos = (282,546);
}
);
layerId = "30C2FD74-1A74-41AC-9C29-B288AE1DBDD7";
shapes = (
{
closed = 1;
nodes = (
(224,-240,l),
(544,546,l),
(461,546,l),
(271,67,l),
(292,67,l),
(101,546,l),
(20,546,l),
(252,-32,l),
(254,34,l),
(141,-240,l)
);
}
);
width = 559;
},
{
anchors = (
{
name = bottom;
pos = (556,100);
},
{
name = top;
pos = (305,556);
}
);
layerId = "9398AC28-6BE1-4A79-9C94-3CBC2F226CE7";
shapes = (
{
closed = 1;
nodes = (
(285,-240,l),
(600,556,l),
(439,556,l),
(275,113,l),
(335,113,l),
(171,556,l),
(10,556,l),
(255,-63,l),
(251,62,l),
(132,-240,l)
);
}
);
width = 605;
},
{
anchors = (
{
name = bottom;
pos = (481,100);
},
{
name = top;
pos = (267,536);
}
);
layerId = "C1DB0BE6-5704-4A8C-8C00-D80E72C16D98";
shapes = (
{
closed = 1;
nodes = (
(191,-240,l),
(514,536,l),
(462,536,l),
(254,30,l),
(283,30,l),
(77,536,l),
(25,536,l),
(253,-24,l),
(249,22,l),
(139,-240,l)
);
}
);
width = 534;
}
);
metricLeft = "=V";
metricRight = "=V-5";
unicode = 121;
}
{
color = 5;
glyphname = z;
kernLeft = z;
kernRight = z;
lastChange = "2025-06-12 00:16:09 +0000";
layers = (
{
anchors = (
{
name = bottom;
pos = (247,0);
},
{
name = center;
pos = (253,273);
},
{
name = top;
pos = (253,546);
}
);
layerId = "30C2FD74-1A74-41AC-9C29-B288AE1DBDD7";
shapes = (
{
closed = 1;
nodes = (
(465,0,l),
(465,75,l),
(107,75,l),
(121,46,l),
(465,481,l),
(465,546,l),
(40,546,l),
(40,471,l),
(399,471,l),
(385,500,l),
(40,65,l),
(40,0,l)
);
}
);
width = 505;
},
{
anchors = (
{
name = bottom;
pos = (266,0);
},
{
name = center;
pos = (260,278);
},
{
name = top;
pos = (266,556);
}
);
layerId = "9398AC28-6BE1-4A79-9C94-3CBC2F226CE7";
shapes = (
{
closed = 1;
nodes = (
(485,0,l),
(485,130,l),
(166,130,l),
(188,79,l),
(485,436,l),
(485,556,l),
(35,556,l),
(35,426,l),
(361,426,l),
(339,476,l),
(35,120,l),
(35,0,l)
);
}
);
width = 520;
},
{
anchors = (
{
name = bottom;
pos = (245,0);
},
{
name = center;
pos = (250,268);
},
{
name = top;
pos = (245,536);
}
);
layerId = "C1DB0BE6-5704-4A8C-8C00-D80E72C16D98";
shapes = (
{
closed = 1;
nodes = (
(450,0,l),
(450,40,l),
(74,40,l),
(89,10,l),
(450,506,l),
(450,536,l),
(50,536,l),
(50,496,l),
(425,496,l),
(410,526,l),
(50,30,l),
(50,0,l)
);
}
);
width = 500;
}
);
metricLeft = "=a";
metricRight = "=|a";
unicode = 122;
}
{
glyphname = braceleft;
lastChange = "2021-11-10 04:04:52 +0000";
layers = (
{
layerId = "30C2FD74-1A74-41AC-9C29-B288AE1DBDD7";
shapes = (
{
closed = 1;
nodes = (
(290,-140,l),
(290,-70,l),
(256,-70,ls),
(216,-70,o),
(190,-41,o),
(192,1,cs),
(192,192,ls),
(194,235,o),
(176,276,o),
(144,302,c),
(178,331,o),
(195,370,o),
(192,414,cs),
(192,604,ls),
(190,646,o),
(216,675,o),
(256,675,cs),
(290,675,l),
(290,745,l),
(256,745,ls),
(170,745,o),
(112,689,o),
(112,604,cs),
(112,410,ls),
(112,366,o),
(92,337,o),
(48,337,cs),
(20,337,l),
(20,267,l),
(48,267,ls),
(92,267,o),
(112,238,o),
(112,194,cs),
(112,1,ls),
(112,-84,o),
(170,-140,o),
(256,-140,cs)
);
}
);
width = 317;
},
{
layerId = "9398AC28-6BE1-4A79-9C94-3CBC2F226CE7";
shapes = (
{
closed = 1;
nodes = (
(366,-180,l),
(366,-50,l),
(316,-50,ls),
(292,-50,o),
(278,-35,o),
(278,-9,cs),
(278,155,ls),
(278,210,o),
(255,255,o),
(215,278,c),
(255,304,o),
(278,352,o),
(278,409,cs),
(278,574,ls),
(278,600,o),
(292,615,o),
(316,615,cs),
(366,615,l),
(366,745,l),
(316,745,ls),
(195,745,o),
(128,683,o),
(128,578,cs),
(128,395,ls),
(128,361,o),
(110,341,o),
(80,341,cs),
(48,341,l),
(48,211,l),
(80,211,ls),
(110,211,o),
(128,191,o),
(128,157,cs),
(128,-13,ls),
(128,-118,o),
(195,-180,o),
(316,-180,cs)
);
}
);
width = 425;
},
{
layerId = "C1DB0BE6-5704-4A8C-8C00-D80E72C16D98";
shapes = (
{
closed = 1;
nodes = (
(268,-130,l),
(268,-85,l),
(240,-85,ls),
(194,-85,o),
(166,-49,o),
(166,-1,cs),
(166,203,ls),
(166,237,o),
(157,278,o),
(126,308,c),
(157,338,o),
(166,372,o),
(166,412,cs),
(166,616,ls),
(166,664,o),
(194,700,o),
(240,700,cs),
(268,700,l),
(268,745,l),
(240,745,ls),
(168,745,o),
(116,691,o),
(116,614,cs),
(116,412,ls),
(116,364,o),
(95,331,o),
(45,331,cs),
(18,331,l),
(18,285,l),
(45,285,ls),
(95,285,o),
(116,252,o),
(116,205,cs),
(116,1,ls),
(116,-76,o),
(168,-130,o),
(240,-130,cs)
);
}
);
width = 291;
}
);
unicode = 123;
}
{
glyphname = bar;
lastChange = "2025-06-05 02:13:29 +0000";
layers = (
{
layerId = "30C2FD74-1A74-41AC-9C29-B288AE1DBDD7";
shapes = (
{
closed = 1;
nodes = (
(170,-190,l),
(170,845,l),
(90,845,l),
(90,-190,l)
);
}
);
width = 260;
},
{
layerId = "9398AC28-6BE1-4A79-9C94-3CBC2F226CE7";
shapes = (
{
closed = 1;
nodes = (
(230,-190,l),
(230,845,l),
(80,845,l),
(80,-190,l)
);
}
);
width = 310;
},
{
layerId = "C1DB0BE6-5704-4A8C-8C00-D80E72C16D98";
shapes = (
{
closed = 1;
nodes = (
(150,-190,l),
(150,845,l),
(100,845,l),
(100,-190,l)
);
}
);
width = 250;
}
);
metricLeft = "=I";
metricRight = "=I";
unicode = 124;
}
{
glyphname = braceright;
lastChange = "2021-11-10 04:04:52 +0000";
layers = (
{
layerId = "30C2FD74-1A74-41AC-9C29-B288AE1DBDD7";
shapes = (
{
closed = 1;
nodes = (
(61,-140,ls),
(147,-140,o),
(205,-84,o),
(205,1,cs),
(205,194,ls),
(205,238,o),
(225,267,o),
(269,267,cs),
(297,267,l),
(297,337,l),
(269,337,ls),
(225,337,o),
(205,366,o),
(205,410,cs),
(205,604,ls),
(205,689,o),
(147,745,o),
(61,745,cs),
(27,745,l),
(27,675,l),
(61,675,ls),
(101,675,o),
(127,646,o),
(125,604,cs),
(125,414,ls),
(122,370,o),
(139,331,o),
(173,302,c),
(141,276,o),
(123,235,o),
(125,192,cs),
(125,1,ls),
(127,-41,o),
(101,-70,o),
(61,-70,cs),
(27,-70,l),
(27,-140,l)
);
}
);
width = 317;
},
{
layerId = "9398AC28-6BE1-4A79-9C94-3CBC2F226CE7";
shapes = (
{
closed = 1;
nodes = (
(109,-180,ls),
(230,-180,o),
(297,-118,o),
(297,-13,cs),
(297,157,ls),
(297,191,o),
(315,211,o),
(345,211,cs),
(377,211,l),
(377,341,l),
(345,341,ls),
(315,341,o),
(297,361,o),
(297,395,cs),
(297,578,ls),
(297,683,o),
(230,745,o),
(109,745,cs),
(59,745,l),
(59,615,l),
(109,615,ls),
(133,615,o),
(147,600,o),
(147,574,cs),
(147,409,ls),
(147,352,o),
(170,304,o),
(210,278,c),
(170,255,o),
(147,210,o),
(147,155,cs),
(147,-9,ls),
(147,-35,o),
(133,-50,o),
(109,-50,cs),
(59,-50,l),
(59,-180,l)
);
}
);
width = 425;
},
{
layerId = "C1DB0BE6-5704-4A8C-8C00-D80E72C16D98";
shapes = (
{
closed = 1;
nodes = (
(51,-130,ls),
(123,-130,o),
(175,-76,o),
(175,1,cs),
(175,205,ls),
(175,252,o),
(196,285,o),
(246,285,cs),
(273,285,l),
(273,331,l),
(246,331,ls),
(196,331,o),
(175,364,o),
(175,412,cs),
(175,614,ls),
(175,691,o),
(123,745,o),
(51,745,cs),
(23,745,l),
(23,700,l),
(51,700,ls),
(97,700,o),
(125,664,o),
(125,616,cs),
(125,412,ls),
(125,372,o),
(134,338,o),
(165,308,c),
(134,278,o),
(125,237,o),
(125,203,cs),
(125,-1,ls),
(125,-49,o),
(97,-85,o),
(51,-85,cs),
(23,-85,l),
(23,-130,l)
);
}
);
width = 291;
}
);
metricLeft = "=|braceleft";
metricRight = "=|braceleft";
unicode = 125;
}
{
glyphname = asciitilde;
lastChange = "2021-11-10 09:11:37 +0000";
layers = (
{
layerId = "30C2FD74-1A74-41AC-9C29-B288AE1DBDD7";
shapes = (
{
closed = 1;
nodes = (
(474,220,o),
(518,267,o),
(526,357,c),
(459,357,l),
(451,310,o),
(427,290,o),
(393,290,cs),
(328,290,o),
(299,360,o),
(211,360,cs),
(139,360,o),
(89,313,o),
(81,223,c),
(148,223,l),
(155,266,o),
(181,290,o),
(220,290,cs),
(285,290,o),
(314,220,o),
(402,220,cs)
);
}
);
width = 606;
},
{
layerId = "9398AC28-6BE1-4A79-9C94-3CBC2F226CE7";
shapes = (
{
closed = 1;
nodes = (
(529,180,o),
(581,243,o),
(588,362,c),
(469,362,l),
(462,319,o),
(444,303,o),
(417,303,cs),
(365,303,o),
(337,367,o),
(246,367,cs),
(151,367,o),
(97,304,o),
(90,185,c),
(210,185,l),
(215,225,o),
(234,244,o),
(263,244,cs),
(316,244,o),
(343,180,o),
(435,180,cs)
);
}
);
width = 678;
},
{
layerId = "C1DB0BE6-5704-4A8C-8C00-D80E72C16D98";
shapes = (
{
closed = 1;
nodes = (
(452,203,o),
(506,242,o),
(509,324,c),
(466,324,l),
(459,264,o),
(431,248,o),
(395,248,cs),
(320,248,o),
(292,330,o),
(204,330,cs),
(144,330,o),
(90,291,o),
(87,209,c),
(130,209,l),
(137,269,o),
(165,285,o),
(201,285,cs),
(276,285,o),
(304,203,o),
(392,203,cs)
);
}
);
width = 596;
}
);
metricWidth = "=plus";
unicode = 126;
}
{
color = 4;
glyphname = cent;
kernLeft = o;
kernRight = c;
lastChange = "2025-06-11 01:22:18 +0000";
layers = (
{
layerId = "30C2FD74-1A74-41AC-9C29-B288AE1DBDD7";
shapes = (
{
closed = 1;
nodes = (
(330,0,l),
(330,745,l),
(260,745,l),
(260,0,l)
);
},
{
pos = (0,106);
ref = c;
}
);
width = 565;
},
{
layerId = "9398AC28-6BE1-4A79-9C94-3CBC2F226CE7";
shapes = (
{
closed = 1;
nodes = (
(357,0,l),
(357,745,l),
(267,745,l),
(267,0,l)
);
},
{
pos = (0,100);
ref = c;
}
);
width = 595;
},
{
layerId = "C1DB0BE6-5704-4A8C-8C00-D80E72C16D98";
shapes = (
{
closed = 1;
nodes = (
(319,0,l),
(319,745,l),
(274,745,l),
(274,0,l)
);
},
{
pos = (0,110);
ref = c;
}
);
width = 575;
}
);
metricLeft = "=c";
metricRight = "=c";
unicode = 162;
}
{
color = 4;
glyphname = sterling;
lastChange = "2025-03-19 17:59:01 +0000";
layers = (
{
layerId = "30C2FD74-1A74-41AC-9C29-B288AE1DBDD7";
shapes = (
{
closed = 1;
nodes = (
(518,365,l),
(518,430,l),
(68,430,l),
(68,365,l)
);
},
{
pos = (45,0);
ref = _sterling_l;
}
);
width = 737;
},
{
layerId = "9398AC28-6BE1-4A79-9C94-3CBC2F226CE7";
shapes = (
{
closed = 1;
nodes = (
(583,341,l),
(583,451,l),
(59,451,l),
(59,341,l)
);
},
{
pos = (40,0);
ref = _sterling_l;
}
);
width = 785;
},
{
layerId = "C1DB0BE6-5704-4A8C-8C00-D80E72C16D98";
shapes = (
{
closed = 1;
nodes = (
(474,376,l),
(474,421,l),
(64,421,l),
(64,376,l)
);
},
{
pos = (50,0);
ref = _sterling_l;
}
);
width = 724;
}
);
metricLeft = "=H/2";
metricRight = "=H/2";
unicode = 163;
}
{
color = 4;
glyphname = currency;
kernLeft = o;
kernRight = o;
lastChange = "2025-06-05 19:37:36 +0000";
layers = (
{
layerId = "30C2FD74-1A74-41AC-9C29-B288AE1DBDD7";
shapes = (
{
closed = 1;
nodes = (
(165,106,l),
(195,85,o),
(243,69,o),
(279,69,cs),
(315,69,o),
(364,85,o),
(393,106,c),
(469,30,l),
(518,79,l),
(442,155,l),
(463,184,o),
(479,233,o),
(479,269,cs),
(479,304,o),
(463,353,o),
(442,383,c),
(518,459,l),
(469,508,l),
(393,432,l),
(363,453,o),
(314,469,o),
(279,469,cs),
(244,469,o),
(195,453,o),
(165,432,c),
(89,508,l),
(40,459,l),
(116,383,l),
(95,353,o),
(79,304,o),
(79,269,cs),
(79,233,o),
(95,184,o),
(116,155,c),
(40,79,l),
(89,30,l)
);
},
{
closed = 1;
nodes = (
(208,145,o),
(154,198,o),
(154,269,cs),
(154,340,o),
(208,394,o),
(279,394,cs),
(350,394,o),
(403,340,o),
(403,269,cs),
(403,198,o),
(350,145,o),
(279,145,cs)
);
}
);
width = 558;
},
{
layerId = "9398AC28-6BE1-4A79-9C94-3CBC2F226CE7";
shapes = (
{
closed = 1;
nodes = (
(200,83,l),
(227,69,o),
(270,58,o),
(300,58,cs),
(331,58,o),
(374,69,o),
(401,83,c),
(480,4,l),
(565,89,l),
(486,168,l),
(500,195,o),
(511,238,o),
(511,269,cs),
(511,299,o),
(500,342,o),
(486,369,c),
(565,449,l),
(480,534,l),
(401,454,l),
(375,469,o),
(331,480,o),
(300,480,cs),
(269,480,o),
(226,469,o),
(200,454,c),
(120,534,l),
(35,449,l),
(115,369,l),
(100,343,o),
(89,300,o),
(89,269,cs),
(89,238,o),
(100,194,o),
(115,168,c),
(35,89,l),
(120,4,l)
);
},
{
closed = 1;
nodes = (
(254,188,o),
(219,223,o),
(219,269,cs),
(219,315,o),
(254,350,o),
(300,350,cs),
(346,350,o),
(381,315,o),
(381,269,cs),
(381,223,o),
(346,188,o),
(300,188,cs)
);
}
);
width = 600;
},
{
layerId = "C1DB0BE6-5704-4A8C-8C00-D80E72C16D98";
shapes = (
{
closed = 1;
nodes = (
(155,117,l),
(186,93,o),
(237,75,o),
(276,75,cs),
(314,75,o),
(366,93,o),
(397,117,c),
(471,43,l),
(502,75,l),
(429,149,l),
(452,180,o),
(470,232,o),
(470,269,cs),
(470,305,o),
(452,357,o),
(429,390,c),
(502,465,l),
(471,495,l),
(397,421,l),
(363,446,o),
(311,465,o),
(276,465,cs),
(240,465,o),
(188,446,o),
(155,421,c),
(81,495,l),
(50,465,l),
(124,390,l),
(100,357,o),
(82,306,o),
(82,269,cs),
(82,231,o),
(100,180,o),
(124,149,c),
(50,75,l),
(81,43,l)
);
},
{
closed = 1;
nodes = (
(191,123,o),
(127,186,o),
(127,269,cs),
(127,353,o),
(191,416,o),
(276,416,cs),
(361,416,o),
(424,353,o),
(424,269,cs),
(424,186,o),
(361,123,o),
(276,123,cs)
);
}
);
width = 552;
}
);
metricLeft = "=a";
metricRight = "=|a";
unicode = 164;
}
{
color = 4;
glyphname = yen;
kernLeft = Y;
kernRight = Y;
lastChange = "2026-01-15 20:46:24 +0000";
layers = (
{
guides = (
{
angle = 90;
pos = (321,398);
}
);
layerId = "30C2FD74-1A74-41AC-9C29-B288AE1DBDD7";
shapes = (
{
closed = 1;
nodes = (
(531,308,l),
(531,373,l),
(112,373,l),
(112,308,l)
);
},
{
closed = 1;
nodes = (
(531,153,l),
(531,218,l),
(112,218,l),
(112,153,l)
);
},
{
ref = Y;
}
);
width = 641;
},
{
guides = (
{
angle = 90;
pos = (335,398);
}
);
layerId = "9398AC28-6BE1-4A79-9C94-3CBC2F226CE7";
shapes = (
{
closed = 1;
nodes = (
(587,282,l),
(587,372,l),
(83,372,l),
(83,282,l)
);
},
{
closed = 1;
nodes = (
(587,142,l),
(587,232,l),
(83,232,l),
(83,142,l)
);
},
{
ref = Y;
}
);
width = 670;
},
{
layerId = "C1DB0BE6-5704-4A8C-8C00-D80E72C16D98";
shapes = (
{
closed = 1;
nodes = (
(521,296,l),
(521,341,l),
(111,341,l),
(111,296,l)
);
},
{
closed = 1;
nodes = (
(521,153,l),
(521,198,l),
(111,198,l),
(111,153,l)
);
},
{
ref = Y;
}
);
width = 630;
}
);
metricLeft = "=Y";
metricRight = "=Y";
unicode = 165;
}
{
glyphname = brokenbar;
lastChange = "2021-11-10 04:04:52 +0000";
layers = (
{
layerId = "30C2FD74-1A74-41AC-9C29-B288AE1DBDD7";
shapes = (
{
closed = 1;
nodes = (
(190,428,l),
(190,845,l),
(110,845,l),
(110,428,l)
);
},
{
closed = 1;
nodes = (
(190,-190,l),
(190,228,l),
(110,228,l),
(110,-190,l)
);
}
);
width = 300;
},
{
layerId = "9398AC28-6BE1-4A79-9C94-3CBC2F226CE7";
shapes = (
{
closed = 1;
nodes = (
(288,428,l),
(288,845,l),
(138,845,l),
(138,428,l)
);
},
{
closed = 1;
nodes = (
(288,-190,l),
(288,228,l),
(138,228,l),
(138,-190,l)
);
}
);
width = 426;
},
{
layerId = "C1DB0BE6-5704-4A8C-8C00-D80E72C16D98";
shapes = (
{
closed = 1;
nodes = (
(160,428,l),
(160,845,l),
(110,845,l),
(110,428,l)
);
},
{
closed = 1;
nodes = (
(160,-190,l),
(160,228,l),
(110,228,l),
(110,-190,l)
);
}
);
width = 270;
}
);
unicode = 166;
}
{
glyphname = section;
kernLeft = s;
kernRight = s;
lastChange = "2025-06-11 01:23:02 +0000";
layers = (
{
layerId = "30C2FD74-1A74-41AC-9C29-B288AE1DBDD7";
shapes = (
{
closed = 1;
nodes = (
(387,-105,o),
(470,-37,o),
(470,56,cs),
(470,132,o),
(415,190,o),
(325,217,cs),
(231,245,ls),
(199,254,o),
(147,276,o),
(147,339,cs),
(147,395,o),
(189,436,o),
(253,436,c),
(256,486,l),
(151,486,o),
(67,421,o),
(67,323,cs),
(67,253,o),
(111,199,o),
(214,169,cs),
(296,145,ls),
(332,135,o),
(391,113,o),
(391,56,cs),
(391,2,o),
(338,-35,o),
(270,-35,cs),
(199,-35,o),
(138,8,o),
(105,78,c),
(40,47,l),
(76,-46,o),
(161,-105,o),
(270,-105,cs)
);
},
{
closed = 1;
nodes = (
(387,166,o),
(470,234,o),
(470,327,cs),
(470,403,o),
(415,461,o),
(325,488,cs),
(231,516,ls),
(199,525,o),
(147,544,o),
(147,600,cs),
(147,650,o),
(189,687,o),
(253,687,cs),
(317,687,o),
(373,649,o),
(402,586,c),
(467,617,l),
(435,704,o),
(350,757,o),
(256,757,cs),
(151,757,o),
(67,692,o),
(67,594,cs),
(67,524,o),
(111,470,o),
(214,440,cs),
(296,416,ls),
(332,405,o),
(391,380,o),
(391,317,cs),
(391,257,o),
(338,216,o),
(270,216,c),
(270,166,l)
);
}
);
width = 510;
},
{
layerId = "9398AC28-6BE1-4A79-9C94-3CBC2F226CE7";
shapes = (
{
closed = 1;
nodes = (
(425,-95,o),
(513,-23,o),
(513,83,cs),
(513,164,o),
(462,223,o),
(366,251,cs),
(291,273,ls),
(234,289,o),
(209,315,o),
(209,354,cs),
(209,397,o),
(235,425,o),
(279,425,c),
(279,506,l),
(152,506,o),
(63,434,o),
(63,328,cs),
(63,248,o),
(115,185,o),
(210,159,cs),
(307,132,ls),
(347,121,o),
(368,103,o),
(368,77,cs),
(368,42,o),
(339,22,o),
(293,22,cs),
(230,22,o),
(176,59,o),
(146,122,c),
(35,70,l),
(69,-31,o),
(169,-95,o),
(293,-95,cs)
);
},
{
closed = 1;
nodes = (
(425,156,o),
(513,228,o),
(513,334,cs),
(513,415,o),
(462,474,o),
(366,502,cs),
(273,529,ls),
(235,540,o),
(209,556,o),
(209,585,cs),
(209,616,o),
(235,636,o),
(279,636,cs),
(335,636,o),
(385,604,o),
(403,555,c),
(515,607,l),
(478,704,o),
(387,757,o),
(279,757,cs),
(152,757,o),
(63,685,o),
(63,579,cs),
(63,499,o),
(115,436,o),
(210,410,cs),
(289,388,ls),
(348,372,o),
(368,343,o),
(368,308,cs),
(368,260,o),
(339,233,o),
(293,233,c),
(293,156,l)
);
}
);
width = 550;
},
{
layerId = "C1DB0BE6-5704-4A8C-8C00-D80E72C16D98";
shapes = (
{
closed = 1;
nodes = (
(376,-90,o),
(455,-24,o),
(455,65,cs),
(455,136,o),
(403,193,o),
(313,218,cs),
(220,244,ls),
(158,261,o),
(126,308,o),
(126,351,cs),
(126,417,o),
(178,466,o),
(249,466,c),
(249,501,l),
(153,501,o),
(78,438,o),
(78,350,cs),
(78,281,o),
(124,219,o),
(213,194,cs),
(305,168,ls),
(372,149,o),
(406,113,o),
(406,63,cs),
(406,-1,o),
(347,-45,o),
(271,-45,cs),
(199,-45,o),
(130,-6,o),
(94,67,c),
(50,47,l),
(85,-34,o),
(169,-90,o),
(268,-90,cs)
);
},
{
closed = 1;
nodes = (
(392,176,o),
(475,242,o),
(475,331,cs),
(475,402,o),
(423,459,o),
(333,484,cs),
(240,510,ls),
(178,527,o),
(146,564,o),
(146,607,cs),
(146,667,o),
(198,712,o),
(269,712,cs),
(334,712,o),
(391,675,o),
(422,612,c),
(468,633,l),
(439,706,o),
(358,757,o),
(270,757,cs),
(172,757,o),
(98,693,o),
(98,606,cs),
(98,537,o),
(144,485,o),
(233,460,cs),
(325,434,ls),
(392,415,o),
(426,379,o),
(426,329,cs),
(426,259,o),
(365,211,o),
(286,211,c),
(286,176,l)
);
}
);
width = 525;
}
);
metricLeft = "=s";
metricRight = "=s";
unicode = 167;
}
{
color = 4;
glyphname = copyright;
kernLeft = copyright;
kernRight = copyright;
lastChange = "2025-03-19 17:59:01 +0000";
layers = (
{
layerId = "30C2FD74-1A74-41AC-9C29-B288AE1DBDD7";
shapes = (
{
closed = 1;
nodes = (
(667,-12,o),
(832,153,o),
(832,373,cs),
(832,592,o),
(667,757,o),
(448,757,cs),
(228,757,o),
(63,592,o),
(63,373,cs),
(63,153,o),
(228,-12,o),
(448,-12,cs)
);
},
{
closed = 1;
nodes = (
(268,58,o),
(133,193,o),
(133,373,cs),
(133,552,o),
(268,687,o),
(448,687,cs),
(627,687,o),
(762,552,o),
(762,373,cs),
(762,193,o),
(627,58,o),
(448,58,cs)
);
},
{
closed = 1;
nodes = (
(529,163,o),
(603,210,o),
(626,272,c),
(561,295,l),
(545,256,o),
(499,227,o),
(454,227,cs),
(379,227,o),
(322,290,o),
(322,373,cs),
(322,456,o),
(379,518,o),
(454,518,cs),
(499,518,o),
(545,489,o),
(561,450,c),
(627,473,l),
(604,535,o),
(530,582,o),
(454,582,cs),
(339,582,o),
(252,492,o),
(252,373,cs),
(252,253,o),
(339,163,o),
(454,163,cs)
);
}
);
width = 895;
},
{
layerId = "9398AC28-6BE1-4A79-9C94-3CBC2F226CE7";
shapes = (
{
closed = 1;
nodes = (
(696,-12,o),
(861,153,o),
(861,374,cs),
(861,593,o),
(696,757,o),
(477,757,cs),
(256,757,o),
(91,593,o),
(91,374,cs),
(91,153,o),
(256,-12,o),
(477,-12,cs)
);
},
{
closed = 1;
nodes = (
(314,88,o),
(191,211,o),
(191,374,cs),
(191,536,o),
(314,658,o),
(477,658,cs),
(639,658,o),
(761,536,o),
(761,374,cs),
(761,211,o),
(639,88,o),
(477,88,cs)
);
},
{
closed = 1;
nodes = (
(564,163,o),
(642,212,o),
(663,277,c),
(562,313,l),
(550,283,o),
(515,261,o),
(481,261,cs),
(424,261,o),
(381,309,o),
(381,373,cs),
(381,436,o),
(424,484,o),
(481,484,cs),
(515,484,o),
(550,462,o),
(562,432,c),
(663,468,l),
(642,533,o),
(564,582,o),
(481,582,cs),
(361,582,o),
(271,492,o),
(271,373,cs),
(271,253,o),
(361,163,o),
(481,163,cs)
);
}
);
width = 952;
},
{
layerId = "C1DB0BE6-5704-4A8C-8C00-D80E72C16D98";
shapes = (
{
closed = 1;
nodes = (
(667,-12,o),
(832,153,o),
(832,373,cs),
(832,592,o),
(667,757,o),
(448,757,cs),
(228,757,o),
(63,592,o),
(63,373,cs),
(63,153,o),
(228,-12,o),
(448,-12,cs)
);
},
{
closed = 1;
nodes = (
(257,36,o),
(113,180,o),
(113,373,cs),
(113,565,o),
(257,709,o),
(448,709,cs),
(639,709,o),
(782,565,o),
(782,373,cs),
(782,180,o),
(639,36,o),
(448,36,cs)
);
},
{
closed = 1;
nodes = (
(526,163,o),
(598,209,o),
(618,270,c),
(572,286,l),
(552,242,o),
(500,209,o),
(451,209,cs),
(367,209,o),
(304,279,o),
(304,373,cs),
(304,466,o),
(367,536,o),
(451,536,cs),
(501,536,o),
(553,503,o),
(572,459,c),
(618,475,l),
(596,536,o),
(525,582,o),
(451,582,cs),
(338,582,o),
(254,492,o),
(254,373,cs),
(254,253,o),
(338,163,o),
(451,163,cs)
);
}
);
width = 895;
}
);
unicode = 169;
}
{
glyphname = ordfeminine;
lastChange = "2025-06-08 18:23:33 +0000";
layers = (
{
layerId = "30C2FD74-1A74-41AC-9C29-B288AE1DBDD7";
shapes = (
{
closed = 1;
nodes = (
(233,361,o),
(282,391,o),
(307,436,c),
(293,439,l),
(293,369,l),
(363,369,l),
(363,608,l),
(290,608,l),
(290,527,ls),
(290,466,o),
(242,420,o),
(178,420,cs),
(143,420,o),
(117,443,o),
(117,481,cs),
(117,509,o),
(140,537,o),
(171,541,cs),
(207,546,o),
(263,538,o),
(301,521,c),
(301,581,l),
(256,603,o),
(201,606,o),
(156,598,cs),
(90,587,o),
(40,535,o),
(40,483,cs),
(40,416,o),
(95,361,o),
(168,361,cs)
);
},
{
closed = 1;
nodes = (
(363,608,l),
(361,700,o),
(302,754,o),
(205,754,cs),
(145,754,o),
(92,723,o),
(66,666,c),
(126,643,l),
(141,676,o),
(174,693,o),
(209,693,cs),
(259,693,o),
(289,661,o),
(290,608,c)
);
}
);
width = 443;
},
{
layerId = "9398AC28-6BE1-4A79-9C94-3CBC2F226CE7";
shapes = (
{
closed = 1;
nodes = (
(232,353,o),
(273,375,o),
(309,426,c),
(281,421,l),
(281,362,l),
(389,362,l),
(389,599,l),
(273,599,l),
(273,513,l),
(273,470,o),
(245,437,o),
(200,437,cs),
(177,437,o),
(155,455,o),
(155,478,cs),
(155,502,o),
(172,523,o),
(199,526,cs),
(224,529,o),
(258,526,o),
(285,513,c),
(285,587,l),
(241,601,o),
(210,605,o),
(173,599,cs),
(86,585,o),
(35,539,o),
(35,475,cs),
(35,405,o),
(86,353,o),
(171,353,cs)
);
},
{
closed = 1;
nodes = (
(389,599,l),
(389,719,o),
(282,755,o),
(216,755,cs),
(141,755,o),
(81,723,o),
(56,661,c),
(150,623,l),
(162,648,o),
(183,662,o),
(211,662,cs),
(249,662,o),
(273,638,o),
(273,599,c)
);
}
);
width = 459;
},
{
layerId = "C1DB0BE6-5704-4A8C-8C00-D80E72C16D98";
shapes = (
{
closed = 1;
nodes = (
(238,367,o),
(294,402,o),
(314,449,c),
(309,452,l),
(309,375,l),
(352,375,l),
(352,611,l),
(309,611,l),
(309,539,ls),
(309,462,o),
(256,405,o),
(185,405,cs),
(134,405,o),
(96,443,o),
(96,493,cs),
(96,535,o),
(139,567,o),
(182,570,cs),
(216,572,o),
(259,565,o),
(320,535,c),
(320,577,l),
(265,603,o),
(218,611,o),
(172,608,cs),
(108,604,o),
(50,553,o),
(50,491,cs),
(50,420,o),
(107,367,o),
(182,367,cs)
);
},
{
closed = 1;
nodes = (
(352,611,l),
(351,702,o),
(297,755,o),
(207,755,cs),
(144,755,o),
(93,722,o),
(69,666,c),
(112,650,l),
(131,690,o),
(166,713,o),
(207,713,cs),
(270,713,o),
(308,675,o),
(309,611,c)
);
}
);
width = 442;
}
);
metricLeft = "=a";
metricRight = "=a";
unicode = 170;
}
{
glyphname = logicalnot;
lastChange = "2021-11-10 09:11:38 +0000";
layers = (
{
layerId = "30C2FD74-1A74-41AC-9C29-B288AE1DBDD7";
shapes = (
{
closed = 1;
nodes = (
(553,40,l),
(553,288,l),
(53,288,l),
(53,213,l),
(478,213,l),
(478,40,l)
);
}
);
width = 606;
},
{
layerId = "9398AC28-6BE1-4A79-9C94-3CBC2F226CE7";
shapes = (
{
closed = 1;
nodes = (
(589,40,l),
(589,313,l),
(89,313,l),
(89,188,l),
(464,188,l),
(464,40,l)
);
}
);
width = 678;
},
{
layerId = "C1DB0BE6-5704-4A8C-8C00-D80E72C16D98";
shapes = (
{
closed = 1;
nodes = (
(548,40,l),
(548,273,l),
(48,273,l),
(48,228,l),
(503,228,l),
(503,40,l)
);
}
);
width = 596;
}
);
metricWidth = "=plus";
unicode = 172;
}
{
color = 4;
glyphname = registered;
kernLeft = copyright;
kernRight = copyright;
lastChange = "2025-03-19 17:59:01 +0000";
layers = (
{
layerId = "30C2FD74-1A74-41AC-9C29-B288AE1DBDD7";
shapes = (
{
closed = 1;
nodes = (
(461,272,o),
(576,387,o),
(576,528,cs),
(576,669,o),
(461,784,o),
(320,784,cs),
(178,784,o),
(63,669,o),
(63,528,cs),
(63,387,o),
(178,272,o),
(320,272,cs)
);
},
{
closed = 1;
nodes = (
(208,330,o),
(121,418,o),
(121,528,cs),
(121,638,o),
(208,726,o),
(320,726,cs),
(429,726,o),
(518,638,o),
(518,528,cs),
(518,416,o),
(429,330,o),
(320,330,cs)
);
},
{
closed = 1;
nodes = (
(282,400,l),
(282,491,l),
(325,491,l),
(375,400,l),
(437,400,l),
(379,501,l),
(407,516,o),
(423,540,o),
(423,575,cs),
(423,628,o),
(385,658,o),
(331,658,cs),
(227,658,l),
(227,400,l)
);
},
{
closed = 1;
nodes = (
(282,608,l),
(331,608,ls),
(352,608,o),
(366,594,o),
(366,575,cs),
(366,556,o),
(352,540,o),
(331,540,cs),
(282,540,l)
);
}
);
width = 639;
},
{
layerId = "9398AC28-6BE1-4A79-9C94-3CBC2F226CE7";
shapes = (
{
closed = 1;
nodes = (
(490,271,o),
(603,387,o),
(603,528,cs),
(603,671,o),
(488,784,o),
(348,784,cs),
(205,784,o),
(91,671,o),
(91,528,cs),
(91,387,o),
(205,271,o),
(348,271,cs)
);
},
{
closed = 1;
nodes = (
(247,346,o),
(165,426,o),
(165,528,cs),
(165,628,o),
(245,711,o),
(348,711,cs),
(446,711,o),
(529,629,o),
(529,528,cs),
(529,427,o),
(448,346,o),
(348,346,cs)
);
},
{
closed = 1;
nodes = (
(318,403,l),
(318,487,l),
(342,487,l),
(387,403,l),
(460,403,l),
(409,493,l),
(435,507,o),
(457,528,o),
(457,568,cs),
(457,628,o),
(415,653,o),
(362,653,cs),
(250,653,l),
(250,403,l)
);
},
{
closed = 1;
nodes = (
(318,591,l),
(364,591,ls),
(378,591,o),
(386,583,o),
(386,569,cs),
(386,557,o),
(378,547,o),
(364,547,cs),
(318,547,l)
);
}
);
width = 694;
},
{
layerId = "C1DB0BE6-5704-4A8C-8C00-D80E72C16D98";
shapes = (
{
closed = 1;
nodes = (
(460,272,o),
(576,386,o),
(576,528,cs),
(576,668,o),
(461,784,o),
(320,784,cs),
(176,784,o),
(63,668,o),
(63,528,cs),
(63,386,o),
(178,272,o),
(320,272,cs)
);
},
{
closed = 1;
nodes = (
(200,315,o),
(107,410,o),
(107,528,cs),
(107,645,o),
(200,740,o),
(320,740,cs),
(437,740,o),
(532,645,o),
(532,528,cs),
(532,410,o),
(437,315,o),
(320,315,cs)
);
},
{
closed = 1;
nodes = (
(278,401,l),
(278,497,l),
(328,497,l),
(380,401,l),
(428,401,l),
(370,502,l),
(404,517,o),
(419,546,o),
(419,577,cs),
(419,627,o),
(382,657,o),
(331,657,cs),
(236,657,l),
(236,401,l)
);
},
{
closed = 1;
nodes = (
(278,619,l),
(331,619,ls),
(359,619,o),
(377,603,o),
(377,577,cs),
(377,551,o),
(359,533,o),
(331,533,cs),
(278,533,l)
);
}
);
width = 639;
}
);
metricLeft = "=copyright";
metricRight = "=copyright";
unicode = 174;
}
{
color = 4;
glyphname = degree;
lastChange = "2025-03-19 17:59:01 +0000";
layers = (
{
layerId = "30C2FD74-1A74-41AC-9C29-B288AE1DBDD7";
shapes = (
{
closed = 1;
nodes = (
(332,440,o),
(401,508,o),
(401,598,cs),
(401,689,o),
(332,757,o),
(241,757,cs),
(150,757,o),
(81,689,o),
(81,598,cs),
(81,508,o),
(150,440,o),
(241,440,cs)
);
},
{
closed = 1;
nodes = (
(185,502,o),
(144,543,o),
(144,598,cs),
(144,653,o),
(185,695,o),
(240,695,cs),
(296,695,o),
(338,653,o),
(338,598,cs),
(338,543,o),
(296,502,o),
(240,502,cs)
);
}
);
width = 482;
},
{
layerId = "9398AC28-6BE1-4A79-9C94-3CBC2F226CE7";
shapes = (
{
closed = 1;
nodes = (
(373,417,o),
(446,490,o),
(446,587,cs),
(446,684,o),
(373,757,o),
(276,757,cs),
(179,757,o),
(106,684,o),
(106,587,cs),
(106,490,o),
(179,417,o),
(276,417,cs)
);
},
{
closed = 1;
nodes = (
(236,517,o),
(206,547,o),
(206,587,cs),
(206,627,o),
(236,657,o),
(276,657,cs),
(316,657,o),
(346,627,o),
(346,587,cs),
(346,547,o),
(316,517,o),
(276,517,cs)
);
}
);
width = 552;
},
{
layerId = "C1DB0BE6-5704-4A8C-8C00-D80E72C16D98";
shapes = (
{
closed = 1;
nodes = (
(297,486,o),
(355,543,o),
(355,620,cs),
(355,698,o),
(297,757,o),
(220,757,cs),
(143,757,o),
(85,699,o),
(85,621,cs),
(85,544,o),
(143,486,o),
(220,486,cs)
);
},
{
closed = 1;
nodes = (
(165,524,o),
(124,566,o),
(124,621,cs),
(124,676,o),
(165,718,o),
(220,718,cs),
(275,718,o),
(316,676,o),
(316,621,cs),
(316,566,o),
(275,524,o),
(220,524,cs)
);
}
);
width = 440;
}
);
unicode = 176;
}
{
glyphname = plusminus;
lastChange = "2021-11-10 09:11:37 +0000";
layers = (
{
layerId = "30C2FD74-1A74-41AC-9C29-B288AE1DBDD7";
shapes = (
{
closed = 1;
nodes = (
(341,145,l),
(341,318,l),
(553,318,l),
(553,393,l),
(341,393,l),
(341,565,l),
(266,565,l),
(266,393,l),
(53,393,l),
(53,318,l),
(266,318,l),
(266,145,l)
);
},
{
closed = 1;
nodes = (
(553,0,l),
(553,75,l),
(53,75,l),
(53,0,l)
);
}
);
width = 606;
},
{
layerId = "9398AC28-6BE1-4A79-9C94-3CBC2F226CE7";
shapes = (
{
closed = 1;
nodes = (
(402,195,l),
(402,333,l),
(589,333,l),
(589,458,l),
(402,458,l),
(402,595,l),
(277,595,l),
(277,458,l),
(89,458,l),
(89,333,l),
(277,333,l),
(277,195,l)
);
},
{
closed = 1;
nodes = (
(589,0,l),
(589,125,l),
(89,125,l),
(89,0,l)
);
}
);
width = 678;
},
{
layerId = "C1DB0BE6-5704-4A8C-8C00-D80E72C16D98";
shapes = (
{
closed = 1;
nodes = (
(321,145,l),
(321,343,l),
(548,343,l),
(548,388,l),
(321,388,l),
(321,585,l),
(276,585,l),
(276,388,l),
(48,388,l),
(48,343,l),
(276,343,l),
(276,145,l)
);
},
{
closed = 1;
nodes = (
(548,0,l),
(548,45,l),
(48,45,l),
(48,0,l)
);
}
);
width = 596;
}
);
metricWidth = "=plus";
unicode = 177;
}
{
color = 4;
glyphname = micro;
lastChange = "2025-06-11 01:23:38 +0000";
layers = (
{
layerId = "30C2FD74-1A74-41AC-9C29-B288AE1DBDD7";
shapes = (
{
closed = 1;
nodes = (
(145,-140,l),
(145,67,l),
(128,46,l),
(161,13,o),
(222,-12,o),
(271,-12,cs),
(340,-12,o),
(410,30,o),
(436,87,c),
(425,102,l),
(425,0,l),
(500,0,l),
(500,536,l),
(425,536,l),
(425,217,ls),
(425,129,o),
(365,63,o),
(284,63,cs),
(205,63,o),
(145,125,o),
(145,207,cs),
(145,536,l),
(70,536,l),
(70,-140,l)
);
}
);
width = 590;
},
{
layerId = "9398AC28-6BE1-4A79-9C94-3CBC2F226CE7";
shapes = (
{
closed = 1;
nodes = (
(210,-140,l),
(210,61,l),
(170,7,l),
(194,-4,o),
(236,-12,o),
(267,-12,cs),
(350,-12,o),
(422,41,o),
(435,111,c),
(420,133,l),
(420,0,l),
(560,0,l),
(560,546,l),
(410,546,l),
(410,227,ls),
(410,168,o),
(367,123,o),
(310,123,cs),
(253,123,o),
(210,168,o),
(210,227,cs),
(210,546,l),
(60,546,l),
(60,-140,l)
);
}
);
width = 640;
},
{
layerId = "C1DB0BE6-5704-4A8C-8C00-D80E72C16D98";
shapes = (
{
closed = 1;
nodes = (
(125,-140,l),
(125,91,l),
(111,75,l),
(142,25,o),
(213,-12,o),
(278,-12,cs),
(354,-12,o),
(427,35,o),
(449,98,c),
(440,113,l),
(440,0,l),
(485,0,l),
(485,526,l),
(440,526,l),
(440,206,ls),
(440,106,o),
(372,31,o),
(282,31,cs),
(192,31,o),
(125,97,o),
(125,186,cs),
(125,526,l),
(80,526,l),
(80,-140,l)
);
}
);
width = 585;
}
);
metricLeft = "=u";
metricRight = "=u";
unicode = 181;
}
{
glyphname = paragraph;
lastChange = "2021-11-10 04:04:52 +0000";
layers = (
{
layerId = "30C2FD74-1A74-41AC-9C29-B288AE1DBDD7";
shapes = (
{
closed = 1;
nodes = (
(288,-100,l),
(288,745,l),
(208,745,ls),
(118,745,o),
(48,673,o),
(48,584,cs),
(48,495,o),
(118,423,o),
(208,423,c),
(208,-100,l)
);
}
);
width = 398;
},
{
layerId = "9398AC28-6BE1-4A79-9C94-3CBC2F226CE7";
shapes = (
{
closed = 1;
nodes = (
(481,-100,l),
(481,745,l),
(326,745,ls),
(178,745,o),
(81,650,o),
(81,508,cs),
(81,366,o),
(178,272,o),
(326,272,c),
(326,-100,l)
);
}
);
width = 619;
},
{
layerId = "C1DB0BE6-5704-4A8C-8C00-D80E72C16D98";
shapes = (
{
closed = 1;
nodes = (
(248,-100,l),
(248,745,l),
(198,745,ls),
(106,745,o),
(48,687,o),
(48,599,cs),
(48,511,o),
(108,453,o),
(198,453,c),
(198,-100,l)
);
}
);
width = 358;
}
);
unicode = 182;
}
{
glyphname = ordmasculine;
lastChange = "2025-06-05 19:08:50 +0000";
layers = (
{
layerId = "30C2FD74-1A74-41AC-9C29-B288AE1DBDD7";
shapes = (
{
closed = 1;
nodes = (
(349,361,o),
(433,445,o),
(433,558,cs),
(433,671,o),
(349,755,o),
(237,755,cs),
(124,755,o),
(40,671,o),
(40,558,cs),
(40,445,o),
(124,361,o),
(237,361,cs)
);
},
{
closed = 1;
nodes = (
(168,430,o),
(117,485,o),
(117,558,cs),
(117,631,o),
(168,686,o),
(237,686,cs),
(305,686,o),
(356,631,o),
(356,558,cs),
(356,485,o),
(305,430,o),
(237,430,cs)
);
}
);
width = 473;
},
{
layerId = "9398AC28-6BE1-4A79-9C94-3CBC2F226CE7";
shapes = (
{
closed = 1;
nodes = (
(361,353,o),
(450,439,o),
(450,554,cs),
(450,669,o),
(361,755,o),
(243,755,cs),
(124,755,o),
(35,669,o),
(35,554,cs),
(35,439,o),
(124,353,o),
(243,353,cs)
);
},
{
closed = 1;
nodes = (
(193,457,o),
(155,499,o),
(155,554,cs),
(155,609,o),
(193,651,o),
(243,651,cs),
(293,651,o),
(330,609,o),
(330,554,cs),
(330,499,o),
(293,457,o),
(243,457,cs)
);
}
);
width = 485;
},
{
layerId = "C1DB0BE6-5704-4A8C-8C00-D80E72C16D98";
shapes = (
{
closed = 1;
nodes = (
(346,367,o),
(427,450,o),
(427,561,cs),
(427,672,o),
(346,755,o),
(239,755,cs),
(131,755,o),
(50,672,o),
(50,561,cs),
(50,450,o),
(131,367,o),
(239,367,cs)
);
},
{
closed = 1;
nodes = (
(157,409,o),
(96,474,o),
(96,561,cs),
(96,648,o),
(157,713,o),
(239,713,cs),
(320,713,o),
(381,648,o),
(381,561,cs),
(381,474,o),
(320,409,o),
(239,409,cs)
);
}
);
width = 477;
}
);
metricLeft = "=o";
metricRight = "=o";
unicode = 186;
}
{
glyphname = AE;
kernLeft = A;
kernRight = E;
lastChange = "2025-06-05 19:08:24 +0000";
layers = (
{
anchors = (
{
name = bottom;
pos = (502,0);
},
{
name = top;
pos = (502,725);
}
);
layerId = "30C2FD74-1A74-41AC-9C29-B288AE1DBDD7";
shapes = (
{
closed = 1;
nodes = (
(104,0,l),
(169,182,l),
(470,182,l),
(470,0,l),
(550,0,l),
(550,725,l),
(292,725,l),
(20,0,l)
);
},
{
closed = 1;
nodes = (
(342,650,l),
(470,650,l),
(470,257,l),
(195,257,l)
);
},
{
pos = (381,0);
ref = E;
}
);
width = 971;
},
{
anchors = (
{
name = bottom;
pos = (496,0);
},
{
name = top;
pos = (496,725);
}
);
layerId = "9398AC28-6BE1-4A79-9C94-3CBC2F226CE7";
shapes = (
{
closed = 1;
nodes = (
(178,0,l),
(228,152,l),
(469,152,l),
(469,0,l),
(624,0,l),
(624,725,l),
(262,725,l),
(10,0,l)
);
},
{
closed = 1;
nodes = (
(377,590,l),
(469,590,l),
(469,287,l),
(271,287,l)
);
},
{
pos = (390,0);
ref = E;
}
);
width = 990;
},
{
anchors = (
{
name = bottom;
pos = (497,0);
},
{
name = top;
pos = (497,725);
}
);
layerId = "C1DB0BE6-5704-4A8C-8C00-D80E72C16D98";
shapes = (
{
closed = 1;
nodes = (
(80,0,l),
(152,197,l),
(475,197,l),
(475,0,l),
(525,0,l),
(525,725,l),
(301,725,l),
(25,0,l)
);
},
{
closed = 1;
nodes = (
(336,680,l),
(475,680,l),
(475,242,l),
(168,242,l)
);
},
{
pos = (376,0);
ref = E;
}
);
width = 976;
}
);
metricLeft = "=A";
metricRight = "=E";
unicode = 198;
}
{
glyphname = multiply;
lastChange = "2021-11-10 09:11:37 +0000";
layers = (
{
layerId = "30C2FD74-1A74-41AC-9C29-B288AE1DBDD7";
shapes = (
{
closed = 1;
nodes = (
(303,165,l),
(468,0,l),
(521,53,l),
(356,218,l),
(520,382,l),
(467,435,l),
(303,271,l),
(139,435,l),
(86,382,l),
(250,218,l),
(85,53,l),
(138,0,l)
);
}
);
width = 606;
},
{
layerId = "9398AC28-6BE1-4A79-9C94-3CBC2F226CE7";
shapes = (
{
closed = 1;
nodes = (
(339,147,l),
(486,0,l),
(574,89,l),
(427,236,l),
(574,382,l),
(485,470,l),
(339,324,l),
(193,470,l),
(104,382,l),
(251,236,l),
(104,89,l),
(192,0,l)
);
}
);
width = 678;
},
{
layerId = "C1DB0BE6-5704-4A8C-8C00-D80E72C16D98";
shapes = (
{
closed = 1;
nodes = (
(298,175,l),
(473,0,l),
(505,31,l),
(330,207,l),
(504,381,l),
(473,413,l),
(298,239,l),
(123,413,l),
(92,381,l),
(266,207,l),
(91,31,l),
(123,0,l)
);
}
);
width = 596;
}
);
metricWidth = "=plus";
unicode = 215;
}
{
glyphname = Thorn;
kernLeft = H;
kernRight = P;
lastChange = "2025-03-31 21:33:30 +0000";
layers = (
{
layerId = "30C2FD74-1A74-41AC-9C29-B288AE1DBDD7";
shapes = (
{
closed = 1;
nodes = (
(140,0,l),
(140,145,l),
(296,145,ls),
(462,145,o),
(560,226,o),
(560,362,cs),
(560,499,o),
(462,580,o),
(296,580,cs),
(140,580,l),
(140,725,l),
(60,725,l),
(60,0,l)
);
},
{
closed = 1;
nodes = (
(140,505,l),
(300,505,ls),
(413,505,o),
(480,452,o),
(480,363,cs),
(480,273,o),
(413,220,o),
(300,220,cs),
(140,220,l)
);
}
);
width = 610;
},
{
layerId = "9398AC28-6BE1-4A79-9C94-3CBC2F226CE7";
shapes = (
{
closed = 1;
nodes = (
(205,0,l),
(205,135,l),
(316,135,ls),
(495,135,o),
(600,219,o),
(600,362,cs),
(600,505,o),
(495,590,o),
(316,590,cs),
(205,590,l),
(205,725,l),
(50,725,l),
(50,0,l)
);
},
{
closed = 1;
nodes = (
(205,455,l),
(317,455,ls),
(397,455,o),
(445,420,o),
(445,362,cs),
(445,304,o),
(397,270,o),
(317,270,cs),
(205,270,l)
);
}
);
width = 640;
},
{
layerId = "C1DB0BE6-5704-4A8C-8C00-D80E72C16D98";
shapes = (
{
closed = 1;
nodes = (
(120,0,l),
(120,150,l),
(314,150,ls),
(449,150,o),
(550,241,o),
(550,362,cs),
(550,484,o),
(449,575,o),
(314,575,cs),
(120,575,l),
(120,725,l),
(70,725,l),
(70,0,l)
);
},
{
closed = 1;
nodes = (
(120,530,l),
(314,530,ls),
(420,530,o),
(500,458,o),
(500,363,cs),
(500,267,o),
(420,195,o),
(314,195,cs),
(120,195,l)
);
}
);
width = 610;
}
);
metricLeft = "=O";
metricRight = "=O-10";
unicode = 222;
}
{
color = 4;
glyphname = germandbls;
kernLeft = I;
kernRight = B;
lastChange = "2025-06-07 18:23:08 +0000";
layers = (
{
layerId = "30C2FD74-1A74-41AC-9C29-B288AE1DBDD7";
shapes = (
{
closed = 1;
nodes = (
(165,-130,l),
(165,540,ls),
(165,632,o),
(218,687,o),
(308,687,cs),
(391,687,o),
(440,640,o),
(440,561,cs),
(440,479,o),
(391,430,o),
(308,430,cs),
(255,430,l),
(255,360,l),
(314,360,ls),
(412,360,o),
(470,306,o),
(470,215,cs),
(470,124,o),
(412,70,o),
(314,70,cs),
(255,70,l),
(255,0,l),
(314,0,ls),
(462,0,o),
(550,80,o),
(550,215,cs),
(550,303,o),
(495,375,o),
(403,409,c),
(408,389,l),
(478,412,o),
(520,478,o),
(520,566,cs),
(520,686,o),
(442,757,o),
(309,757,cs),
(171,757,o),
(90,676,o),
(90,540,cs),
(90,-130,l)
);
}
);
width = 590;
},
{
layerId = "9398AC28-6BE1-4A79-9C94-3CBC2F226CE7";
shapes = (
{
closed = 1;
nodes = (
(230,-150,l),
(230,490,ls),
(230,576,o),
(275,627,o),
(350,627,cs),
(412,627,o),
(449,595,o),
(449,542,cs),
(449,490,o),
(416,460,o),
(360,460,cs),
(310,460,l),
(310,330,l),
(370,330,ls),
(439,330,o),
(480,294,o),
(480,232,cs),
(480,168,o),
(439,130,o),
(370,130,cs),
(310,130,l),
(310,0,l),
(380,0,ls),
(540,0,o),
(635,86,o),
(635,232,cs),
(635,321,o),
(577,392,o),
(478,423,c),
(486,380,l),
(560,405,o),
(604,464,o),
(604,539,cs),
(604,676,o),
(510,757,o),
(350,757,cs),
(180,757,o),
(80,658,o),
(80,490,cs),
(80,-150,l)
);
}
);
width = 670;
},
{
layerId = "C1DB0BE6-5704-4A8C-8C00-D80E72C16D98";
shapes = (
{
closed = 1;
nodes = (
(146,-120,l),
(146,551,ls),
(146,652,o),
(205,712,o),
(306,712,cs),
(402,712,o),
(458,657,o),
(458,565,cs),
(458,472,o),
(400,417,o),
(301,417,cs),
(246,417,l),
(246,372,l),
(308,372,ls),
(422,372,o),
(489,311,o),
(489,208,cs),
(489,106,o),
(424,45,o),
(315,45,cs),
(246,45,l),
(246,0,l),
(315,0,ls),
(456,0,o),
(540,78,o),
(540,209,cs),
(540,305,o),
(476,378,o),
(367,405,c),
(370,387,l),
(457,419,o),
(509,485,o),
(509,565,cs),
(509,686,o),
(434,757,o),
(308,757,cs),
(177,757,o),
(100,680,o),
(100,551,cs),
(100,-120,l)
);
}
);
width = 590;
}
);
metricLeft = "=I";
metricRight = "=s";
unicode = 223;
}
{
glyphname = eth;
kernLeft = o;
kernRight = o;
lastChange = "2025-06-05 19:09:32 +0000";
layers = (
{
layerId = "30C2FD74-1A74-41AC-9C29-B288AE1DBDD7";
shapes = (
{
closed = 1;
nodes = (
(462,-12,o),
(585,82,o),
(585,314,cs),
(585,554,o),
(450,795,o),
(183,795,cs),
(139,795,o),
(93,787,o),
(45,771,c),
(61,704,l),
(101,718,o),
(141,725,o),
(180,725,cs),
(353,725,o),
(497,581,o),
(493,394,c),
(513,438,l),
(467,515,o),
(381,538,o),
(312,538,cs),
(156,538,o),
(40,421,o),
(40,265,cs),
(40,107,o),
(158,-12,o),
(319,-12,cs)
);
},
{
closed = 1;
nodes = (
(208,63,o),
(120,149,o),
(120,264,cs),
(120,375,o),
(201,463,o),
(313,463,cs),
(426,463,o),
(505,375,o),
(505,266,cs),
(505,152,o),
(420,63,o),
(313,63,cs)
);
},
{
closed = 1;
nodes = (
(555,679,l),
(535,739,l),
(237,634,l),
(257,575,l)
);
}
);
width = 625;
},
{
layerId = "9398AC28-6BE1-4A79-9C94-3CBC2F226CE7";
shapes = (
{
closed = 1;
nodes = (
(499,-12,o),
(620,108,o),
(620,335,cs),
(620,581,o),
(465,796,o),
(229,796,cs),
(184,796,o),
(136,788,o),
(86,771,c),
(101,651,l),
(134,661,o),
(167,666,o),
(199,666,cs),
(335,666,o),
(452,587,o),
(461,436,c),
(484,476,l),
(434,524,o),
(389,548,o),
(318,548,cs),
(158,548,o),
(35,428,o),
(35,270,cs),
(35,104,o),
(170,-12,o),
(328,-12,cs)
);
},
{
closed = 1;
nodes = (
(248,123,o),
(190,183,o),
(190,269,cs),
(190,353,o),
(245,413,o),
(328,413,cs),
(413,413,o),
(465,350,o),
(465,269,cs),
(465,185,o),
(409,123,o),
(328,123,cs)
);
},
{
closed = 1;
nodes = (
(601,679,l),
(581,739,l),
(227,615,l),
(247,555,l)
);
}
);
width = 655;
},
{
layerId = "C1DB0BE6-5704-4A8C-8C00-D80E72C16D98";
shapes = (
{
closed = 1;
nodes = (
(466,-12,o),
(582,93,o),
(582,301,cs),
(582,532,o),
(439,796,o),
(180,796,cs),
(141,796,o),
(102,790,o),
(62,778,c),
(75,731,l),
(111,743,o),
(144,750,o),
(175,750,cs),
(383,750,o),
(532,527,o),
(532,348,c),
(552,364,l),
(502,488,o),
(406,528,o),
(316,528,cs),
(161,528,o),
(50,411,o),
(50,259,cs),
(50,106,o),
(163,-12,o),
(319,-12,cs)
);
},
{
closed = 1;
nodes = (
(196,31,o),
(98,129,o),
(98,259,cs),
(98,385,o),
(189,485,o),
(315,485,cs),
(441,485,o),
(532,385,o),
(532,260,cs),
(532,132,o),
(437,31,o),
(315,31,cs)
);
},
{
closed = 1;
nodes = (
(546,694,l),
(531,737,l),
(255,640,l),
(270,598,l)
);
}
);
width = 632;
}
);
metricLeft = "=a";
metricRight = "=|a";
unicode = 240;
}
{
glyphname = divide;
lastChange = "2025-03-19 17:42:05 +0000";
layers = (
{
layerId = "30C2FD74-1A74-41AC-9C29-B288AE1DBDD7";
shapes = (
{
closed = 1;
nodes = (
(553,213,l),
(553,288,l),
(53,288,l),
(53,213,l)
);
},
{
closed = 1;
nodes = (
(343,0,l),
(343,103,l),
(263,103,l),
(263,0,l)
);
},
{
closed = 1;
nodes = (
(343,397,l),
(343,500,l),
(263,500,l),
(263,397,l)
);
}
);
width = 606;
},
{
layerId = "9398AC28-6BE1-4A79-9C94-3CBC2F226CE7";
shapes = (
{
closed = 1;
nodes = (
(589,188,l),
(589,313,l),
(89,313,l),
(89,188,l)
);
},
{
closed = 1;
nodes = (
(414,0,l),
(414,118,l),
(264,118,l),
(264,0,l)
);
},
{
closed = 1;
nodes = (
(414,382,l),
(414,500,l),
(264,500,l),
(264,382,l)
);
}
);
width = 678;
},
{
layerId = "C1DB0BE6-5704-4A8C-8C00-D80E72C16D98";
shapes = (
{
closed = 1;
nodes = (
(548,228,l),
(548,273,l),
(48,273,l),
(48,228,l)
);
},
{
closed = 1;
nodes = (
(326,0,l),
(326,78,l),
(271,78,l),
(271,0,l)
);
},
{
closed = 1;
nodes = (
(326,422,l),
(326,500,l),
(271,500,l),
(271,422,l)
);
}
);
width = 596;
}
);
metricWidth = "=plus";
unicode = 247;
}
{
glyphname = thorn;
kernLeft = h;
kernRight = o;
lastChange = "2025-06-10 01:57:26 +0000";
layers = (
{
layerId = "30C2FD74-1A74-41AC-9C29-B288AE1DBDD7";
shapes = (
{
closed = 1;
nodes = (
(165,520,l),
(165,745,l),
(90,745,l),
(90,520,l)
);
},
{
ref = p;
}
);
width = 635;
},
{
layerId = "9398AC28-6BE1-4A79-9C94-3CBC2F226CE7";
shapes = (
{
closed = 1;
nodes = (
(220,531,l),
(220,745,l),
(80,745,l),
(80,531,l)
);
},
{
ref = p;
}
);
width = 670;
},
{
.lastUpdate = 795060243.274;
layerId = "C1DB0BE6-5704-4A8C-8C00-D80E72C16D98";
shapes = (
{
closed = 1;
nodes = (
(145,513,l),
(145,745,l),
(100,745,l),
(100,513,l)
);
},
{
ref = p;
}
);
width = 640;
}
);
metricLeft = "=I";
metricRight = "=|a";
unicode = 254;
}
{
glyphname = idotless;
kernLeft = i;
kernRight = i;
lastChange = "2025-06-10 01:58:06 +0000";
layers = (
{
anchors = (
{
name = bottom;
pos = (108,0);
},
{
name = ogonek;
pos = (145,0);
},
{
name = top;
pos = (108,546);
}
);
layerId = "30C2FD74-1A74-41AC-9C29-B288AE1DBDD7";
shapes = (
{
closed = 1;
nodes = (
(145,0,l),
(145,546,l),
(70,546,l),
(70,0,l)
);
}
);
width = 215;
},
{
anchors = (
{
name = bottom;
pos = (135,0);
},
{
name = ogonek;
pos = (210,0);
},
{
name = top;
pos = (135,556);
}
);
layerId = "9398AC28-6BE1-4A79-9C94-3CBC2F226CE7";
shapes = (
{
closed = 1;
nodes = (
(210,0,l),
(210,556,l),
(60,556,l),
(60,0,l)
);
}
);
width = 270;
},
{
anchors = (
{
name = bottom;
pos = (103,0);
},
{
name = ogonek;
pos = (125,0);
},
{
name = top;
pos = (102,536);
}
);
layerId = "C1DB0BE6-5704-4A8C-8C00-D80E72C16D98";
shapes = (
{
closed = 1;
nodes = (
(125,0,l),
(125,536,l),
(80,536,l),
(80,0,l)
);
}
);
width = 205;
}
);
metricLeft = "=I-20";
metricRight = "=I-20";
unicode = 305;
}
{
glyphname = kgreenlandic;
kernLeft = n;
kernRight = k;
lastChange = "2025-03-31 21:38:41 +0000";
layers = (
{
layerId = "C1DB0BE6-5704-4A8C-8C00-D80E72C16D98";
shapes = (
{
closed = 1;
nodes = (
(145,0,l),
(145,172,l),
(138,153,l),
(258,275,l),
(227,274,l),
(460,0,l),
(520,0,l),
(277,288,l),
(500,516,l),
(432,516,l),
(115,195,l),
(145,195,l),
(145,516,l),
(100,516,l),
(100,0,l)
);
}
);
width = 530;
},
{
layerId = "30C2FD74-1A74-41AC-9C29-B288AE1DBDD7";
shapes = (
{
closed = 1;
nodes = (
(165,0,l),
(165,187,l),
(140,125,l),
(271,259,l),
(223,263,l),
(450,0,l),
(540,0,l),
(299,287,l),
(521,526,l),
(424,526,l),
(133,222,l),
(165,217,l),
(165,526,l),
(90,526,l),
(90,0,l)
);
}
);
width = 550;
},
{
layerId = "9398AC28-6BE1-4A79-9C94-3CBC2F226CE7";
shapes = (
{
closed = 1;
nodes = (
(230,0,l),
(230,194,l),
(184,107,l),
(325,259,l),
(238,237,l),
(419,0,l),
(589,0,l),
(376,286,l),
(590,536,l),
(405,536,l),
(174,280,l),
(230,262,l),
(230,537,l),
(80,537,l),
(80,0,l)
);
}
);
width = 595;
}
);
metricLeft = "=I";
metricRight = "=f";
unicode = 312;
}
{
color = 0;
glyphname = Eng;
kernLeft = H;
kernRight = H;
lastChange = "2026-03-04 18:08:01 +0000";
layers = (
{
layerId = "C1DB0BE6-5704-4A8C-8C00-D80E72C16D98";
shapes = (
{
closed = 1;
nodes = (
(584,-215,o),
(650,-134,o),
(650,2,c),
(608,2,l),
(608,-103,o),
(552,-165,o),
(471,-165,cs),
(424,-165,o),
(385,-135,o),
(358,-77,c),
(311,-98,l),
(344,-175,o),
(399,-215,o),
(471,-215,cs)
);
},
{
ref = N;
}
);
width = 750;
},
{
layerId = "30C2FD74-1A74-41AC-9C29-B288AE1DBDD7";
shapes = (
{
closed = 1;
nodes = (
(595,-231,o),
(670,-144,o),
(670,2,c),
(590,2,l),
(590,-94,o),
(544,-151,o),
(467,-151,cs),
(416,-151,o),
(379,-120,o),
(349,-53,c),
(274,-86,l),
(313,-185,o),
(374,-231,o),
(467,-231,cs)
);
},
{
ref = N;
}
);
width = 760;
},
{
layerId = "9398AC28-6BE1-4A79-9C94-3CBC2F226CE7";
shapes = (
{
closed = 1;
nodes = (
(639,-226,o),
(726,-142,o),
(730,1,c),
(590,1,l),
(589,-54,o),
(554,-86,o),
(496,-86,cs),
(449,-86,o),
(412,-53,o),
(389,10,c),
(252,-56,l),
(290,-168,o),
(374,-226,o),
(496,-226,cs)
);
},
{
ref = N;
}
);
width = 810;
}
);
metricLeft = "=N";
metricRight = "=N";
unicode = 330;
}
{
glyphname = eng;
kernLeft = n;
kernRight = n;
lastChange = "2021-11-10 04:04:52 +0000";
layers = (
{
layerId = "C1DB0BE6-5704-4A8C-8C00-D80E72C16D98";
shapes = (
{
closed = 1;
nodes = (
(422,-220,o),
(482,-165,o),
(482,-62,cs),
(482,345,ls),
(482,461,o),
(390,538,o),
(284,538,cs),
(200,538,o),
(131,490,o),
(110,420,c),
(122,415,l),
(122,526,l),
(77,526,l),
(77,0,l),
(122,0,l),
(122,320,ls),
(122,417,o),
(180,495,o),
(280,495,cs),
(367,495,o),
(437,435,o),
(437,340,cs),
(437,-62,ls),
(437,-137,o),
(397,-177,o),
(328,-177,cs),
(317,-177,o),
(303,-176,o),
(292,-174,c),
(292,-215,l),
(302,-218,o),
(315,-220,o),
(331,-220,cs)
);
}
);
width = 600;
},
{
layerId = "30C2FD74-1A74-41AC-9C29-B288AE1DBDD7";
shapes = (
{
closed = 1;
nodes = (
(415,-220,o),
(495,-161,o),
(495,-50,cs),
(495,348,ls),
(495,462,o),
(407,548,o),
(294,548,cs),
(214,548,o),
(149,505,o),
(123,436,c),
(140,432,l),
(140,536,l),
(65,536,l),
(65,0,l),
(140,0,l),
(140,319,ls),
(140,415,o),
(199,473,o),
(281,473,cs),
(363,473,o),
(420,416,o),
(420,319,cs),
(420,-50,ls),
(420,-117,o),
(376,-150,o),
(322,-150,cs),
(309,-150,o),
(294,-149,o),
(280,-147,c),
(280,-216,l),
(290,-219,o),
(311,-220,o),
(320,-220,cs)
);
}
);
width = 600;
},
{
layerId = "9398AC28-6BE1-4A79-9C94-3CBC2F226CE7";
shapes = (
{
closed = 1;
nodes = (
(470,-222,o),
(550,-149,o),
(550,-20,cs),
(550,351,ls),
(550,475,o),
(466,558,o),
(343,558,cs),
(267,558,o),
(207,527,o),
(182,462,c),
(190,438,l),
(190,546,l),
(50,546,l),
(50,0,l),
(200,0,l),
(200,319,ls),
(200,382,o),
(241,423,o),
(300,423,cs),
(359,423,o),
(400,382,o),
(400,319,cs),
(400,-20,ls),
(400,-68,o),
(371,-92,o),
(314,-92,cs),
(302,-92,o),
(291,-91,o),
(280,-89,c),
(280,-217,l),
(293,-220,o),
(314,-222,o),
(334,-222,cs)
);
}
);
width = 600;
}
);
unicode = 331;
}
{
glyphname = Schwa;
kernLeft = O;
kernRight = O;
lastChange = "2025-06-12 03:05:10 +0000";
layers = (
{
layerId = "C1DB0BE6-5704-4A8C-8C00-D80E72C16D98";
shapes = (
{
closed = 1;
nodes = (
(682,323,l),
(682,368,l),
(347,368,l),
(347,323,l)
);
},
{
pos = (790,0);
ref = G.cv06;
scale = (-1,1);
}
);
width = 790;
},
{
layerId = "30C2FD74-1A74-41AC-9C29-B288AE1DBDD7";
shapes = (
{
closed = 1;
nodes = (
(681,315,l),
(681,385,l),
(351,385,l),
(351,315,l)
);
},
{
pos = (789,0);
ref = G.cv06;
scale = (-1,1);
}
);
width = 789;
},
{
layerId = "9398AC28-6BE1-4A79-9C94-3CBC2F226CE7";
shapes = (
{
closed = 1;
nodes = (
(613,275,l),
(613,405,l),
(356,405,l),
(356,275,l)
);
},
{
pos = (790,0);
ref = G.cv06;
scale = (-1,1);
}
);
width = 790;
}
);
metricLeft = "=O";
metricRight = "=O";
unicode = 399;
}
{
glyphname = gravecomb;
lastChange = "2025-08-12 00:17:31 +0000";
layers = (
{
anchors = (
{
name = _top;
pos = (307,556);
},
{
name = top;
pos = (231,880);
}
);
layerId = "9398AC28-6BE1-4A79-9C94-3CBC2F226CE7";
shapes = (
{
closed = 1;
nodes = (
(371,670,l),
(283,880,l),
(90,880,l),
(224,670,l)
);
}
);
width = 461;
},
{
anchors = (
{
name = _top;
pos = (235,546);
},
{
name = top;
pos = (178,820);
}
);
layerId = "30C2FD74-1A74-41AC-9C29-B288AE1DBDD7";
shapes = (
{
closed = 1;
nodes = (
(273,650,l),
(186,820,l),
(83,820,l),
(197,650,l)
);
}
);
width = 356;
},
{
anchors = (
{
name = _top;
pos = (304,540);
}
);
associatedMasterId = "C1DB0BE6-5704-4A8C-8C00-D80E72C16D98";
layerId = "B46AEDBD-5DF4-4F7E-84DB-6673ABF1FB60";
name = "Black Italic";
shapes = (
{
closed = 1;
nodes = (
(400,600,l),
(382,784,l),
(169,784,l),
(233,600,l)
);
}
);
width = 390;
},
{
anchors = (
{
name = _top;
pos = (288,520);
}
);
associatedMasterId = "C1DB0BE6-5704-4A8C-8C00-D80E72C16D98";
layerId = "0EBC54A8-15C6-46BB-A30D-B04F95430F38";
name = Italic;
shapes = (
{
closed = 1;
nodes = (
(334,580,l),
(279,730,l),
(186,730,l),
(268,580,l)
);
}
);
width = 352;
},
{
anchors = (
{
name = _top;
pos = (210,536);
},
{
name = top;
pos = (157,820);
}
);
layerId = "C1DB0BE6-5704-4A8C-8C00-D80E72C16D98";
shapes = (
{
closed = 1;
nodes = (
(233,650,l),
(141,820,l),
(80,820,l),
(188,650,l)
);
}
);
width = 313;
},
{
anchors = (
{
name = _top;
pos = (274,515);
}
);
associatedMasterId = "C1DB0BE6-5704-4A8C-8C00-D80E72C16D98";
layerId = "98EF025F-BD4F-44E2-B72D-FAB084232EEA";
name = "Extralight Italic";
shapes = (
{
closed = 1;
nodes = (
(310,593,l),
(246,740,l),
(196,740,l),
(272,593,l)
);
}
);
width = 332;
}
);
metricLeft = "=period";
metricRight = "=period";
unicode = 768;
}
{
glyphname = acutecomb;
lastChange = "2025-08-12 00:17:39 +0000";
layers = (
{
anchors = (
{
name = _top;
pos = (154,556);
},
{
name = top;
pos = (231,880);
}
);
layerId = "9398AC28-6BE1-4A79-9C94-3CBC2F226CE7";
shapes = (
{
closed = 1;
nodes = (
(237,670,l),
(371,880,l),
(178,880,l),
(90,670,l)
);
}
);
width = 461;
},
{
anchors = (
{
name = _top;
pos = (121,546);
},
{
name = top;
pos = (178,820);
}
);
layerId = "30C2FD74-1A74-41AC-9C29-B288AE1DBDD7";
shapes = (
{
closed = 1;
nodes = (
(159,650,l),
(273,820,l),
(170,820,l),
(83,650,l)
);
}
);
width = 356;
},
{
anchors = (
{
name = _top;
pos = (202,540);
}
);
associatedMasterId = "C1DB0BE6-5704-4A8C-8C00-D80E72C16D98";
layerId = "B46AEDBD-5DF4-4F7E-84DB-6673ABF1FB60";
name = "Black Italic";
shapes = (
{
closed = 1;
nodes = (
(297,600,l),
(441,784,l),
(228,784,l),
(130,600,l)
);
}
);
width = 392;
},
{
anchors = (
{
name = _top;
pos = (174,520);
}
);
associatedMasterId = "C1DB0BE6-5704-4A8C-8C00-D80E72C16D98";
layerId = "0EBC54A8-15C6-46BB-A30D-B04F95430F38";
name = Italic;
shapes = (
{
closed = 1;
nodes = (
(220,580,l),
(366,730,l),
(273,730,l),
(154,580,l)
);
}
);
width = 352;
},
{
anchors = (
{
name = _top;
pos = (103,536);
},
{
name = top;
pos = (157,820);
}
);
layerId = "C1DB0BE6-5704-4A8C-8C00-D80E72C16D98";
shapes = (
{
closed = 1;
nodes = (
(125,650,l),
(233,820,l),
(172,820,l),
(80,650,l)
);
}
);
width = 313;
},
{
anchors = (
{
name = _top;
pos = (166,515);
}
);
associatedMasterId = "C1DB0BE6-5704-4A8C-8C00-D80E72C16D98";
layerId = "98EF025F-BD4F-44E2-B72D-FAB084232EEA";
name = "Extralight Italic";
shapes = (
{
closed = 1;
nodes = (
(202,593,l),
(340,740,l),
(289,740,l),
(164,593,l)
);
}
);
width = 330;
}
);
metricLeft = "=period";
metricRight = "=period";
unicode = 769;
}
{
glyphname = circumflexcomb;
lastChange = "2025-08-12 00:17:55 +0000";
layers = (
{
anchors = (
{
name = _top;
pos = (296,556);
},
{
name = top;
pos = (296,790);
}
);
layerId = "9398AC28-6BE1-4A79-9C94-3CBC2F226CE7";
shapes = (
{
closed = 1;
nodes = (
(234,660,l),
(296,780,l),
(358,660,l),
(502,660,l),
(385,860,l),
(206,860,l),
(90,660,l)
);
}
);
width = 592;
},
{
anchors = (
{
name = _top;
pos = (235,546);
},
{
name = top;
pos = (236,760);
}
);
layerId = "30C2FD74-1A74-41AC-9C29-B288AE1DBDD7";
shapes = (
{
closed = 1;
nodes = (
(171,650,l),
(235,761,l),
(300,650,l),
(388,650,l),
(277,820,l),
(193,820,l),
(83,650,l)
);
}
);
width = 471;
},
{
anchors = (
{
name = _top;
pos = (339,540);
}
);
associatedMasterId = "C1DB0BE6-5704-4A8C-8C00-D80E72C16D98";
layerId = "B46AEDBD-5DF4-4F7E-84DB-6673ABF1FB60";
name = "Black Italic";
shapes = (
{
closed = 1;
nodes = (
(298,600,l),
(373,693,l),
(408,600,l),
(571,600,l),
(495,784,l),
(285,784,l),
(130,600,l)
);
}
);
width = 561;
},
{
anchors = (
{
name = _top;
pos = (295,520);
}
);
associatedMasterId = "C1DB0BE6-5704-4A8C-8C00-D80E72C16D98";
layerId = "0EBC54A8-15C6-46BB-A30D-B04F95430F38";
name = Italic;
shapes = (
{
closed = 1;
nodes = (
(236,580,l),
(330,672,l),
(385,580,l),
(462,580,l),
(369,730,l),
(303,730,l),
(154,580,l)
);
}
);
width = 480;
},
{
anchors = (
{
name = _top;
pos = (206,536);
},
{
name = top;
pos = (207,740);
}
);
guides = (
{
angle = 90;
pos = (206,709);
}
);
layerId = "C1DB0BE6-5704-4A8C-8C00-D80E72C16D98";
shapes = (
{
closed = 1;
nodes = (
(131,640,l),
(207,774,l),
(283,640,l),
(334,640,l),
(228,810,l),
(185,810,l),
(80,640,l)
);
}
);
width = 414;
},
{
anchors = (
{
name = _top;
pos = (291,515);
}
);
associatedMasterId = "C1DB0BE6-5704-4A8C-8C00-D80E72C16D98";
layerId = "98EF025F-BD4F-44E2-B72D-FAB084232EEA";
name = "Extralight Italic";
shapes = (
{
closed = 1;
nodes = (
(212,593,l),
(334,705,l),
(408,593,l),
(452,593,l),
(355,740,l),
(319,740,l),
(164,593,l)
);
}
);
width = 474;
}
);
metricLeft = "=period";
metricRight = "=period";
unicode = 770;
}
{
glyphname = macroncomb;
lastChange = "2025-08-12 00:25:23 +0000";
layers = (
{
anchors = (
{
name = _top;
pos = (260,556);
},
{
name = top;
pos = (260,692);
}
);
layerId = "9398AC28-6BE1-4A79-9C94-3CBC2F226CE7";
shapes = (
{
closed = 1;
nodes = (
(430,662,l),
(430,762,l),
(90,762,l),
(90,662,l)
);
}
);
width = 520;
},
{
anchors = (
{
name = _top;
pos = (218,546);
},
{
name = top;
pos = (218,670);
}
);
layerId = "30C2FD74-1A74-41AC-9C29-B288AE1DBDD7";
shapes = (
{
closed = 1;
nodes = (
(353,660,l),
(353,730,l),
(83,730,l),
(83,660,l)
);
}
);
width = 436;
},
{
anchors = (
{
name = _top;
pos = (279,540);
}
);
associatedMasterId = "C1DB0BE6-5704-4A8C-8C00-D80E72C16D98";
layerId = "B46AEDBD-5DF4-4F7E-84DB-6673ABF1FB60";
name = "Black Italic";
shapes = (
{
closed = 1;
nodes = (
(463,640,l),
(489,760,l),
(165,760,l),
(139,640,l)
);
}
);
width = 445;
},
{
anchors = (
{
name = _top;
pos = (269,520);
}
);
associatedMasterId = "C1DB0BE6-5704-4A8C-8C00-D80E72C16D98";
layerId = "0EBC54A8-15C6-46BB-A30D-B04F95430F38";
name = Italic;
shapes = (
{
closed = 1;
nodes = (
(424,650,l),
(435,701,l),
(180,701,l),
(169,650,l)
);
}
);
width = 427;
},
{
anchors = (
{
name = _top;
pos = (205,536);
},
{
name = top;
pos = (205,660);
}
);
layerId = "C1DB0BE6-5704-4A8C-8C00-D80E72C16D98";
shapes = (
{
closed = 1;
nodes = (
(330,660,l),
(330,700,l),
(80,700,l),
(80,660,l)
);
}
);
width = 410;
},
{
anchors = (
{
name = _top;
pos = (266,515);
}
);
associatedMasterId = "C1DB0BE6-5704-4A8C-8C00-D80E72C16D98";
layerId = "98EF025F-BD4F-44E2-B72D-FAB084232EEA";
name = "Extralight Italic";
shapes = (
{
closed = 1;
nodes = (
(414,657,l),
(421,688,l),
(185,688,l),
(178,657,l)
);
}
);
width = 422;
}
);
metricLeft = "=period";
metricRight = "=period";
unicode = 772;
}
{
glyphname = brevecomb;
lastChange = "2025-08-12 00:20:17 +0000";
layers = (
{
anchors = (
{
name = _top;
pos = (305,556);
},
{
name = top;
pos = (305,832);
}
);
layerId = "9398AC28-6BE1-4A79-9C94-3CBC2F226CE7";
shapes = (
{
closed = 1;
nodes = (
(437,662,o),
(517,733,o),
(520,852,c),
(383,852,l),
(379,799,o),
(350,767,o),
(305,767,cs),
(261,767,o),
(232,799,o),
(228,852,c),
(90,852,l),
(94,733,o),
(174,662,o),
(305,662,cs)
);
}
);
width = 610;
},
{
anchors = (
{
name = _top;
pos = (241,546);
},
{
name = top;
pos = (241,810);
}
);
layerId = "30C2FD74-1A74-41AC-9C29-B288AE1DBDD7";
shapes = (
{
closed = 1;
nodes = (
(331,660,o),
(398,724,o),
(398,810,c),
(327,810,l),
(327,764,o),
(290,730,o),
(241,730,cs),
(192,730,o),
(155,764,o),
(155,810,c),
(83,810,l),
(83,724,o),
(151,660,o),
(241,660,cs)
);
}
);
width = 481;
},
{
anchors = (
{
name = _top;
pos = (327,540);
}
);
associatedMasterId = "C1DB0BE6-5704-4A8C-8C00-D80E72C16D98";
layerId = "B46AEDBD-5DF4-4F7E-84DB-6673ABF1FB60";
name = "Black Italic";
shapes = (
{
closed = 1;
nodes = (
(495,600,o),
(573,679,o),
(587,784,c),
(448,784,l),
(438,750,o),
(408,709,o),
(362,709,cs),
(318,709,o),
(303,747,o),
(309,784,c),
(169,784,l),
(152,693,o),
(207,600,o),
(351,600,cs)
);
}
);
width = 538;
},
{
anchors = (
{
name = _top;
pos = (293,520);
}
);
associatedMasterId = "C1DB0BE6-5704-4A8C-8C00-D80E72C16D98";
layerId = "0EBC54A8-15C6-46BB-A30D-B04F95430F38";
name = Italic;
shapes = (
{
closed = 1;
nodes = (
(412,580,o),
(471,641,o),
(490,730,c),
(426,730,l),
(413,670,o),
(374,635,o),
(318,635,cs),
(262,635,o),
(237,670,o),
(250,730,c),
(186,730,l),
(167,641,o),
(218,580,o),
(315,580,cs)
);
}
);
width = 476;
},
{
anchors = (
{
name = _top;
pos = (217,536);
},
{
name = top;
pos = (217,800);
}
);
layerId = "C1DB0BE6-5704-4A8C-8C00-D80E72C16D98";
shapes = (
{
closed = 1;
nodes = (
(295,660,o),
(354,720,o),
(354,800,c),
(308,800,l),
(308,743,o),
(269,700,o),
(217,700,cs),
(165,700,o),
(126,743,o),
(126,800,c),
(80,800,l),
(80,720,o),
(139,660,o),
(217,660,cs)
);
}
);
width = 434;
},
{
anchors = (
{
name = _top;
pos = (278,515);
}
);
associatedMasterId = "C1DB0BE6-5704-4A8C-8C00-D80E72C16D98";
layerId = "98EF025F-BD4F-44E2-B72D-FAB084232EEA";
name = "Extralight Italic";
shapes = (
{
closed = 1;
nodes = (
(382,593,o),
(436,647,o),
(453,727,c),
(416,727,l),
(404,668,o),
(362,626,o),
(302,626,cs),
(241,626,o),
(217,668,o),
(230,727,c),
(193,727,l),
(176,647,o),
(220,593,o),
(301,593,cs)
);
}
);
width = 446;
}
);
metricLeft = "=period";
metricRight = "=period";
unicode = 774;
}
{
glyphname = dotaccentcomb;
lastChange = "2025-08-12 00:11:05 +0000";
layers = (
{
.lastUpdate = 795054213.555;
anchors = (
{
name = _top;
pos = (180,556);
},
{
name = top;
pos = (180,846);
}
);
layerId = "9398AC28-6BE1-4A79-9C94-3CBC2F226CE7";
shapes = (
{
pos = (0,678);
ref = period;
}
);
width = 360;
},
{
.lastUpdate = 795054213.555;
anchors = (
{
name = _top;
pos = (143,546);
},
{
name = top;
pos = (143,775);
}
);
layerId = "30C2FD74-1A74-41AC-9C29-B288AE1DBDD7";
shapes = (
{
pos = (0,661);
ref = period;
}
);
width = 286;
},
{
anchors = (
{
name = _top;
pos = (210,540);
}
);
associatedMasterId = "C1DB0BE6-5704-4A8C-8C00-D80E72C16D98";
layerId = "B46AEDBD-5DF4-4F7E-84DB-6673ABF1FB60";
name = "Black Italic";
shapes = (
{
closed = 1;
nodes = (
(295,582,o),
(331,615,o),
(331,668,cs),
(331,720,o),
(295,752,o),
(239,752,cs),
(183,752,o),
(147,720,o),
(147,668,cs),
(147,615,o),
(183,582,o),
(239,582,cs)
);
}
);
width = 309;
},
{
anchors = (
{
name = _top;
pos = (190,520);
}
);
associatedMasterId = "C1DB0BE6-5704-4A8C-8C00-D80E72C16D98";
layerId = "0EBC54A8-15C6-46BB-A30D-B04F95430F38";
name = Italic;
shapes = (
{
closed = 1;
nodes = (
(244,587,o),
(263,605,o),
(263,632,cs),
(263,660,o),
(244,677,o),
(214,677,cs),
(185,677,o),
(166,660,o),
(166,632,cs),
(166,605,o),
(185,587,o),
(214,587,cs)
);
}
);
width = 271;
},
{
.lastUpdate = 795060240.326;
anchors = (
{
name = _top;
pos = (130,536);
},
{
name = top;
pos = (130,758);
}
);
layerId = "C1DB0BE6-5704-4A8C-8C00-D80E72C16D98";
shapes = (
{
pos = (0,658);
ref = period;
}
);
width = 260;
},
{
anchors = (
{
name = _top;
pos = (183,515);
}
);
associatedMasterId = "C1DB0BE6-5704-4A8C-8C00-D80E72C16D98";
layerId = "98EF025F-BD4F-44E2-B72D-FAB084232EEA";
name = "Extralight Italic";
shapes = (
{
closed = 1;
nodes = (
(229,588,o),
(243,601,o),
(243,622,cs),
(243,642,o),
(229,655,o),
(207,655,cs),
(185,655,o),
(171,642,o),
(171,622,cs),
(171,601,o),
(185,588,o),
(207,588,cs)
);
}
);
width = 259;
}
);
metricLeft = "=period";
metricRight = "=period";
unicode = 775;
}
{
glyphname = dieresiscomb;
lastChange = "2025-08-12 00:19:47 +0000";
layers = (
{
.lastUpdate = 795054213.555;
anchors = (
{
name = _top;
pos = (315,556);
},
{
name = top;
pos = (315,846);
}
);
layerId = "9398AC28-6BE1-4A79-9C94-3CBC2F226CE7";
shapes = (
{
pos = (270,674);
ref = period;
},
{
pos = (0,674);
ref = period;
}
);
width = 630;
},
{
.lastUpdate = 795054213.555;
anchors = (
{
name = _top;
pos = (253,546);
},
{
name = top;
pos = (253,780);
}
);
guides = (
{
angle = 90;
pos = (253,560);
}
);
layerId = "30C2FD74-1A74-41AC-9C29-B288AE1DBDD7";
shapes = (
{
pos = (220,666);
ref = period;
},
{
pos = (0,666);
ref = period;
}
);
width = 506;
},
{
anchors = (
{
name = _top;
pos = (344,540);
}
);
associatedMasterId = "C1DB0BE6-5704-4A8C-8C00-D80E72C16D98";
layerId = "B46AEDBD-5DF4-4F7E-84DB-6673ABF1FB60";
name = "Black Italic";
shapes = (
{
closed = 1;
nodes = (
(311,582,o),
(351,618,o),
(351,676,cs),
(351,733,o),
(311,768,o),
(250,768,cs),
(188,768,o),
(149,733,o),
(149,676,cs),
(149,618,o),
(188,582,o),
(250,582,cs)
);
},
{
closed = 1;
nodes = (
(557,582,o),
(596,618,o),
(596,676,cs),
(596,733,o),
(557,768,o),
(495,768,cs),
(434,768,o),
(394,733,o),
(394,676,cs),
(394,618,o),
(434,582,o),
(495,582,cs)
);
}
);
width = 572;
},
{
anchors = (
{
name = _top;
pos = (275,520);
}
);
associatedMasterId = "C1DB0BE6-5704-4A8C-8C00-D80E72C16D98";
layerId = "0EBC54A8-15C6-46BB-A30D-B04F95430F38";
name = Italic;
shapes = (
{
closed = 1;
nodes = (
(251,587,o),
(271,605,o),
(271,635,cs),
(271,665,o),
(251,682,o),
(219,682,cs),
(188,682,o),
(167,665,o),
(167,635,cs),
(167,605,o),
(188,587,o),
(219,587,cs)
);
},
{
closed = 1;
nodes = (
(411,587,o),
(431,605,o),
(431,635,cs),
(431,665,o),
(411,682,o),
(379,682,cs),
(347,682,o),
(327,665,o),
(327,635,cs),
(327,605,o),
(347,587,o),
(379,587,cs)
);
}
);
width = 439;
},
{
.lastUpdate = 795054213.555;
anchors = (
{
name = _top;
pos = (215,536);
},
{
name = top;
pos = (216,760);
}
);
guides = (
{
angle = 90;
pos = (216,751);
}
);
layerId = "C1DB0BE6-5704-4A8C-8C00-D80E72C16D98";
shapes = (
{
pos = (170,660);
ref = period;
},
{
pos = (0,660);
ref = period;
}
);
width = 430;
},
{
anchors = (
{
name = _top;
pos = (255,515);
}
);
associatedMasterId = "C1DB0BE6-5704-4A8C-8C00-D80E72C16D98";
layerId = "98EF025F-BD4F-44E2-B72D-FAB084232EEA";
name = "Extralight Italic";
shapes = (
{
closed = 1;
nodes = (
(233,588,o),
(248,602,o),
(248,624,cs),
(248,646,o),
(233,658,o),
(210,658,cs),
(187,658,o),
(172,646,o),
(172,624,cs),
(172,602,o),
(187,588,o),
(210,588,cs)
);
},
{
closed = 1;
nodes = (
(369,588,o),
(383,602,o),
(383,624,cs),
(383,646,o),
(369,658,o),
(345,658,cs),
(322,658,o),
(307,646,o),
(307,624,cs),
(307,602,o),
(322,588,o),
(345,588,cs)
);
}
);
width = 399;
}
);
metricLeft = "=period";
metricRight = "=period";
unicode = 776;
}
{
glyphname = hookabovecomb;
lastChange = "2025-08-12 00:25:45 +0000";
layers = (
{
anchors = (
{
name = _top;
pos = (224,556);
},
{
name = top;
pos = (224,886);
}
);
layerId = "9398AC28-6BE1-4A79-9C94-3CBC2F226CE7";
shapes = (
{
closed = 1;
nodes = (
(308,665,o),
(352,724,o),
(352,777,cs),
(352,846,o),
(291,886,o),
(188,886,cs),
(152,886,o),
(115,880,o),
(90,869,c),
(111,786,l),
(129,791,o),
(148,794,o),
(161,794,cs),
(198,794,o),
(220,779,o),
(220,753,cs),
(220,732,o),
(202,709,o),
(171,692,c),
(233,617,l)
);
}
);
width = 442;
},
{
anchors = (
{
name = _top;
pos = (176,546);
},
{
name = top;
pos = (176,820);
}
);
layerId = "30C2FD74-1A74-41AC-9C29-B288AE1DBDD7";
shapes = (
{
closed = 1;
nodes = (
(235,631,o),
(268,678,o),
(268,725,cs),
(268,782,o),
(220,825,o),
(156,825,cs),
(133,825,o),
(102,817,o),
(83,807,c),
(95,751,l),
(110,758,o),
(133,763,o),
(147,763,cs),
(176,763,o),
(198,745,o),
(198,721,cs),
(198,701,o),
(176,680,o),
(148,660,c),
(193,607,l)
);
}
);
width = 351;
},
{
anchors = (
{
name = _top;
pos = (259,540);
}
);
associatedMasterId = "C1DB0BE6-5704-4A8C-8C00-D80E72C16D98";
layerId = "B46AEDBD-5DF4-4F7E-84DB-6673ABF1FB60";
name = "Black Italic";
shapes = (
{
closed = 1;
nodes = (
(362,634,o),
(419,695,o),
(419,765,cs),
(419,827,o),
(367,866,o),
(279,866,cs),
(241,866,o),
(208,859,o),
(183,849,c),
(179,756,l),
(194,762,o),
(216,764,o),
(231,764,cs),
(264,764,o),
(282,751,o),
(282,731,cs),
(282,699,o),
(253,679,o),
(218,662,c),
(267,590,l)
);
}
);
width = 377;
},
{
anchors = (
{
name = _top;
pos = (235,520);
}
);
associatedMasterId = "C1DB0BE6-5704-4A8C-8C00-D80E72C16D98";
layerId = "0EBC54A8-15C6-46BB-A30D-B04F95430F38";
name = Italic;
shapes = (
{
closed = 1;
nodes = (
(304,591,o),
(343,631,o),
(343,676,cs),
(343,717,o),
(310,751,o),
(257,751,cs),
(238,751,o),
(214,748,o),
(187,735,c),
(188,688,l),
(212,697,o),
(224,699,o),
(240,699,cs),
(263,699,o),
(277,686,o),
(277,669,cs),
(277,643,o),
(256,622,o),
(221,611,c),
(242,570,l)
);
}
);
width = 342;
},
{
anchors = (
{
name = _top;
pos = (178,536);
},
{
name = top;
pos = (158,790);
}
);
layerId = "C1DB0BE6-5704-4A8C-8C00-D80E72C16D98";
shapes = (
{
closed = 1;
nodes = (
(229,644,o),
(245,679,o),
(245,709,cs),
(245,766,o),
(208,800,o),
(145,800,cs),
(126,800,o),
(102,794,o),
(80,780,c),
(88,743,l),
(104,752,o),
(123,758,o),
(140,758,cs),
(178,758,o),
(200,737,o),
(200,707,cs),
(200,688,o),
(186,671,o),
(150,647,c),
(176,615,l)
);
}
);
width = 325;
},
{
anchors = (
{
name = _top;
pos = (227,515);
}
);
associatedMasterId = "C1DB0BE6-5704-4A8C-8C00-D80E72C16D98";
layerId = "98EF025F-BD4F-44E2-B72D-FAB084232EEA";
name = "Extralight Italic";
shapes = (
{
closed = 1;
nodes = (
(292,608,o),
(325,645,o),
(325,682,cs),
(325,717,o),
(299,742,o),
(256,742,cs),
(235,742,o),
(210,736,o),
(193,726,c),
(194,697,l),
(211,706,o),
(228,711,o),
(245,711,cs),
(271,711,o),
(287,697,o),
(287,678,cs),
(287,652,o),
(264,625,o),
(233,614,c),
(247,590,l)
);
}
);
width = 329;
}
);
metricLeft = "=period";
metricRight = "=period";
unicode = 777;
}
{
glyphname = ringcomb;
lastChange = "2025-08-12 00:21:43 +0000";
layers = (
{
anchors = (
{
name = _top;
pos = (220,556);
},
{
name = top;
pos = (220,865);
}
);
layerId = "9398AC28-6BE1-4A79-9C94-3CBC2F226CE7";
shapes = (
{
closed = 1;
nodes = (
(294,650,o),
(349,704,o),
(349,776,cs),
(349,847,o),
(294,900,o),
(220,900,cs),
(146,900,o),
(90,847,o),
(90,776,cs),
(90,704,o),
(146,650,o),
(220,650,cs)
);
},
{
closed = 1;
nodes = (
(192,727,o),
(171,748,o),
(171,776,cs),
(171,804,o),
(192,825,o),
(220,825,cs),
(247,825,o),
(268,804,o),
(268,776,cs),
(268,748,o),
(247,727,o),
(220,727,cs)
);
}
);
width = 439;
},
{
anchors = (
{
name = _top;
pos = (193,546);
},
{
name = top;
pos = (193,830);
}
);
layerId = "30C2FD74-1A74-41AC-9C29-B288AE1DBDD7";
shapes = (
{
closed = 1;
nodes = (
(256,650,o),
(303,696,o),
(303,757,cs),
(303,819,o),
(256,865,o),
(193,865,cs),
(130,865,o),
(83,819,o),
(83,757,cs),
(83,696,o),
(130,650,o),
(193,650,cs)
);
},
{
closed = 1;
nodes = (
(163,704,o),
(141,727,o),
(141,757,cs),
(141,787,o),
(163,810,o),
(193,810,cs),
(223,810,o),
(245,787,o),
(245,757,cs),
(245,727,o),
(223,704,o),
(193,704,cs)
);
}
);
width = 386;
},
{
anchors = (
{
name = _top;
pos = (249,540);
}
);
associatedMasterId = "C1DB0BE6-5704-4A8C-8C00-D80E72C16D98";
layerId = "B46AEDBD-5DF4-4F7E-84DB-6673ABF1FB60";
name = "Black Italic";
shapes = (
{
closed = 1;
nodes = (
(352,590,o),
(416,652,o),
(416,730,cs),
(416,797,o),
(363,840,o),
(299,840,cs),
(219,840,o),
(155,778,o),
(155,701,cs),
(155,632,o),
(208,590,o),
(273,590,cs)
);
},
{
closed = 1;
nodes = (
(260,677,o),
(247,691,o),
(247,711,cs),
(247,736,o),
(266,755,o),
(290,755,cs),
(311,755,o),
(324,739,o),
(324,721,cs),
(324,696,o),
(306,677,o),
(282,677,cs)
);
}
);
width = 381;
},
{
anchors = (
{
name = _top;
pos = (249,520);
}
);
associatedMasterId = "C1DB0BE6-5704-4A8C-8C00-D80E72C16D98";
layerId = "0EBC54A8-15C6-46BB-A30D-B04F95430F38";
name = Italic;
shapes = (
{
closed = 1;
nodes = (
(337,570,o),
(389,621,o),
(389,688,cs),
(389,744,o),
(347,780,o),
(293,780,cs),
(226,780,o),
(174,729,o),
(174,662,cs),
(174,604,o),
(217,570,o),
(271,570,cs)
);
},
{
closed = 1;
nodes = (
(248,620,o),
(227,638,o),
(227,668,cs),
(227,703,o),
(253,730,o),
(287,730,cs),
(315,730,o),
(336,712,o),
(336,682,cs),
(336,647,o),
(310,620,o),
(276,620,cs)
);
}
);
width = 387;
},
{
anchors = (
{
name = _top;
pos = (175,536);
},
{
name = top;
pos = (175,796);
}
);
layerId = "C1DB0BE6-5704-4A8C-8C00-D80E72C16D98";
shapes = (
{
closed = 1;
nodes = (
(229,650,o),
(269,690,o),
(269,744,cs),
(269,798,o),
(229,838,o),
(175,838,cs),
(121,838,o),
(80,798,o),
(80,744,cs),
(80,690,o),
(121,650,o),
(175,650,cs)
);
},
{
closed = 1;
nodes = (
(145,691,o),
(123,714,o),
(123,744,cs),
(123,774,o),
(145,796,o),
(175,796,cs),
(205,796,o),
(227,774,o),
(227,744,cs),
(227,714,o),
(205,691,o),
(175,691,cs)
);
}
);
width = 349;
},
{
anchors = (
{
name = _top;
pos = (238,515);
}
);
associatedMasterId = "C1DB0BE6-5704-4A8C-8C00-D80E72C16D98";
layerId = "98EF025F-BD4F-44E2-B72D-FAB084232EEA";
name = "Extralight Italic";
shapes = (
{
closed = 1;
nodes = (
(316,583,o),
(361,627,o),
(361,682,cs),
(361,730,o),
(327,761,o),
(280,761,cs),
(225,761,o),
(181,717,o),
(181,662,cs),
(181,614,o),
(216,583,o),
(262,583,cs)
);
},
{
closed = 1;
nodes = (
(235,612,o),
(212,633,o),
(212,665,cs),
(212,702,o),
(242,731,o),
(277,731,cs),
(307,731,o),
(330,710,o),
(330,679,cs),
(330,643,o),
(301,612,o),
(265,612,cs)
);
}
);
width = 366;
}
);
metricLeft = "=period";
metricRight = "=period";
unicode = 778;
}
{
glyphname = hungarumlautcomb;
lastChange = "2025-03-31 01:15:56 +0000";
layers = (
{
.lastUpdate = 795054213.556;
anchors = (
{
name = _top;
pos = (269,536);
},
{
name = top;
pos = (379,820);
}
);
layerId = "9398AC28-6BE1-4A79-9C94-3CBC2F226CE7";
shapes = (
{
pos = (678,0);
ref = gravecomb;
scale = (-1,1);
},
{
alignment = -1;
pos = (461,0);
ref = gravecomb;
scale = (-1,1);
}
);
width = 678;
},
{
.lastUpdate = 795054213.556;
anchors = (
{
name = _top;
pos = (196,526);
},
{
name = top;
pos = (296,790);
}
);
layerId = "30C2FD74-1A74-41AC-9C29-B288AE1DBDD7";
shapes = (
{
pos = (513,0);
ref = gravecomb;
scale = (-1,1);
},
{
alignment = -1;
pos = (356,0);
ref = gravecomb;
scale = (-1,1);
}
);
width = 513;
},
{
anchors = (
{
name = _top;
pos = (298,540);
}
);
associatedMasterId = "C1DB0BE6-5704-4A8C-8C00-D80E72C16D98";
layerId = "B46AEDBD-5DF4-4F7E-84DB-6673ABF1FB60";
name = "Black Italic";
shapes = (
{
closed = 1;
nodes = (
(490,600,l),
(606,784,l),
(443,784,l),
(339,600,l)
);
},
{
closed = 1;
nodes = (
(281,600,l),
(397,784,l),
(234,784,l),
(130,600,l)
);
}
);
width = 557;
},
{
anchors = (
{
name = _top;
pos = (240,520);
}
);
associatedMasterId = "C1DB0BE6-5704-4A8C-8C00-D80E72C16D98";
layerId = "0EBC54A8-15C6-46BB-A30D-B04F95430F38";
name = Italic;
shapes = (
{
closed = 1;
nodes = (
(357,580,l),
(503,730,l),
(410,730,l),
(291,580,l)
);
},
{
closed = 1;
nodes = (
(215,580,l),
(334,730,l),
(245,730,l),
(154,580,l)
);
}
);
width = 489;
},
{
.lastUpdate = 795054213.556;
anchors = (
{
name = _top;
pos = (160,516);
},
{
name = top;
pos = (261,790);
}
);
layerId = "C1DB0BE6-5704-4A8C-8C00-D80E72C16D98";
shapes = (
{
pos = (440,0);
ref = gravecomb;
scale = (-1,1);
},
{
alignment = -1;
pos = (313,0);
ref = gravecomb;
scale = (-1,1);
}
);
width = 440;
},
{
anchors = (
{
name = _top;
pos = (228,515);
}
);
associatedMasterId = "C1DB0BE6-5704-4A8C-8C00-D80E72C16D98";
layerId = "98EF025F-BD4F-44E2-B72D-FAB084232EEA";
name = "Extralight Italic";
shapes = (
{
closed = 1;
nodes = (
(329,593,l),
(461,740,l),
(411,740,l),
(291,593,l)
);
},
{
closed = 1;
nodes = (
(199,593,l),
(321,740,l),
(273,740,l),
(164,593,l)
);
}
);
width = 451;
}
);
metricLeft = "=period";
metricRight = "=period";
unicode = 779;
}
{
glyphname = caroncomb;
lastChange = "2025-08-12 00:18:13 +0000";
layers = (
{
anchors = (
{
name = _top;
pos = (296,556);
},
{
name = top;
pos = (296,790);
}
);
layerId = "9398AC28-6BE1-4A79-9C94-3CBC2F226CE7";
shapes = (
{
closed = 1;
nodes = (
(385,670,l),
(502,870,l),
(358,870,l),
(296,750,l),
(234,870,l),
(90,870,l),
(206,670,l)
);
}
);
width = 592;
},
{
anchors = (
{
name = _top;
pos = (236,546);
},
{
name = top;
pos = (236,750);
}
);
layerId = "30C2FD74-1A74-41AC-9C29-B288AE1DBDD7";
shapes = (
{
closed = 1;
nodes = (
(277,650,l),
(388,820,l),
(300,820,l),
(235,709,l),
(171,820,l),
(83,820,l),
(193,650,l)
);
}
);
width = 471;
},
{
anchors = (
{
name = _top;
pos = (338,540);
}
);
associatedMasterId = "C1DB0BE6-5704-4A8C-8C00-D80E72C16D98";
layerId = "B46AEDBD-5DF4-4F7E-84DB-6673ABF1FB60";
name = "Black Italic";
shapes = (
{
closed = 1;
nodes = (
(460,600,l),
(610,784,l),
(442,784,l),
(367,691,l),
(332,784,l),
(169,784,l),
(250,600,l)
);
}
);
width = 561;
},
{
anchors = (
{
name = _top;
pos = (302,520);
}
);
associatedMasterId = "C1DB0BE6-5704-4A8C-8C00-D80E72C16D98";
layerId = "0EBC54A8-15C6-46BB-A30D-B04F95430F38";
name = Italic;
shapes = (
{
closed = 1;
nodes = (
(345,580,l),
(494,730,l),
(412,730,l),
(318,638,l),
(263,730,l),
(186,730,l),
(279,580,l)
);
}
);
width = 480;
},
{
anchors = (
{
name = _top;
pos = (207,536);
},
{
name = top;
pos = (207,720);
}
);
layerId = "C1DB0BE6-5704-4A8C-8C00-D80E72C16D98";
shapes = (
{
closed = 1;
nodes = (
(228,650,l),
(334,820,l),
(283,820,l),
(207,686,l),
(131,820,l),
(80,820,l),
(185,650,l)
);
}
);
width = 414;
},
{
anchors = (
{
name = _top;
pos = (294,515);
}
);
associatedMasterId = "C1DB0BE6-5704-4A8C-8C00-D80E72C16D98";
layerId = "98EF025F-BD4F-44E2-B72D-FAB084232EEA";
name = "Extralight Italic";
shapes = (
{
closed = 1;
nodes = (
(329,593,l),
(484,740,l),
(435,740,l),
(314,628,l),
(239,740,l),
(196,740,l),
(292,593,l)
);
}
);
width = 474;
}
);
metricLeft = "=period";
metricRight = "=period";
unicode = 780;
}
{
glyphname = dblgravecomb;
lastChange = "2025-08-12 00:26:05 +0000";
layers = (
{
.lastUpdate = 795054213.556;
anchors = (
{
name = _top;
pos = (409,556);
},
{
name = top;
pos = (299,820);
}
);
layerId = "9398AC28-6BE1-4A79-9C94-3CBC2F226CE7";
shapes = (
{
ref = gravecomb;
},
{
alignment = -1;
pos = (217,0);
ref = gravecomb;
}
);
width = 678;
},
{
.lastUpdate = 795054213.556;
anchors = (
{
name = _top;
pos = (317,546);
},
{
name = top;
pos = (217,790);
}
);
layerId = "30C2FD74-1A74-41AC-9C29-B288AE1DBDD7";
shapes = (
{
ref = gravecomb;
},
{
alignment = -1;
pos = (157,0);
ref = gravecomb;
}
);
width = 513;
},
{
anchors = (
{
name = _top;
pos = (434,540);
}
);
associatedMasterId = "C1DB0BE6-5704-4A8C-8C00-D80E72C16D98";
layerId = "B46AEDBD-5DF4-4F7E-84DB-6673ABF1FB60";
name = "Black Italic";
shapes = (
{
closed = 1;
nodes = (
(400,600,l),
(382,784,l),
(169,784,l),
(233,600,l)
);
},
{
closed = 1;
nodes = (
(659,600,l),
(641,784,l),
(428,784,l),
(492,600,l)
);
}
);
width = 649;
},
{
anchors = (
{
name = _top;
pos = (373,520);
}
);
associatedMasterId = "C1DB0BE6-5704-4A8C-8C00-D80E72C16D98";
layerId = "0EBC54A8-15C6-46BB-A30D-B04F95430F38";
name = Italic;
shapes = (
{
closed = 1;
nodes = (
(334,580,l),
(279,730,l),
(186,730,l),
(268,580,l)
);
},
{
closed = 1;
nodes = (
(503,580,l),
(448,730,l),
(355,730,l),
(437,580,l)
);
}
);
width = 521;
},
{
.lastUpdate = 795054213.556;
anchors = (
{
name = _top;
pos = (280,536);
},
{
name = top;
pos = (179,790);
}
);
layerId = "C1DB0BE6-5704-4A8C-8C00-D80E72C16D98";
shapes = (
{
ref = gravecomb;
},
{
alignment = -1;
pos = (127,0);
ref = gravecomb;
}
);
width = 440;
},
{
anchors = (
{
name = _top;
pos = (345,515);
}
);
associatedMasterId = "C1DB0BE6-5704-4A8C-8C00-D80E72C16D98";
layerId = "98EF025F-BD4F-44E2-B72D-FAB084232EEA";
name = "Extralight Italic";
shapes = (
{
closed = 1;
nodes = (
(310,593,l),
(247,740,l),
(196,740,l),
(272,593,l)
);
},
{
closed = 1;
nodes = (
(451,593,l),
(387,740,l),
(337,740,l),
(413,593,l)
);
}
);
width = 473;
}
);
metricLeft = "=period";
metricRight = "=period";
unicode = 783;
}
{
glyphname = breveinvertedcomb;
lastChange = "2025-08-12 00:26:33 +0000";
layers = (
{
.lastUpdate = 795054213.556;
anchors = (
{
name = _top;
pos = (305,556);
},
{
name = top;
pos = (305,840);
}
);
layerId = "9398AC28-6BE1-4A79-9C94-3CBC2F226CE7";
shapes = (
{
pos = (0,1480);
ref = brevecomb;
scale = (1,-1);
}
);
width = 610;
},
{
.lastUpdate = 795054213.556;
anchors = (
{
name = _top;
pos = (241,546);
},
{
name = top;
pos = (241,800);
}
);
layerId = "30C2FD74-1A74-41AC-9C29-B288AE1DBDD7";
shapes = (
{
pos = (0,1440);
ref = brevecomb;
scale = (1,-1);
}
);
width = 481;
},
{
anchors = (
{
name = _top;
pos = (327,540);
}
);
associatedMasterId = "C1DB0BE6-5704-4A8C-8C00-D80E72C16D98";
layerId = "B46AEDBD-5DF4-4F7E-84DB-6673ABF1FB60";
name = "Black Italic";
shapes = (
{
closed = 1;
nodes = (
(270,600,l),
(280,634,o),
(310,675,o),
(356,675,cs),
(400,675,o),
(415,637,o),
(409,600,c),
(549,600,l),
(566,691,o),
(511,784,o),
(367,784,cs),
(223,784,o),
(145,705,o),
(131,600,c)
);
}
);
width = 539;
},
{
anchors = (
{
name = _top;
pos = (294,520);
}
);
associatedMasterId = "C1DB0BE6-5704-4A8C-8C00-D80E72C16D98";
layerId = "0EBC54A8-15C6-46BB-A30D-B04F95430F38";
name = Italic;
shapes = (
{
closed = 1;
nodes = (
(234,654,l),
(247,714,o),
(286,749,o),
(342,749,cs),
(398,749,o),
(423,714,o),
(410,654,c),
(474,654,l),
(493,743,o),
(442,804,o),
(345,804,cs),
(248,804,o),
(189,743,o),
(170,654,c)
);
}
);
width = 476;
},
{
.lastUpdate = 795054213.556;
anchors = (
{
name = _top;
pos = (217,536);
},
{
name = top;
pos = (217,780);
}
);
layerId = "C1DB0BE6-5704-4A8C-8C00-D80E72C16D98";
shapes = (
{
pos = (0,1420);
ref = brevecomb;
scale = (1,-1);
}
);
width = 434;
},
{
anchors = (
{
name = _top;
pos = (278,515);
}
);
associatedMasterId = "C1DB0BE6-5704-4A8C-8C00-D80E72C16D98";
layerId = "98EF025F-BD4F-44E2-B72D-FAB084232EEA";
name = "Extralight Italic";
shapes = (
{
closed = 1;
nodes = (
(214,657,l),
(227,716,o),
(268,758,o),
(329,758,cs),
(390,758,o),
(413,716,o),
(401,657,c),
(438,657,l),
(455,737,o),
(411,791,o),
(330,791,cs),
(249,791,o),
(195,737,o),
(178,657,c)
);
}
);
width = 446;
}
);
metricLeft = "=period";
metricRight = "=period";
unicode = 785;
}
{
glyphname = commaturnedabovecomb;
lastChange = "2025-08-12 00:26:46 +0000";
layers = (
{
anchors = (
{
name = _top;
pos = (179,536);
}
);
layerId = "9398AC28-6BE1-4A79-9C94-3CBC2F226CE7";
shapes = (
{
closed = 1;
nodes = (
(283,600,l),
(307,823,l),
(155,823,l),
(90,600,l)
);
}
);
width = 397;
},
{
anchors = (
{
name = _top;
pos = (120,526);
}
);
layerId = "30C2FD74-1A74-41AC-9C29-B288AE1DBDD7";
shapes = (
{
closed = 1;
nodes = (
(173,600,l),
(217,790,l),
(141,790,l),
(83,600,l)
);
}
);
width = 300;
},
{
anchors = (
{
name = _top;
pos = (239,540);
}
);
associatedMasterId = "C1DB0BE6-5704-4A8C-8C00-D80E72C16D98";
layerId = "B46AEDBD-5DF4-4F7E-84DB-6673ABF1FB60";
name = "Black Italic";
shapes = (
{
closed = 1;
nodes = (
(336,600,l),
(402,793,l),
(247,793,l),
(130,600,l)
);
}
);
width = 351;
},
{
anchors = (
{
name = _top;
pos = (189,520);
}
);
associatedMasterId = "C1DB0BE6-5704-4A8C-8C00-D80E72C16D98";
layerId = "0EBC54A8-15C6-46BB-A30D-B04F95430F38";
name = Italic;
shapes = (
{
closed = 1;
nodes = (
(254,600,l),
(334,770,l),
(259,770,l),
(158,600,l)
);
}
);
width = 312;
},
{
anchors = (
{
name = _top;
pos = (97,516);
}
);
layerId = "C1DB0BE6-5704-4A8C-8C00-D80E72C16D98";
shapes = (
{
closed = 1;
nodes = (
(135,600,l),
(183,783,l),
(133,783,l),
(80,600,l)
);
}
);
width = 263;
},
{
anchors = (
{
name = _top;
pos = (172,515);
}
);
associatedMasterId = "C1DB0BE6-5704-4A8C-8C00-D80E72C16D98";
layerId = "98EF025F-BD4F-44E2-B72D-FAB084232EEA";
name = "Extralight Italic";
shapes = (
{
closed = 1;
nodes = (
(215,600,l),
(298,763,l),
(259,763,l),
(166,600,l)
);
}
);
width = 284;
}
);
metricLeft = "=period";
metricRight = "=period";
unicode = 786;
}
{
glyphname = horncomb;
lastChange = "2025-04-01 01:10:03 +0000";
layers = (
{
anchors = (
{
name = _topright;
pos = (90,749);
},
{
name = topright;
pos = (290,868);
}
);
layerId = "9398AC28-6BE1-4A79-9C94-3CBC2F226CE7";
shapes = (
{
closed = 1;
nodes = (
(137,650,ls),
(213,650,o),
(270,691,o),
(270,759,cs),
(270,793,o),
(260,840,o),
(247,868,c),
(121,868,l),
(132,839,o),
(151,798,o),
(151,772,cs),
(151,754,o),
(141,743,o),
(124,743,cs),
(90,743,l),
(90,650,l)
);
}
);
width = 360;
},
{
anchors = (
{
name = _topright;
pos = (83,701);
},
{
name = topright;
pos = (242,834);
}
);
layerId = "30C2FD74-1A74-41AC-9C29-B288AE1DBDD7";
shapes = (
{
closed = 1;
nodes = (
(126,640,ls),
(186,640,o),
(222,672,o),
(222,727,cs),
(222,761,o),
(213,801,o),
(199,834,c),
(125,834,l),
(139,804,o),
(147,767,o),
(147,734,cs),
(147,713,o),
(135,701,o),
(116,701,cs),
(83,701,l),
(83,640,l)
);
}
);
width = 305;
},
{
anchors = (
{
name = _topright;
pos = (253,620);
}
);
associatedMasterId = "C1DB0BE6-5704-4A8C-8C00-D80E72C16D98";
layerId = "B46AEDBD-5DF4-4F7E-84DB-6673ABF1FB60";
name = "Black Italic";
shapes = (
{
closed = 1;
nodes = (
(282,540,o),
(380,610,o),
(401,740,c),
(252,730,l),
(244,657,o),
(204,627,o),
(134,618,c),
(118,540,l)
);
}
);
width = 361;
},
{
anchors = (
{
name = _topright;
pos = (266,643);
}
);
associatedMasterId = "C1DB0BE6-5704-4A8C-8C00-D80E72C16D98";
layerId = "0EBC54A8-15C6-46BB-A30D-B04F95430F38";
name = Italic;
shapes = (
{
closed = 1;
nodes = (
(268,600,o),
(344,652,o),
(358,760,c),
(280,750,l),
(276,688,o),
(246,651,o),
(167,643,c),
(178,600,l)
);
}
);
width = 339;
},
{
anchors = (
{
name = _topright;
pos = (80,681);
},
{
name = topright;
pos = (212,817);
}
);
layerId = "C1DB0BE6-5704-4A8C-8C00-D80E72C16D98";
shapes = (
{
closed = 1;
nodes = (
(116,640,ls),
(164,640,o),
(192,666,o),
(192,710,cs),
(192,742,o),
(184,782,o),
(171,817,c),
(126,817,l),
(139,782,o),
(146,744,o),
(146,716,cs),
(146,694,o),
(134,681,o),
(113,681,cs),
(80,681,l),
(80,640,l)
);
}
);
width = 272;
},
{
anchors = (
{
name = _topright;
pos = (256,652);
}
);
associatedMasterId = "C1DB0BE6-5704-4A8C-8C00-D80E72C16D98";
layerId = "98EF025F-BD4F-44E2-B72D-FAB084232EEA";
name = "Extralight Italic";
shapes = (
{
closed = 1;
nodes = (
(272,627,o),
(344,672,o),
(354,760,c),
(308,753,l),
(304,691,o),
(262,654,o),
(177,652,c),
(185,627,l)
);
}
);
width = 341;
}
);
metricLeft = "=period";
metricRight = "=period";
unicode = 795;
}
{
glyphname = dotbelowcomb;
lastChange = "2025-04-01 00:14:48 +0000";
layers = (
{
.lastUpdate = 795058873.259;
anchors = (
{
name = _bottom;
pos = (180,0);
}
);
layerId = "9398AC28-6BE1-4A79-9C94-3CBC2F226CE7";
shapes = (
{
pos = (0,-228);
ref = period;
}
);
width = 360;
},
{
.lastUpdate = 795054213.556;
anchors = (
{
name = _bottom;
pos = (143,0);
}
);
layerId = "30C2FD74-1A74-41AC-9C29-B288AE1DBDD7";
shapes = (
{
pos = (0,-204);
ref = period;
}
);
width = 286;
},
{
anchors = (
{
name = _bottom;
pos = (98,0);
}
);
associatedMasterId = "C1DB0BE6-5704-4A8C-8C00-D80E72C16D98";
layerId = "B46AEDBD-5DF4-4F7E-84DB-6673ABF1FB60";
name = "Black Italic";
shapes = (
{
closed = 1;
nodes = (
(121,-240,o),
(157,-207,o),
(157,-154,cs),
(157,-102,o),
(121,-70,o),
(65,-70,cs),
(9,-70,o),
(-28,-102,o),
(-28,-154,cs),
(-28,-207,o),
(9,-240,o),
(65,-240,cs)
);
}
);
width = 310;
},
{
anchors = (
{
name = _bottom;
pos = (80,0);
}
);
associatedMasterId = "C1DB0BE6-5704-4A8C-8C00-D80E72C16D98";
layerId = "0EBC54A8-15C6-46BB-A30D-B04F95430F38";
name = Italic;
shapes = (
{
closed = 1;
nodes = (
(80,-186,o),
(99,-169,o),
(99,-141,cs),
(99,-113,o),
(80,-96,o),
(50,-96,cs),
(21,-96,o),
(2,-113,o),
(2,-141,cs),
(2,-169,o),
(21,-186,o),
(50,-186,cs)
);
}
);
width = 271;
},
{
.lastUpdate = 795057764.599;
anchors = (
{
name = _bottom;
pos = (130,0);
}
);
layerId = "C1DB0BE6-5704-4A8C-8C00-D80E72C16D98";
shapes = (
{
pos = (0,-200);
ref = period;
}
);
width = 260;
},
{
anchors = (
{
name = _bottom;
pos = (76,0);
}
);
associatedMasterId = "C1DB0BE6-5704-4A8C-8C00-D80E72C16D98";
layerId = "98EF025F-BD4F-44E2-B72D-FAB084232EEA";
name = "Extralight Italic";
shapes = (
{
closed = 1;
nodes = (
(69,-171,o),
(83,-158,o),
(83,-137,cs),
(83,-116,o),
(69,-103,o),
(46,-103,cs),
(25,-103,o),
(10,-116,o),
(10,-137,cs),
(10,-158,o),
(25,-171,o),
(46,-171,cs)
);
}
);
width = 261;
}
);
metricLeft = "=period";
metricRight = "=period";
unicode = 803;
}
{
glyphname = dieresisbelowcomb;
lastChange = "2025-03-31 00:49:37 +0000";
layers = (
{
.lastUpdate = 795054213.556;
anchors = (
{
name = _bottom;
pos = (315,0);
}
);
layerId = "9398AC28-6BE1-4A79-9C94-3CBC2F226CE7";
shapes = (
{
pos = (270,-216);
ref = period;
},
{
pos = (0,-216);
ref = period;
}
);
width = 630;
},
{
.lastUpdate = 795054213.556;
anchors = (
{
name = _bottom;
pos = (253,0);
}
);
layerId = "30C2FD74-1A74-41AC-9C29-B288AE1DBDD7";
shapes = (
{
pos = (220,-186);
ref = period;
},
{
pos = (0,-186);
ref = period;
}
);
width = 506;
},
{
anchors = (
{
name = _bottom;
pos = (230,0);
}
);
associatedMasterId = "C1DB0BE6-5704-4A8C-8C00-D80E72C16D98";
layerId = "B46AEDBD-5DF4-4F7E-84DB-6673ABF1FB60";
name = "Black Italic";
shapes = (
{
closed = 1;
nodes = (
(379,-256,o),
(418,-220,o),
(418,-162,cs),
(418,-105,o),
(379,-70,o),
(317,-70,cs),
(256,-70,o),
(216,-105,o),
(216,-162,cs),
(216,-220,o),
(256,-256,o),
(317,-256,cs)
);
},
{
closed = 1;
nodes = (
(133,-256,o),
(173,-220,o),
(173,-162,cs),
(173,-105,o),
(133,-70,o),
(72,-70,cs),
(10,-70,o),
(-29,-105,o),
(-29,-162,cs),
(-29,-220,o),
(10,-256,o),
(72,-256,cs)
);
}
);
width = 572;
},
{
anchors = (
{
name = _bottom;
pos = (164,0);
}
);
associatedMasterId = "C1DB0BE6-5704-4A8C-8C00-D80E72C16D98";
layerId = "0EBC54A8-15C6-46BB-A30D-B04F95430F38";
name = Italic;
shapes = (
{
closed = 1;
nodes = (
(245,-191,o),
(265,-174,o),
(265,-144,cs),
(265,-114,o),
(245,-96,o),
(213,-96,cs),
(181,-96,o),
(161,-114,o),
(161,-144,cs),
(161,-174,o),
(181,-191,o),
(213,-191,cs)
);
},
{
closed = 1;
nodes = (
(85,-191,o),
(105,-174,o),
(105,-144,cs),
(105,-114,o),
(85,-96,o),
(53,-96,cs),
(22,-96,o),
(1,-114,o),
(1,-144,cs),
(1,-174,o),
(22,-191,o),
(53,-191,cs)
);
}
);
width = 438;
},
{
.lastUpdate = 795054213.556;
anchors = (
{
name = _bottom;
pos = (215,0);
}
);
layerId = "C1DB0BE6-5704-4A8C-8C00-D80E72C16D98";
shapes = (
{
pos = (170,-173);
ref = period;
},
{
pos = (0,-173);
ref = period;
}
);
width = 430;
},
{
anchors = (
{
name = _bottom;
pos = (145,0);
}
);
associatedMasterId = "C1DB0BE6-5704-4A8C-8C00-D80E72C16D98";
layerId = "98EF025F-BD4F-44E2-B72D-FAB084232EEA";
name = "Extralight Italic";
shapes = (
{
closed = 1;
nodes = (
(207,-173,o),
(222,-161,o),
(222,-139,cs),
(222,-117,o),
(207,-103,o),
(184,-103,cs),
(160,-103,o),
(146,-117,o),
(146,-139,cs),
(146,-161,o),
(160,-173,o),
(184,-173,cs)
);
},
{
closed = 1;
nodes = (
(72,-173,o),
(86,-161,o),
(86,-139,cs),
(86,-117,o),
(72,-103,o),
(48,-103,cs),
(25,-103,o),
(10,-117,o),
(10,-139,cs),
(10,-161,o),
(25,-173,o),
(48,-173,cs)
);
}
);
width = 400;
}
);
metricLeft = "=period";
metricRight = "=period";
unicode = 804;
}
{
glyphname = commaaccentcomb;
lastChange = "2025-03-31 00:49:52 +0000";
layers = (
{
anchors = (
{
name = _bottom;
pos = (210,0);
}
);
layerId = "9398AC28-6BE1-4A79-9C94-3CBC2F226CE7";
shapes = (
{
closed = 1;
nodes = (
(232,-263,l),
(307,-70,l),
(114,-70,l),
(90,-263,l)
);
}
);
width = 397;
},
{
anchors = (
{
name = _bottom;
pos = (172,0);
}
);
layerId = "30C2FD74-1A74-41AC-9C29-B288AE1DBDD7";
shapes = (
{
closed = 1;
nodes = (
(152,-240,l),
(217,-70,l),
(127,-70,l),
(83,-240,l)
);
}
);
width = 300;
},
{
anchors = (
{
name = _bottom;
pos = (97,0);
}
);
associatedMasterId = "C1DB0BE6-5704-4A8C-8C00-D80E72C16D98";
layerId = "B46AEDBD-5DF4-4F7E-84DB-6673ABF1FB60";
name = "Black Italic";
shapes = (
{
closed = 1;
nodes = (
(82,-263,l),
(174,-70,l),
(-10,-70,l),
(-53,-263,l)
);
}
);
width = 306;
},
{
anchors = (
{
name = _bottom;
pos = (101,0);
}
);
associatedMasterId = "C1DB0BE6-5704-4A8C-8C00-D80E72C16D98";
layerId = "0EBC54A8-15C6-46BB-A30D-B04F95430F38";
name = Italic;
shapes = (
{
closed = 1;
nodes = (
(52,-240,l),
(132,-70,l),
(41,-70,l),
(-20,-240,l)
);
}
);
width = 288;
},
{
anchors = (
{
name = _bottom;
pos = (150,0);
}
);
layerId = "C1DB0BE6-5704-4A8C-8C00-D80E72C16D98";
shapes = (
{
closed = 1;
nodes = (
(115,-233,l),
(173,-70,l),
(128,-70,l),
(80,-233,l)
);
}
);
width = 253;
},
{
anchors = (
{
name = _bottom;
pos = (91,0);
}
);
associatedMasterId = "C1DB0BE6-5704-4A8C-8C00-D80E72C16D98";
layerId = "98EF025F-BD4F-44E2-B72D-FAB084232EEA";
name = "Extralight Italic";
shapes = (
{
closed = 1;
nodes = (
(26,-233,l),
(100,-70,l),
(53,-70,l),
(-11,-233,l)
);
}
);
width = 263;
}
);
metricLeft = "=period";
metricRight = "=period";
unicode = 806;
}
{
glyphname = cedillacomb;
lastChange = "2025-03-31 00:26:27 +0000";
layers = (
{
anchors = (
{
name = _bottom;
pos = (197,0);
}
);
layerId = "9398AC28-6BE1-4A79-9C94-3CBC2F226CE7";
shapes = (
{
closed = 1;
nodes = (
(298,-240,o),
(351,-202,o),
(351,-129,cs),
(351,-83,o),
(316,-52,o),
(256,-38,c),
(264,10,l),
(149,10,l),
(129,-78,l),
(194,-83,o),
(232,-94,o),
(232,-117,cs),
(232,-137,o),
(215,-144,o),
(187,-144,cs),
(165,-144,o),
(141,-137,o),
(121,-125,c),
(90,-208,l),
(122,-229,o),
(172,-240,o),
(207,-240,cs)
);
}
);
width = 441;
},
{
anchors = (
{
name = _bottom;
pos = (175,0);
}
);
layerId = "30C2FD74-1A74-41AC-9C29-B288AE1DBDD7";
shapes = (
{
closed = 1;
nodes = (
(250,-230,o),
(298,-189,o),
(298,-134,cs),
(298,-92,o),
(265,-48,o),
(198,-38,c),
(211,10,l),
(147,10,l),
(123,-79,l),
(205,-86,o),
(226,-112,o),
(226,-134,cs),
(226,-157,o),
(205,-170,o),
(177,-170,cs),
(152,-170,o),
(126,-157,o),
(104,-140,c),
(83,-193,l),
(109,-214,o),
(154,-230,o),
(187,-230,cs)
);
}
);
width = 381;
},
{
anchors = (
{
name = _bottom;
pos = (108,0);
}
);
associatedMasterId = "C1DB0BE6-5704-4A8C-8C00-D80E72C16D98";
layerId = "B46AEDBD-5DF4-4F7E-84DB-6673ABF1FB60";
name = "Black Italic";
shapes = (
{
closed = 1;
nodes = (
(155,-240,o),
(224,-190,o),
(224,-125,cs),
(224,-83,o),
(190,-52,o),
(127,-38,c),
(151,10,l),
(70,10,l),
(38,-58,l),
(81,-62,o),
(108,-74,o),
(108,-97,cs),
(108,-120,o),
(89,-134,o),
(60,-134,cs),
(39,-134,o),
(21,-128,o),
(9,-115,c),
(-42,-208,l),
(-17,-228,o),
(20,-240,o),
(64,-240,cs)
);
}
);
width = 370;
},
{
anchors = (
{
name = _bottom;
pos = (121,0);
}
);
associatedMasterId = "C1DB0BE6-5704-4A8C-8C00-D80E72C16D98";
layerId = "0EBC54A8-15C6-46BB-A30D-B04F95430F38";
name = Italic;
shapes = (
{
closed = 1;
nodes = (
(147,-224,o),
(202,-178,o),
(202,-125,cs),
(202,-88,o),
(172,-58,o),
(116,-47,c),
(141,10,l),
(105,10,l),
(74,-59,l),
(127,-66,o),
(153,-88,o),
(153,-117,cs),
(153,-151,o),
(122,-179,o),
(81,-179,cs),
(53,-179,o),
(29,-166,o),
(15,-146,c),
(-9,-185,l),
(8,-209,o),
(43,-224,o),
(81,-224,cs)
);
}
);
width = 372;
},
{
anchors = (
{
name = _bottom;
pos = (168,0);
}
);
layerId = "C1DB0BE6-5704-4A8C-8C00-D80E72C16D98";
shapes = (
{
closed = 1;
nodes = (
(230,-220,o),
(271,-184,o),
(271,-136,cs),
(271,-95,o),
(233,-58,o),
(177,-49,c),
(193,10,l),
(145,10,l),
(120,-76,l),
(188,-81,o),
(228,-105,o),
(228,-139,cs),
(228,-165,o),
(208,-180,o),
(174,-180,cs),
(153,-180,o),
(123,-170,o),
(95,-154,c),
(80,-191,l),
(110,-209,o),
(145,-220,o),
(176,-220,cs)
);
}
);
width = 351;
},
{
anchors = (
{
name = _bottom;
pos = (128,0);
}
);
associatedMasterId = "C1DB0BE6-5704-4A8C-8C00-D80E72C16D98";
layerId = "98EF025F-BD4F-44E2-B72D-FAB084232EEA";
name = "Extralight Italic";
shapes = (
{
closed = 1;
nodes = (
(146,-215,o),
(198,-171,o),
(198,-121,cs),
(198,-84,o),
(167,-55,o),
(115,-46,c),
(142,7,l),
(118,7,l),
(86,-56,l),
(139,-63,o),
(168,-87,o),
(168,-118,cs),
(168,-156,o),
(132,-188,o),
(88,-188,cs),
(58,-188,o),
(32,-173,o),
(18,-151,c),
(1,-175,l),
(17,-200,o),
(50,-215,o),
(87,-215,cs)
);
}
);
width = 373;
}
);
metricLeft = "=period";
metricRight = "=period";
unicode = 807;
}
